<?xml version="1.0" encoding="UTF-8" standalone="no"?>
<!-- Created with Inkscape (http://www.inkscape.org/) -->

<svg
   width="1122.5197"
   height="793.70081"
   viewBox="0 0 296.99998 210"
   version="1.1"
   id="svg1"
   xml:space="preserve"
   inkscape:version="1.3.2 (091e20e, 2023-11-25, custom)"
   sodipodi:docname="cooking illustration.svg"
   xmlns:inkscape="http://www.inkscape.org/namespaces/inkscape"
   xmlns:sodipodi="http://sodipodi.sourceforge.net/DTD/sodipodi-0.dtd"
   xmlns="http://www.w3.org/2000/svg"
   xmlns:svg="http://www.w3.org/2000/svg"><sodipodi:namedview
     id="namedview1"
     pagecolor="#ffffff"
     bordercolor="#000000"
     borderopacity="0.25"
     inkscape:showpageshadow="2"
     inkscape:pageopacity="0.0"
     inkscape:pagecheckerboard="0"
     inkscape:deskcolor="#d1d1d1"
     inkscape:document-units="mm"
     showborder="false"
     inkscape:zoom="1.0104048"
     inkscape:cx="322.14811"
     inkscape:cy="257.32261"
     inkscape:window-width="1920"
     inkscape:window-height="991"
     inkscape:window-x="-9"
     inkscape:window-y="-9"
     inkscape:window-maximized="1"
     inkscape:current-layer="layer1" /><defs
     id="defs1" /><g
     inkscape:label="Layer 1"
     inkscape:groupmode="layer"
     id="layer1"><path
       style="fill:#3d550c;fill-opacity:1;stroke:#3d550c;stroke-opacity:1;stroke-width:0.682625;stroke-dasharray:none"
       d="m 69.823429,156.54517 c 8.478229,-0.0547 11.211385,-0.15048 11.410681,-0.39982 0.417108,-0.52186 0.89719,-3.74469 1.112996,-7.47163 0.178071,-3.07526 0.399449,-4.19481 2.090044,-10.56976 2.006977,-7.56797 2.118599,-8.59779 0.995938,-9.18848 -1.076933,-0.56663 -1.096902,-1.06481 -0.133511,-3.33089 l 0.479857,-1.12872 -2.836684,0.16854 c -3.301944,0.19619 -4.810997,-0.1093 -5.895071,-1.19337 -0.721314,-0.72132 -0.725027,-0.74373 -0.599138,-3.61657 0.06967,-1.58991 0.24545,-3.24794 0.39062,-3.6845 0.14517,-0.43656 0.368223,-1.94502 0.495674,-3.35213 0.14333,-1.58242 0.589939,-3.74 1.170751,-5.65592 0.516462,-1.70365 0.939022,-3.61682 0.939022,-4.25148 0,-0.63466 -0.381729,-2.31622 -0.848288,-3.736787 l -0.848288,-2.582851 0.05982,-7.9375 0.05982,-7.9375 0.828066,-1.700408 c 1.246244,-2.559125 3.30248,-4.364179 11.154745,-9.792129 l 7.05662,-4.877954 0,-1.42108 c 0,-0.781594 0.139251,-2.264276 0.309446,-3.294848 0.264742,-1.603072 0.239972,-2.227113 -0.171461,-4.31963 -0.558775,-2.84189 -0.388119,-3.97926 0.983334,-6.55362 0.776904,-1.458329 0.801568,-1.597116 0.50903,-2.864455 -0.169087,-0.732529 -0.307432,-2.01871 -0.307432,-2.858179 0,-1.737843 -0.35475,-2.223741 -1.852083,-2.536783 -1.920527,-0.401517 -2.354518,-0.812675 -3.015279,-2.856641 -0.320551,-0.991574 0.493017,-2.151347 2.118199,-3.019577 1.786089,-0.954193 2.745233,-1.899363 4.32147,-4.258513 1.566338,-2.344331 2.335718,-2.778003 4.513108,-2.543871 3.43048,0.368875 3.95859,0.299131 6.85205,-0.904894 3.44183,-1.432211 5.02463,-1.634959 6.76247,-0.866232 0.96549,0.427082 1.80185,0.561523 3.49324,0.561523 3.41501,0 4.58807,0.695852 4.58807,2.721603 0,1.189894 -0.86437,2.428461 -2.71685,3.89298 -1.23153,0.97361 -1.50619,1.335301 -1.5069,1.984375 -0.001,1.333616 0.95862,6.021097 1.46317,7.14375 0.37469,0.833695 0.47687,1.760327 0.48138,4.365625 0.005,3.065573 -0.0659,3.543257 -0.9742,6.535871 -0.76539,2.521733 -0.98108,3.680259 -0.98517,5.291666 -0.005,1.886251 -0.29476,4.66298 -0.67824,6.494858 -0.26101,1.24686 -0.58955,0.802491 -0.78247,-1.058333 -0.28597,-2.758464 -0.71137,-2.992886 -0.53616,-0.295459 0.14688,2.261382 -0.0353,4.728467 -0.34896,4.7259 -0.20667,-0.0017 -1.35572,-4.140748 -1.54848,-5.577878 -0.13983,-1.042515 -0.17742,-1.079876 -0.93427,-0.928507 -0.43372,0.08674 -0.94751,0.157715 -1.14176,0.157715 -0.19425,0 -0.49224,0.464156 -0.66221,1.031457 -0.2601,0.868128 -0.24083,1.128827 0.12167,1.646371 0.3336,0.476273 0.4307,1.261759 0.4307,3.483854 0,1.577917 0.11649,3.08659 0.25886,3.352608 0.14236,0.266018 1.95807,1.532545 4.03489,2.814504 5.32673,3.288025 6.78465,4.899979 7.8142,8.639818 0.38268,1.390083 0.44367,2.654854 0.38314,7.945127 -0.0652,5.699495 -0.0214,6.45565 0.46534,8.031516 0.29553,0.956808 0.53732,2.188698 0.53732,2.737528 0,0.94345 0.0712,1.02853 1.30582,1.55963 0.71821,0.30897 1.55459,0.56175 1.85864,0.56175 0.34621,0 0.64679,0.2472 0.80429,0.66146 0.15054,0.39594 0.46027,0.66146 0.77159,0.66146 0.28606,0 0.59489,0.121 0.68629,0.2689 0.26543,0.42947 0.62208,0.0447 0.47608,-0.51356 -0.41013,-1.56834 7.83032,-5.091531 16.40871,-7.015507 6.28244,-1.409037 17.22157,-2.902042 24.57299,-3.353795 5.81143,-0.357119 6.03226,-0.312209 6.03226,1.226783 0,1.662386 -2.71325,5.974719 -5.80581,9.227509 -6.71375,7.06162 -18.40555,11.29006 -26.47336,9.57433 -1.9337,-0.41123 -6.93633,-2.48958 -10.30577,-4.28154 -2.10103,-1.11739 -2.32459,-1.17912 -3.70416,-1.0228 -2.13581,0.24201 -2.39423,0.35218 -2.39423,1.02076 0,1.04784 -1.72326,2.27725 -3.19202,2.27725 h -0.84555 l 0.17216,1.25677 c 0.4605,3.36164 0.47089,4.47168 0.0567,6.05747 -0.66212,2.53501 -0.57143,3.24133 0.62147,4.84018 0.67429,0.90375 1.14987,1.90199 1.33809,2.80862 0.16831,0.81075 0.61893,1.81793 1.06382,2.37775 0.80159,1.00868 1.03202,1.88996 0.96757,3.70059 -0.0268,0.75352 0.15393,1.33432 0.61753,1.98437 0.61411,0.86108 0.66039,1.16102 0.7338,4.7555 0.0431,2.11006 0.0802,4.4179 0.0824,5.12855 0.004,1.39802 -0.35334,2.2363 -2.54064,5.95411 -1.09599,1.8629 -1.30707,2.43627 -1.31491,3.57188 l -0.009,1.35275 11.31094,0.069 c 6.22101,0.0379 11.31093,0.0149 11.31093,-0.0512 0,-0.0661 -0.65427,-0.73893 -1.45393,-1.49522 -0.81966,-0.7752 -1.77191,-2.02255 -2.18282,-2.85925 -0.62187,-1.26629 -0.72887,-1.81434 -0.72887,-3.73314 v -2.24896 l 1.94088,-3.49844 c 2.08994,-3.76713 2.78674,-5.3855 3.07892,-7.15103 0.39346,-2.37757 1.46249,-0.53056 1.46249,2.52681 0,1.44579 -0.16447,1.92929 -1.65318,4.85975 -1.53612,3.0238 -1.65321,3.37897 -1.65364,5.01599 -3.6e-4,1.36136 0.11408,1.8885 0.50356,2.31944 0.90531,1.0017 2.14568,0.51844 3.01552,-1.17485 0.4969,-0.96731 1.34102,-4.69475 1.57772,-6.96679 0.21321,-2.04662 0.16337,-2.49407 -0.64832,-5.82083 -0.89676,-3.67542 -1.07241,-6.36439 -0.42958,-6.57633 0.86149,-0.28403 1.66917,3.08492 1.66917,6.96236 0,2.1125 0.16536,3.43308 0.69411,5.54323 0.38177,1.52354 0.77965,2.77007 0.88419,2.77007 0.20251,0 1.10607,-3.7778 1.74025,-7.27604 0.63233,-3.488 0.7675,-7.90133 0.31413,-10.25622 -0.21751,-1.12977 -0.29596,-2.11562 -0.17434,-2.19079 0.27917,-0.17254 0.66593,1.29418 1.0147,3.84805 0.14904,1.09141 0.56819,3.41312 0.93143,5.15937 0.69416,3.33706 1.17263,7.03781 1.28281,9.92188 0.0642,1.68121 0.0738,1.70198 0.42482,0.92604 0.58323,-1.28912 1.32225,-4.36286 1.51204,-6.28888 0.17897,-1.81629 0.44591,-2.39404 0.74546,-1.61344 0.0905,0.23595 0.24012,2.76857 0.3324,5.62804 0.18383,5.69687 -0.12076,9.32874 -0.99563,11.87161 -0.2806,0.81556 -0.41748,1.57551 -0.3042,1.6888 0.11329,0.11328 1.69219,0.24365 3.50867,0.28969 1.81649,0.0461 -22.53386,0.081 -54.11188,0.0777 -31.578021,-0.003 -52.397708,-0.0384 -46.265971,-0.0779 z m 20.308814,-3.10895 c -0.03091,-3.2138 0.355087,-17.41485 0.555549,-20.43906 l 0.127151,-1.91823 H 88.82827 c -1.809908,0 -2.008882,0.053 -2.236277,0.59531 -0.137282,0.32742 -1.033979,3.60661 -1.99266,7.28708 -1.572711,6.0378 -1.766993,7.07209 -1.987993,10.58334 -0.134716,2.14036 -0.356175,4.42734 -0.492132,5.08218 -0.380854,1.8344 -0.281595,1.87701 4.176507,1.7928 l 3.864518,-0.073 z m 36.360107,1.88336 c 0.0463,-0.56488 -0.043,-1.15424 -0.19844,-1.30969 -0.15545,-0.15545 -0.2847,-0.94343 -0.28723,-1.75107 -0.003,-0.80764 -0.1987,-2.30187 -0.43594,-3.32052 -0.29467,-1.26524 -0.44001,-3.19343 -0.4587,-6.08542 -0.015,-2.32833 -0.13963,-4.40816 -0.27685,-4.62185 -0.13722,-0.21368 -0.29445,-1.7615 -0.3494,-3.43958 -0.0818,-2.49906 -0.24649,-3.50582 -0.91009,-5.56461 -0.4456,-1.38244 -0.91626,-2.64833 -1.04591,-2.81308 -0.17129,-0.21768 -1.2283,-0.0488 -3.86722,0.61772 -8.11574,2.04994 -15.65925,3.31759 -22.681503,3.81151 -2.328334,0.16376 -4.286373,0.34681 -4.351198,0.40676 -0.06483,0.0599 0.02622,2.04034 0.202315,4.40086 0.415676,5.57196 0.399233,8.61135 -0.06763,12.50184 -0.66752,5.56256 -0.756096,7.15752 -0.431206,7.76458 l 0.302749,0.56569 17.386028,-0.068 17.38603,-0.068 z m 2.42934,0.76247 c 0,-0.21828 -0.14115,-0.39687 -0.31368,-0.39687 -0.17252,0 -0.58924,-0.25888 -0.92604,-0.57529 l -0.61236,-0.57529 v 0.81782 c 0,0.84984 0.25062,1.07031 1.25677,1.10562 0.36206,0.0127 0.59531,-0.13461 0.59531,-0.37599 z m 36.71056,-0.01 c 1.3743,-0.9626 2.369,-7.48787 2.02426,-13.2793 -0.18266,-3.06861 -0.44006,-3.61454 -0.72478,-1.53725 -0.0901,0.65755 -0.63274,2.4765 -1.2058,4.04212 -0.57307,1.56561 -1.20056,3.38235 -1.39444,4.0372 -0.21473,0.72527 -0.50762,1.19062 -0.74938,1.19062 -0.69363,0 -0.60747,-1.17943 0.17065,-2.33624 0.64568,-0.9599 0.74765,-1.37853 0.78433,-3.22001 0.0232,-1.16417 -0.0647,-3.18823 -0.19521,-4.49792 -0.22624,-2.26968 -1.17428,-7.51415 -1.39893,-7.73881 -0.16537,-0.16537 -0.36065,0.67621 -0.69062,2.97631 -0.16701,1.16417 -0.71859,4.02167 -1.22573,6.35 -0.71381,3.27714 -0.88596,4.56796 -0.76216,5.71479 0.0922,0.85437 0.0364,1.80632 -0.1319,2.24895 -0.26757,0.70377 -0.31478,0.72646 -0.56843,0.27324 -0.16784,-0.29991 -0.20559,-1.12203 -0.096,-2.09067 0.13783,-1.21829 0.0414,-2.18222 -0.4071,-4.06979 -0.32324,-1.36036 -0.66155,-2.47339 -0.75179,-2.47339 -0.0902,0 -0.30513,0.88658 -0.47753,1.97017 -0.74067,4.65513 -2.07218,7.55483 -3.46911,7.55483 -0.84109,0 -1.89728,-1.08649 -2.15007,-2.21177 -0.35967,-1.60103 -0.0635,-2.7055 1.67755,-6.2549 1.43889,-2.93346 1.62226,-3.48673 1.62226,-4.89479 0,-2.79383 -0.34164,-2.94105 -1.16561,-0.50227 -0.39833,1.17896 -1.44132,3.38162 -2.31777,4.89479 -1.77417,3.06311 -1.88212,3.30814 -2.20286,5.00019 -0.71444,3.76899 2.19941,8.28244 5.81853,9.01271 0.50932,0.10277 2.83431,0.20054 5.16665,0.21728 3.42198,0.0246 4.35264,-0.048 4.82099,-0.37609 z m -35.13237,-0.36984 c 0.15064,-0.28147 0.27575,-1.02562 0.27803,-1.65365 0.006,-1.54945 0.50977,-3.56614 1.6414,-6.56583 0.52154,-1.38244 1.03335,-2.75166 1.13737,-3.04271 0.12286,-0.34377 0.23326,-0.41072 0.3151,-0.1911 0.0693,0.18594 -0.32179,1.49372 -0.86908,2.90618 -2.33819,6.03454 -2.0648,6.47768 0.72387,1.17329 1.16169,-2.20967 1.26103,-3.23554 0.59634,-6.15796 -0.72649,-3.19417 -2.39186,-4.3677 -5.91565,-4.16859 -2.71571,0.15345 -2.77373,0.24577 -2.87925,4.58096 -0.0629,2.58558 0.0354,4.14582 0.36198,5.746 0.2466,1.20815 0.45704,2.76219 0.46765,3.45341 0.0194,1.26689 0.28816,1.64958 0.55738,0.79375 0.59229,-1.88287 0.66704,-3.4337 0.28109,-5.83217 -0.22226,-1.38118 -0.34678,-2.56856 -0.27671,-2.63862 0.0701,-0.0701 0.31111,-0.0569 0.53567,0.0293 0.33217,0.12747 0.40829,0.67526 0.40829,2.93819 0,1.52984 -0.1331,3.5874 -0.29578,4.57237 -0.21468,1.29989 -0.21648,1.99032 -0.007,2.51845 0.45506,1.1448 0.75306,0.86604 1.07977,-1.01006 0.16643,-0.95572 0.5851,-2.47377 0.93038,-3.37344 1.58414,-4.12763 2.54384,-6.32423 2.41116,-5.51874 -0.0797,0.48375 -0.63939,2.09109 -1.24381,3.57188 -1.77343,4.34482 -2.19239,6.66864 -1.40497,7.79284 0.50609,0.72255 0.8098,0.74241 1.16631,0.0763 z m -39.323333,-6.2351 c 0.226939,-2.18281 0.480343,-4.94499 0.563121,-6.13817 0.16103,-2.32114 -0.30257,-9.59863 -0.633564,-9.94555 -0.109525,-0.11479 -0.277596,2.74271 -0.373492,6.35 -0.194735,7.32525 -0.22947,13.98049 -0.07209,13.81271 0.05688,-0.0606 0.289089,-1.89618 0.516028,-4.07899 z m 72.774133,-0.0216 c 0.24837,-0.64725 0.19452,-0.73277 -0.23628,-0.37524 -0.43984,0.36504 -0.52658,0.79375 -0.1606,0.79375 0.12995,0 0.30855,-0.18833 0.39688,-0.41851 z m -29.44808,-12.1899 c -0.39721,-1.47515 -1.10895,-2.3024 -2.57303,-2.99059 -2.62553,-1.23415 -5.68504,-1.20851 -6.57007,0.055 -0.41904,0.59826 -0.56004,2.60091 -0.20812,2.95596 0.10914,0.11012 0.32613,-0.24946 0.4822,-0.79906 0.31457,-1.10774 0.87448,-1.60019 1.53236,-1.34773 0.9114,0.34973 0.34959,2.03478 -0.67842,2.03478 -0.26193,0 -0.47625,0.19134 -0.47625,0.42519 0,0.25163 0.14819,0.36831 0.36305,0.28586 1.00566,-0.3859 2.9064,-0.46475 4.30175,-0.17845 1.27152,0.2609 1.74469,0.51954 2.61125,1.42732 l 1.05833,1.10868 0.224,-0.94809 c 0.1388,-0.58749 0.1133,-1.35917 -0.067,-2.02892 z m 23.43008,-2.58405 c -0.1925,-2.50436 -0.65086,-4.15413 -1.20468,-4.33605 -0.45118,-0.14821 -0.29127,1.64443 0.41442,4.6457 0.61635,2.62137 1.00388,2.46953 0.79026,-0.30965 z m -30.72362,1.68712 c 0.21114,-0.34162 -0.37637,-1.09507 -0.6986,-0.89592 -0.12903,0.0798 -0.2346,0.37609 -0.2346,0.65854 0,0.54227 0.64359,0.70598 0.9332,0.23738 z m 5.94596,-3.78848 c 0,-1.17392 -0.1352,-1.58897 -0.78329,-2.40447 -0.4308,-0.54211 -0.84044,-1.18356 -0.91029,-1.42545 -0.0699,-0.24189 -0.25342,-0.92979 -0.40794,-1.52866 -0.15452,-0.59887 -0.63806,-1.53823 -1.07453,-2.08747 -1.25301,-1.5767 -1.50367,-2.77117 -0.95009,-4.52734 0.54458,-1.7276 0.60657,-4.15558 0.16092,-6.30228 l -0.31991,-1.54097 -1.57148,0.1425 c -0.86432,0.0784 -1.74008,0.28242 -1.94615,0.45343 -0.37779,0.31355 -0.99521,2.21383 -1.30815,4.02627 -0.0959,0.55534 0.024,2.04883 0.27607,3.43958 0.33279,1.83601 0.43481,3.78046 0.40312,7.68358 -0.0233,2.87404 0.06,5.22552 0.18526,5.22552 0.12521,0 0.61781,-0.19463 1.09466,-0.43252 1.02891,-0.51328 3.86512,-0.37497 5.32073,0.25947 1.63978,0.71472 1.83107,0.61221 1.83107,-0.98119 z M 90.188297,130.4776 c 0.0818,-0.0818 0.2157,-0.6481 0.297566,-1.25845 l 0.148846,-1.10973 -0.893007,0.19614 c -2.529499,0.55557 -3.019142,0.79298 -3.102614,1.50436 -0.05729,0.48827 0.0608,0.73607 0.396875,0.83277 0.579407,0.16671 2.944382,0.0429 3.152334,-0.16509 z m 3.032039,-0.20173 c 0.290396,-0.15542 0.511772,-0.55197 0.511772,-0.91674 0,-1.3333 -2.301774,-1.63633 -2.747297,-0.36168 -0.358222,1.02488 -0.05097,1.55231 0.904304,1.55231 0.450696,0 1.049746,-0.12325 1.331221,-0.27389 z m 9.201774,-0.40019 c 6.1983,-0.85649 19.42301,-3.83049 20.21573,-4.54616 0.3661,-0.33052 0.46302,-0.8525 0.46302,-2.49368 0,-1.86981 -0.22783,-2.51272 -0.64896,-1.83131 -0.28687,0.46417 -2.70478,1.09031 -6.17993,1.60035 -3.80127,0.55791 -6.89304,1.51048 -10.82328,3.33462 -3.62054,1.68041 -5.633161,2.23688 -8.740019,2.41652 l -2.711979,0.1568 v 1.05744 1.05744 l 2.803018,-0.18122 c 1.54166,-0.0997 4.07174,-0.35653 5.6224,-0.5708 z m 22.00166,-3.47143 c 0,-1.40691 -0.14719,-3.34168 -0.32709,-4.29948 l -0.32709,-1.74147 -0.17185,2.38125 c -0.0945,1.30969 -0.25805,2.64604 -0.36342,2.96966 -0.20101,0.61741 0.59038,3.24805 0.97714,3.24805 0.11677,0 0.21231,-1.15111 0.21231,-2.55801 z m -36.512495,1.89655 c 1.013754,-0.2721 2.835818,-0.39155 6.006248,-0.39373 2.503071,-0.002 5.181978,-0.13773 5.953125,-0.30222 0.771142,-0.1645 2.890362,-0.94881 4.709372,-1.74291 6.10272,-2.6642 7.02883,-2.94549 12.39638,-3.76506 3.85321,-0.58835 5.81872,-1.38128 6.35804,-2.56496 0.16257,-0.3568 0.29558,-1.75803 0.29558,-3.11385 v -2.46513 l -1.25677,-0.17406 c -0.69122,-0.0957 -2.30979,-0.24961 -3.59682,-0.34194 -2.68878,-0.1929 -2.80887,-0.11721 -2.81527,1.77426 -0.008,2.23417 -0.75493,2.75907 -5.42801,3.81231 -1.74625,0.39358 -4.48469,1.11939 -6.08542,1.61291 -3.79058,1.16867 -4.49554,1.31409 -9.524997,1.96482 -2.328333,0.30125 -5.185833,0.75876 -6.35,1.01668 -2.092305,0.46356 -2.123393,0.48255 -2.701092,1.64988 -0.809823,1.63637 -1.037102,2.8975 -0.574935,3.19021 0.5048,0.31972 0.933829,0.29392 2.614569,-0.15721 z m 0.557013,-5.00167 c 2.389182,-0.49233 5.711794,-1.03887 7.383582,-1.21453 3.008544,-0.31612 7.0845,-1.22679 8.9161,-1.99208 0.86968,-0.36338 0.9146,-0.43382 0.54613,-0.85633 -0.22082,-0.25322 -0.5478,-0.74276 -0.72661,-1.08789 -0.54939,-1.06035 -2.38004,-8.04358 -2.38451,-9.09594 -0.005,-1.10118 -0.19285,-1.18186 -1.35493,-0.58093 -0.43741,0.2262 -1.860719,0.53724 -3.162913,0.69121 -2.728616,0.32262 -3.300496,0.11719 -4.045771,-1.45336 -0.579736,-1.22171 -0.550641,-2.35672 0.09274,-3.61785 0.291042,-0.57049 0.529167,-1.29763 0.529167,-1.61586 0,-0.63457 -1.021151,-1.97245 -3.808998,-4.990437 -2.085748,-2.257927 -2.803185,-3.326045 -2.804596,-4.175477 -0.0015,-0.884398 0.487028,-0.727687 1.649508,0.529167 2.867369,3.100148 5.228669,6.493467 5.228669,7.513887 0,0.6007 0.509055,0.39743 0.676614,-0.27018 0.101472,-0.4043 -0.166491,-1.416437 -0.753015,-2.84427 -0.5008,-1.219144 -1.060452,-2.692875 -1.243671,-3.274958 -0.183219,-0.582084 -0.860912,-2.349881 -1.505983,-3.928439 -1.172711,-2.869746 -1.374255,-4.273645 -0.613528,-4.273645 0.589367,0 1.568141,2.243328 2.539655,5.820834 0.474216,1.74625 0.870697,3.089797 0.881069,2.985659 0.01037,-0.104137 0.203778,-1.515151 0.429789,-3.135585 0.335876,-2.408126 0.354941,-3.315613 0.104382,-4.968561 -0.512583,-3.381528 -1.060243,-4.471611 -3.362481,-6.692812 -3.203633,-3.090866 -3.43731,-3.214292 -6.222597,-3.286714 l -2.383495,-0.06198 -1.073544,1.031557 c -0.590448,0.567356 -1.284939,1.031557 -1.543311,1.031557 -0.535567,0 -1.129908,0.834817 -1.390234,1.952737 -0.135642,0.582492 -0.04016,0.908276 0.405138,1.38227 0.531964,0.56625 0.568423,0.798993 0.419421,2.677471 -0.08975,1.131523 -0.469223,3.069345 -0.843266,4.306272 -0.374043,1.236927 -0.75021,3.142318 -0.835927,4.234201 -0.137357,1.749704 -0.05772,2.291583 0.671235,4.567227 1.098751,3.430075 1.088127,4.998575 -0.06049,8.930235 -0.488165,1.67097 -0.96404,3.9744 -1.057501,5.11872 l -0.169929,2.0806 2.07025,-2.14674 c 1.937587,-2.00918 2.955168,-2.62532 2.955168,-1.78934 0,0.47428 -4.094694,6.23711 -4.932078,6.94135 -0.579779,0.4876 -0.670841,0.81313 -0.781802,2.79483 -0.144232,2.5759 0.04031,2.89508 2.054385,3.55315 1.585407,0.51801 4.230651,0.2985 9.508175,-0.78903 z m 22.810662,-4.80568 c 3.237,-0.81619 3.77467,-1.13184 4.13439,-2.42713 0.40882,-1.47212 0.36024,-1.6148 -0.58071,-1.70553 -1.41976,-0.13689 -1.76521,-1.22002 -1.86876,-5.85936 -0.0478,-2.14047 -0.19894,-4.00385 -0.33592,-4.14083 -0.65514,-0.65513 -7.82305,1.77748 -9.01662,3.06002 -0.46305,0.49757 -0.54531,0.83072 -0.43247,1.75148 0.18681,1.52431 2.31973,8.06241 2.98195,9.14068 0.6685,1.0885 1.41342,1.1148 5.11814,0.18067 z m -4.00018,-9.69244 c -0.48607,-0.48607 -0.37778,-1.4837 0.19428,-1.78986 0.66187,-0.35422 0.69723,-0.35 1.18912,0.14188 0.54463,0.54464 0.52461,0.79831 -0.1134,1.43631 -0.6127,0.61271 -0.83235,0.64932 -1.27,0.21167 z m 1.22038,-0.81082 c 0.1053,-0.54678 -0.6585,-0.91522 -1.06163,-0.5121 -0.40312,0.40312 -0.0347,1.16692 0.5121,1.06162 0.25343,-0.0488 0.50072,-0.29609 0.54953,-0.54952 z m -2.79111,10.32898 c -0.14868,-0.18541 -0.5421,-1.11102 -0.87427,-2.05691 -0.59283,-1.68813 -1.0475,-2.52522 -1.0475,-1.92857 0,0.69476 1.05589,3.60399 1.4769,4.0692 0.49616,0.54825 0.89188,0.47379 0.44487,-0.0837 z m -25.909964,-3.90899 c 2.319712,-3.2102 2.549904,-3.84957 0.847957,-2.35524 -2.094104,1.83864 -4.338637,5.53024 -3.362453,5.53024 0.121121,0 1.252645,-1.42875 2.514496,-3.175 z m 79.590394,-0.53931 c 1.14176,-0.29151 2.93937,-0.84034 3.99468,-1.2196 2.5775,-0.92632 7.07812,-3.19935 7.07812,-3.57479 0,-0.69304 -8.57698,0.45922 -14.1552,1.90166 -3.47795,0.89934 -6.20187,1.74651 -6.74688,2.09835 -0.34974,0.22579 -0.34564,0.30746 0.0345,0.6877 1.00045,1.00074 6.07658,1.05603 9.79478,0.10668 z m -34.9647,0.27472 c 0,-0.14552 -0.0525,-0.26458 -0.11667,-0.26458 -0.0642,0 -0.19026,0.11906 -0.2802,0.26458 -0.0899,0.14552 -0.0374,0.26459 0.11668,0.26459 0.15411,0 0.28019,-0.11907 0.28019,-0.26459 z m 26.63871,-2.11193 c 3.85199,-1.44121 14.26281,-3.45094 18.3914,-3.55031 l 2.32688,-0.056 1.75131,-1.44036 c 3.12417,-2.56945 6.89,-7.378914 7.9048,-10.095483 0.73317,-1.962624 0.60435,-2.060855 -2.69906,-2.058234 -1.56892,0.0012 -4.2218,0.121228 -5.89529,0.266629 -3.65664,0.317707 -15.17849,1.94004 -19.04635,2.681819 -2.96364,0.568368 -9.86675,2.494189 -12.20994,3.406309 -2.75764,1.07346 -6.04996,2.96364 -6.04996,3.47339 0,0.19697 1.63149,2.87247 2.51905,4.13103 0.50593,0.71741 3.11993,2.07891 7.27054,3.78687 l 3.04271,1.25205 0.58471,-0.61366 c 0.3216,-0.33752 1.27074,-0.87034 2.1092,-1.18405 z m -25.84496,0.92772 c 0.50933,-0.18996 1.96961,-0.43216 3.24508,-0.53824 1.27547,-0.10608 2.37364,-0.28122 2.44037,-0.38921 0.10396,-0.1682 -2.69204,-2.03532 -5.22625,-3.49001 -0.99813,-0.57294 -1.16253,-0.74833 -0.70146,-0.74833 0.2063,0 1.33088,0.62508 2.49907,1.38907 2.86239,1.87198 4.27595,2.49616 4.84355,2.13875 1.08425,-0.68276 0.717,-1.18041 -3.39619,-4.602 -1.98603,-1.6521 -2.80999,-2.61596 -1.5057,-1.76136 0.69152,0.45311 2.17893,0.58583 3.27401,0.29214 0.49337,-0.13232 0.53765,-0.24277 0.30341,-0.75688 -0.49747,-1.09182 -2.2896,-1.74711 -4.62836,-1.69236 -1.14046,0.0267 -3.0856,-0.0435 -4.32253,-0.15591 -2.79534,-0.25414 -3.75161,-0.0111 -6.49753,1.65117 l -2.10142,1.27214 -0.088,1.31106 c -0.0484,0.72108 -0.006,2.42908 0.0936,3.79555 l 0.1816,2.48449 2.02305,-0.13751 c 1.11268,-0.0756 3.21367,0.008 4.66888,0.18622 2.78718,0.34103 3.39632,0.31007 4.89479,-0.24878 z M 98.062645,108.7324 c 1.132024,-0.11301 2.532595,-0.60966 5.172055,-1.83401 1.99081,-0.92347 3.87574,-1.76031 4.18874,-1.85966 0.31301,-0.0993 0.63867,-0.39982 0.7237,-0.66773 0.24875,-0.78374 -0.37747,-10.843807 -0.78442,-12.60158 -0.54847,-2.369002 -1.25577,-4.009615 -3.58443,-8.314226 -2.72715,-5.041219 -2.97072,-5.629316 -2.56052,-6.18241 0.22874,-0.308419 1.71048,-0.663925 5.21434,-1.251054 2.81986,-0.472514 5.3995,-1.055269 6.08541,-1.37473 l 1.19063,-0.554527 -1.5875,-0.158347 c -2.19229,-0.218673 -5.58837,-1.976664 -7.3806,-3.820591 -1.70304,-1.752161 -3.51495,-3.126664 -3.25401,-2.468462 0.10096,0.254661 0.26333,0.661146 0.36082,0.903299 0.12523,0.311037 0.0799,0.380137 -0.15424,0.2354 -0.50886,-0.314488 -2.022574,-2.803337 -2.39055,-3.930526 -0.651397,-1.995367 -1.192413,-0.633683 -0.70867,1.783649 0.177409,0.886535 0.152174,0.995524 -0.168815,0.729127 -0.207572,-0.17227 -0.594701,-0.795096 -0.860286,-1.38406 -0.31228,-0.692511 -0.611332,-1.021551 -0.846449,-0.931328 -0.449143,0.172352 -9.813439,6.590537 -12.470895,8.547412 -2.394055,1.762915 -4.276586,3.708096 -5.1524,5.323872 -0.774513,1.428889 -1.183758,3.209092 -0.737726,3.209092 0.161716,0 0.294029,-0.241949 0.294029,-0.537665 0,-1.026818 0.737751,-2.372751 1.300584,-2.372751 0.29361,0 1.122975,-0.523239 1.843034,-1.162753 l 1.309197,-1.162753 2.337655,0.139648 c 1.285711,0.07681 2.67837,0.312321 3.094798,0.523364 0.932058,0.472362 4.90243,4.136823 5.500694,5.076873 0.240351,0.377664 0.702284,1.758225 1.026516,3.067912 0.510136,2.060617 0.560938,2.719696 0.377291,4.894792 -0.283621,3.359193 -0.287578,6.858081 -0.01038,9.180097 0.221683,1.856996 0.206843,1.935936 -0.600454,3.193996 -1.215499,1.8942 -1.468227,2.77502 -1.108745,3.86426 0.433829,1.31451 1.449247,2.32351 2.187416,2.17358 0.330975,-0.0672 1.300357,-0.19197 2.154184,-0.27721 z m 36.153775,-0.0144 c 0.40377,-0.48652 0.15713,-2.7655 -0.33583,-3.10317 -0.36649,-0.25103 -4.45198,-0.001 -4.75517,0.29089 -0.10624,0.10231 0.60219,0.86705 1.57428,1.69943 1.84219,1.57743 2.86305,1.90047 3.51672,1.11285 z m 3.013,-0.0855 c 0.29978,-0.48506 -0.6412,-1.33046 -1.45514,-1.30732 -0.84657,0.0241 -1.19808,0.44913 -0.93608,1.13191 0.16467,0.4291 2.14466,0.57434 2.39122,0.17541 z m -1.16398,-1.8628 c 0,-0.12771 -0.16799,-0.37161 -0.37332,-0.54202 -0.41462,-0.3441 -0.8387,0.0469 -0.55272,0.50962 0.20149,0.32603 0.92604,0.35137 0.92604,0.0324 z m -18.95534,-3.80959 c 1.87572,-0.91157 3.63565,-1.12982 5.9166,-0.73369 3.04026,0.52799 4.20913,0.37376 4.44418,-0.58638 0.0796,-0.3252 0.17073,-4.460813 0.20247,-9.19024 0.0659,-9.816874 -0.0282,-10.441155 -1.96831,-13.059845 -0.895,-1.208027 -1.89211,-2.008708 -5.19663,-4.17291 -2.24902,-1.47293 -4.3007,-2.733383 -4.55929,-2.801005 -0.30702,-0.08029 -0.52931,0.0634 -0.64062,0.41411 -0.28367,0.89376 -1.91648,2.119151 -3.38747,2.542229 -0.76333,0.219546 -3.29288,0.704265 -5.62121,1.077153 -2.61217,0.418344 -4.38532,0.829373 -4.63021,1.073314 -0.35266,0.351289 -0.30667,0.563702 0.41275,1.906458 5.94772,11.101035 6.01009,11.297243 6.34798,19.970185 0.10072,2.585401 0.2801,4.760661 0.39863,4.833921 0.11852,0.0733 1.07757,-0.009 2.13122,-0.18319 1.8516,-0.30579 1.92862,-0.29696 2.30095,0.26379 l 0.38522,0.58017 1.22152,-0.71901 c 0.67183,-0.39546 1.68083,-0.94223 2.24222,-1.21506 z m -6.43257,-6.130122 c -0.75255,-0.906759 0.28536,-2.439637 1.24468,-1.838272 0.94413,0.591837 0.60451,2.220584 -0.46302,2.220584 -0.2554,0 -0.60715,-0.17204 -0.78166,-0.382312 z m 1.39664,-0.518012 c 0.0783,-0.204137 -0.0207,-0.59109 -0.22011,-0.859896 -0.33898,-0.456992 -0.39171,-0.459995 -0.81175,-0.04623 -0.24708,0.243378 -0.37715,0.630331 -0.28906,0.859896 0.1985,0.517275 1.12768,0.549798 1.32092,0.04623 z m 11.44299,0.220492 c -0.62045,-0.620444 -0.0792,-1.494849 0.85826,-1.386546 0.51692,0.05972 0.73408,0.253628 0.79911,0.71354 0.1433,1.0135 -0.89518,1.435195 -1.65737,0.673006 z m 1.43578,-0.647174 c 0,-0.330647 -0.68017,-0.49421 -1.06531,-0.25618 -0.29494,0.182282 -0.29615,0.2919 -0.007,0.640242 0.26606,0.320584 0.43465,0.349069 0.71059,0.12006 0.19897,-0.165134 0.36177,-0.391988 0.36177,-0.504122 z m -4.88911,-14.976983 c -0.51569,-0.515698 -0.4383,-1.128261 0.19276,-1.525674 0.53953,-0.339771 1.3391,0.0382 1.46842,0.694137 0.0811,0.411285 -0.59627,1.260526 -1.0054,1.260526 -0.12473,0 -0.41983,-0.193045 -0.65578,-0.428989 z m 1.09609,-0.514837 c 0.22052,-0.574665 -0.33931,-1.11509 -0.74003,-0.714375 -0.33867,0.338676 -0.12886,1.129035 0.29972,1.129035 0.15465,0 0.35279,-0.186597 0.44031,-0.41466 z m -15.96205,-0.265042 c -0.24705,-0.643817 0.25871,-1.304673 0.99849,-1.304673 0.52653,0 0.63262,0.13312 0.63262,0.79375 0,0.669628 -0.11401,0.806864 -0.72911,0.877615 -0.49645,0.0571 -0.78427,-0.0599 -0.902,-0.366692 z m 1.348,-0.673194 c -0.22545,-0.364792 -0.90751,-0.275976 -0.90751,0.118173 0,0.194028 0.0783,0.43112 0.17409,0.526871 0.23927,0.239272 0.91348,-0.353698 0.73342,-0.645044 z m 22.05532,21.319622 c -0.1881,-2.268234 -0.73783,-2.497854 -0.73783,-0.30818 0,1.45943 0.0759,1.7727 0.42964,1.7727 0.35934,0 0.40976,-0.23961 0.30819,-1.46452 z M 92.131034,97.814586 c -1.781095,-2.375211 -3.524343,-4.299482 -3.898339,-4.303154 -0.268664,-0.0026 -0.274594,0.121618 -0.02825,0.591974 0.426709,0.814738 4.770073,5.542139 4.937808,5.374405 0.07417,-0.07417 -0.380877,-0.822623 -1.011218,-1.663225 z m 0.846064,-6.202712 c -0.63634,-2.309485 -1.246544,-3.822241 -1.639834,-4.065307 -0.643106,-0.397461 -0.563745,0.258661 0.281388,2.326414 0.490035,1.198947 1.053944,2.579726 1.253131,3.068398 0.609372,1.494991 0.670597,0.722086 0.105315,-1.329505 z M 78.885301,89.010177 c 0.813232,-3.098861 0.797119,-6.296979 -0.03033,-6.021161 -0.520045,0.173348 -0.678905,1.196472 -0.706901,4.552723 -0.02685,3.219204 0.173209,3.617689 0.737236,1.468438 z M 113.24392,72.60601 c 0.18285,-2.607448 0.68651,-6.195306 1.14867,-8.182707 0.28516,-1.226271 0.42641,-2.30745 0.31389,-2.40262 -0.11252,-0.09517 -0.95848,-0.374994 -1.87992,-0.62183 -3.16801,-0.848652 -6.24895,-2.734856 -7.55824,-4.627283 -1.08153,-1.563228 -0.69535,-1.645036 0.4814,-0.101979 2.00809,2.633188 6.60255,4.812849 10.16159,4.820779 1.197,0.0027 1.52238,-0.109816 2.1589,-0.746341 0.96786,-0.967855 2.59463,-5.987611 3.71867,-11.47475 0.68165,-3.327561 0.78929,-4.328043 0.63861,-5.935946 -0.0997,-1.063616 -0.325,-2.053182 -0.50075,-2.199038 -0.77662,-0.64454 -3.72461,-1.138681 -5.83734,-0.978454 -2.91839,0.221327 -4.84456,0.776479 -7.9375,2.287706 -2.91713,1.425327 -4.52302,2.731298 -4.76987,3.879054 -0.29585,1.375566 -0.64684,1.962229 -1.44608,2.417019 -0.99645,0.567008 -0.99677,0.863909 -0.002,1.599554 0.8789,0.649799 1.10136,1.960062 0.39947,2.352858 -0.33568,0.187855 -0.36517,0.799327 -0.19843,4.114194 0.18139,3.606356 0.16168,3.893545 -0.26718,3.89354 -0.84452,-10e-6 -0.4821,0.732491 1.23995,2.506166 2.1323,2.19621 3.52333,4.276568 4.3116,6.448216 0.33665,0.927478 0.73791,1.921403 0.89168,2.208722 0.40301,0.753041 2.8291,1.823595 3.94166,1.739324 0.85419,-0.0647 0.93108,-0.141991 0.99098,-0.996184 z m 1.67693,-0.99293 c 0.41303,-1.251483 0.47076,-6.027365 0.0776,-6.421098 -0.36087,-0.361408 -0.48264,0.06858 -0.86329,3.048403 -0.47847,3.745582 -0.54304,4.558293 -0.37546,4.725875 0.28185,0.281854 0.83381,-0.361399 1.16113,-1.35318 z m -7.96561,-2.005168 c -0.73086,-1.953409 -2.25713,-4.199645 -4.05082,-5.961662 -1.64214,-1.613144 -1.70225,-1.575102 -1.80132,1.14002 -0.0533,1.461695 -0.003,1.611429 0.70616,2.116666 0.41994,0.299035 1.83936,1.551858 3.15425,2.784051 2.61815,2.453486 2.93458,2.440923 1.99173,-0.07908 z M 100.9105,58.910026 c -0.53222,-2.006843 -0.24412,-3.212362 0.47333,-1.980578 0.42072,0.72232 0.35941,-2.515505 -0.075,-3.958785 -0.1984,-0.659239 -0.71616,-1.719958 -1.15058,-2.357155 -0.434409,-0.637197 -0.874595,-1.505618 -0.978186,-1.929826 l -0.188348,-0.771287 -0.467398,0.771287 c -0.257069,0.424208 -0.682865,1.337105 -0.946213,2.02866 -0.484612,1.272597 -0.4826,1.758494 0.02475,5.977211 0.09351,0.777563 0.0187,2.640298 -0.166251,4.139412 -0.319538,2.59002 -0.239292,4.104129 0.217515,4.104129 0.114298,0 0.234137,-0.506016 0.266309,-1.12448 0.03217,-0.618463 0.314408,-1.999433 0.62719,-3.068821 0.557167,-1.904931 0.559644,-1.991553 0.122199,-4.273507 -0.325356,-1.697231 -0.373943,-2.519994 -0.179082,-3.032516 0.147077,-0.386844 0.372771,-0.638238 0.501541,-0.558653 0.462401,0.285779 0.850316,4.180381 0.565806,5.680597 -0.466225,2.458392 -0.333199,5.294499 0.311537,6.641963 l 0.569689,1.190625 0.38518,-3.175 c 0.29819,-2.458017 0.31761,-3.429789 0.086,-4.303276 z m 18.40031,5.146806 c -0.15862,-1.876404 0.14827,-3.886238 0.5934,-3.886238 0.11993,0 0.29638,0.590419 0.39211,1.312042 0.0957,0.721623 0.27612,1.375128 0.40088,1.452232 0.36567,0.225997 0.54381,-0.879381 0.55209,-3.425733 0.008,-2.466865 0.22839,-3.640678 1.44045,-7.672916 0.55904,-1.859799 0.71638,-2.931671 0.7185,-4.894792 0.001,-1.382448 -0.11903,-2.811198 -0.26785,-3.175 -0.23564,-0.576056 -0.27274,-0.482338 -0.28734,0.725875 -0.0397,3.284255 -2.47303,13.073303 -3.90957,15.727815 -0.56462,1.043336 -0.65084,1.484226 -0.54331,2.778125 0.12804,1.540524 0.56313,2.993185 0.8965,2.993185 0.0977,0 0.10408,-0.870568 0.0141,-1.934595 z M 98.75514,62.750281 c -0.0032,-0.464795 -0.05734,-0.51107 -0.247125,-0.21107 -0.133691,0.211333 -0.184372,0.479224 -0.112626,0.595312 0.229491,0.371325 0.363916,0.227748 0.359751,-0.384242 z m 0.400927,-7.606771 c -0.101656,-0.601695 -0.24436,-1.034459 -0.317121,-0.961699 -0.07276,0.07276 -0.04912,0.624588 0.05254,1.226283 0.101656,0.601695 0.24436,1.034459 0.31712,0.961699 0.07276,-0.07276 0.04912,-0.624588 -0.05254,-1.226283 z m 3.217693,-3.323148 c 0.10196,-0.265684 -0.1838,-0.72616 -0.80205,-1.292456 -1.13231,-1.037156 -1.17877,-1.314555 -0.31494,-1.880556 0.76059,-0.498361 0.63195,-1.11168 -0.28124,-1.340877 -0.78374,-0.196706 -1.422588,0.293869 -1.422588,1.092409 0,0.650568 2.002288,3.834212 2.411448,3.834212 0.13804,0 0.32226,-0.18573 0.40937,-0.412732 z m 0.43226,-4.812789 c 0.17906,-0.932075 0.0769,-1.015437 -0.77109,-0.629079 -0.67204,0.306204 -0.67954,0.334128 -0.22469,0.836729 0.6311,0.697366 0.8299,0.655912 0.99578,-0.20765 z m 1.68593,-2.87018 c 3.07891,-2.510445 8.29647,-4.341846 12.35465,-4.336576 1.32979,0.0017 3.04288,0.169545 3.80686,0.372927 1.6352,0.435312 1.58088,0.576138 1.01255,-2.625025 -0.62271,-3.507451 -0.61064,-3.497908 -3.68286,-2.910095 -5.64764,1.080573 -11.02482,2.793009 -15.44449,4.918516 -3.983637,1.915806 -4.289174,2.317039 -3.797286,4.98661 0.174775,0.948541 0.436489,1.867663 0.581585,2.042493 0.387871,0.467356 3.262981,-0.894752 5.168991,-2.44885 z m 2.99849,-7.113994 c 3.62307,-1.261386 10.90888,-3.038975 12.47326,-3.043221 0.87668,-0.0024 1.27469,-0.123819 1.38992,-0.424086 0.25864,-0.674015 -0.0825,-0.930339 -1.00724,-0.756853 -0.72718,0.13642 -0.9307,0.05537 -1.30838,-0.521048 -0.57745,-0.881295 -0.76217,-0.861907 -1.95565,0.205261 -1.03504,0.925495 -1.9559,1.493392 -2.42156,1.493392 -0.15002,0 -0.67958,-0.357188 -1.1768,-0.79375 -0.49722,-0.436563 -1.18597,-0.793675 -1.53056,-0.793584 -0.34459,9.2e-5 -1.31412,0.539953 -2.15451,1.199692 -1.96974,1.546328 -2.6644,1.808774 -3.79764,1.434768 -1.20722,-0.398416 -1.70899,-0.179758 -2.73749,1.192917 -0.976,1.302605 -1.82616,1.71951 -3.11938,1.529704 -1.464081,-0.21488 -2.025679,0.763423 -1.393206,2.426953 l 0.256597,0.674899 2.852259,-1.428915 c 1.56874,-0.785903 4.10241,-1.864161 5.63038,-2.396129 z m -9.268351,2.606798 c -0.120344,-0.533587 -0.110861,-1.239852 0.02131,-1.5875 0.213698,-0.562067 0.399962,-0.62627 1.816907,-0.62627 h 1.5788 l 1.27202,-1.477266 1.27202,-1.477267 1.5875,0.160977 c 1.71187,0.173589 1.4907,0.262668 4.39599,-1.770506 0.77978,-0.545703 1.65749,-0.987349 1.95048,-0.981435 0.29298,0.0059 0.94492,0.363102 1.44874,0.79375 0.50383,0.430648 1.07288,0.782997 1.26456,0.782997 0.19168,0 0.95101,-0.47625 1.6874,-1.058333 1.48168,-1.1712 2.31837,-1.328345 2.81747,-0.529167 0.23064,0.369315 0.61701,0.529167 1.27904,0.529167 0.72605,0 0.98103,0.124132 1.08695,0.529166 0.0761,0.291042 0.2343,0.529167 0.35153,0.529167 0.51616,0 2.55322,-1.837964 3.0927,-2.79043 0.7283,-1.285821 0.75239,-1.991163 0.0957,-2.802654 -0.46031,-0.568855 -0.77331,-0.639152 -3.50573,-0.787342 -2.29486,-0.12446 -3.30335,-0.301796 -4.28927,-0.754235 -1.54531,-0.709144 -1.75256,-0.677753 -5.98955,0.907191 -3.39582,1.270288 -4.23548,1.384121 -6.60281,0.895156 -2.20129,-0.454669 -3.06932,0.04982 -5.123153,2.977506 -1.197285,1.706701 -2.0065,2.560848 -3.032807,3.201204 -2.52602,1.57609 -2.965822,2.022355 -2.965822,3.009408 0,1.272786 1.10947,2.417507 2.778125,2.866393 1.985386,0.534089 1.956111,0.543319 1.711856,-0.539677 z m 53.772021,56.19152 c -0.72363,-0.871916 -0.67083,-2.84279 0.0761,-2.84279 0.19731,0 0.72507,0.30824 1.1728,0.684978 0.84468,0.710756 1.05186,1.617208 0.49655,2.172522 -0.41492,0.414914 -1.39581,0.406648 -1.7455,-0.01471 z m 1.62891,-0.515795 c 0.22394,-0.35561 0.15015,-0.593701 -0.34849,-1.124479 -0.8122,-0.864546 -1.33409,-0.862394 -1.33409,0.0055 0,1.507178 1.01362,2.181273 1.68258,1.118976 z m 5.48623,-1.635339 c -0.24064,-0.289961 -0.0578,-0.655433 0.87376,-1.74682 0.64793,-0.759079 1.28059,-1.813658 1.4059,-2.343509 0.23985,-1.014219 1.01888,-1.450436 1.42288,-0.796746 0.44107,0.71367 -0.50388,2.991657 -1.82977,4.411035 -0.85256,0.91266 -1.3958,1.050748 -1.87277,0.47604 z m 1.83271,-1.135435 c 0.87229,-0.993473 1.58181,-2.392785 1.58181,-3.119598 0,-0.777135 -0.46039,-0.39721 -0.89376,0.737549 -0.24006,0.628608 -0.85155,1.596073 -1.35886,2.149923 -1.03746,1.132647 -1.07069,1.205071 -0.55291,1.205071 0.20321,0 0.75388,-0.437825 1.22372,-0.972945 z m 11.6889,0.126279 c -0.49367,-0.493667 -0.38436,-0.910859 0.50366,-1.922252 1.28841,-1.467418 2.3022,-1.165635 1.74673,0.51996 -0.50271,1.525472 -1.50355,2.149132 -2.25039,1.402292 z m 1.4657,-0.542396 c 0.14328,-0.181901 0.33872,-0.658151 0.43431,-1.058333 0.12865,-0.538514 0.0744,-0.727605 -0.20889,-0.727605 -0.44545,0 -1.47946,1.226919 -1.47946,1.755473 0,0.452512 0.90431,0.47448 1.25404,0.03047 z m -19.3339,-0.110243 c -0.45347,-0.453478 -0.0899,-1.435345 0.8969,-2.422146 2.47117,-2.471166 5.49721,-2.351406 3.95714,0.15661 -0.97471,1.587321 -4.08198,3.037588 -4.85404,2.265536 z m 2.04273,-0.455549 c 1.16505,-0.486788 2.80797,-2.154936 2.80797,-2.851084 0,-1.252605 -2.90256,0.05969 -4.3143,1.950569 -0.87115,1.166803 -0.15526,1.594772 1.50633,0.900515 z m 9.19507,0.01518 c -0.85695,-1.032561 1.46984,-2.644393 3.61747,-2.505918 1.1197,0.0722 1.24809,0.147898 1.32118,0.779003 0.062,0.535604 -0.11949,0.841777 -0.77644,1.309567 -1.09553,0.780083 -3.6487,1.036092 -4.16221,0.417348 z m 3.41256,-0.507722 c 1.31226,-0.661735 1.63583,-1.588807 0.60573,-1.735509 -1.48529,-0.211526 -4.02002,1.087301 -3.70812,1.90009 0.23896,0.622732 1.6942,0.545532 3.10239,-0.164581 z m -15.37316,-4.231257 c -0.40591,-1.507428 -0.20039,-3.472073 0.54134,-5.17483 0.49111,-1.127403 0.72015,-1.38682 1.16789,-1.322788 0.65511,0.09369 0.64265,0.337423 -0.12582,2.460646 -0.50653,1.3995 -0.53983,1.75728 -0.28123,3.021159 0.21416,1.046691 0.21442,1.528745 9.7e-4,1.785937 -0.5323,0.641391 -0.99702,0.366757 -1.30315,-0.770124 z m 0.89481,-1.324993 c -0.11407,-1.563251 -0.0358,-2.179706 0.42284,-3.331194 0.33517,-0.841487 0.43908,-1.371723 0.25689,-1.310995 -0.87873,0.29291 -1.67578,4.12156 -1.21427,5.832814 0.37497,1.390369 0.67423,0.723798 0.53454,-1.190625 z m 8.78291,1.129629 c -0.0981,-0.158803 0.18079,-0.850004 0.61986,-1.536004 1.05991,-1.65599 1.39009,-2.546444 1.59074,-4.289979 0.1532,-1.331176 0.22385,-1.455209 0.82893,-1.455209 0.91128,0 0.98117,0.814098 0.26193,3.05095 -0.94677,2.94445 -2.70431,5.19644 -3.30146,4.230242 z m 1.40876,-1.181194 c 0.894,-1.312898 1.88178,-3.845382 1.88907,-4.843227 0.0103,-1.408248 -0.44572,-0.976979 -0.74131,0.701094 -0.2696,1.530578 -1.36061,4.059863 -1.89321,4.389026 -0.14829,0.09165 -0.26962,0.278666 -0.26962,0.415599 0,0.494452 0.40905,0.227487 1.01507,-0.662492 z m 4.80862,0.253438 c -0.77161,-0.929732 0.76536,-2.778002 2.31225,-2.780572 0.94177,-0.0016 0.7827,1.187457 -0.30427,2.274428 -0.98076,0.98076 -1.50452,1.112781 -2.00798,0.506144 z m 1.76368,-0.73104 c 0.86122,-0.956765 0.96436,-1.522812 0.27568,-1.51294 -0.69823,0.01001 -1.31537,0.444151 -1.7251,1.213568 -0.55184,1.036272 0.57636,1.269297 1.44942,0.299372 z m -11.52349,-1.407684 c -1.24422,-1.581767 -0.88889,-5.38568 0.57814,-6.189051 0.71082,-0.38926 0.76989,-0.376077 1.36192,0.303898 0.36826,0.422971 0.68983,1.226771 0.79411,1.984966 0.18137,1.318711 -0.19997,3.640988 -0.69605,4.238718 -0.46333,0.558283 -1.46334,0.392181 -2.03812,-0.338531 z m 1.47218,0.207623 c 0.52113,-0.331369 0.87644,-1.59485 0.87644,-3.116642 0,-1.559094 -0.0972,-1.671451 -0.85386,-0.986708 -0.40709,0.368413 -0.59244,0.392704 -1.00943,0.132292 -0.75722,-0.472895 -0.78262,-0.438118 -0.78155,1.070077 6.5e-4,0.917643 0.17892,1.680894 0.52528,2.248959 0.5457,0.895023 0.71845,0.985631 1.24312,0.652022 z m 0.0938,-4.839885 c 0.35627,-0.665707 0.15677,-1.302241 -0.40816,-1.302241 -0.45316,0 -0.93079,0.9948 -0.73046,1.521354 0.19424,0.51051 0.81173,0.391681 1.13862,-0.219113 z m 7.82706,-0.363089 c -0.23364,-0.356591 -0.56969,-1.190029 -0.74676,-1.852083 -0.17707,-0.662055 -0.43007,-1.203736 -0.56222,-1.203736 -0.13215,0 -0.67561,0.47625 -1.20769,1.058333 -0.9576,1.047598 -1.88187,1.391688 -1.88187,0.700586 0,-0.673606 1.19023,-2.090317 2.24762,-2.675307 0.94931,-0.525199 1.08457,-0.730678 1.32765,-2.017004 0.22692,-1.200744 0.3701,-1.446421 0.88589,-1.520012 0.59153,-0.0844 0.61173,-0.02897 0.52443,1.439229 -0.0858,1.44246 -0.0542,1.535878 0.57066,1.687207 0.8229,0.1993 0.85867,0.84357 0.0661,1.191271 -0.70464,0.309144 -0.72291,0.501265 -0.19099,2.008882 0.22238,0.63028 0.34518,1.300094 0.27289,1.488473 -0.20971,0.546493 -0.84473,0.397754 -1.30575,-0.305839 z m 0.89312,-0.03854 c 0,-0.08674 -0.19093,-0.814498 -0.42429,-1.617232 -0.27832,-0.957388 -0.3903,-2.132584 -0.3255,-3.415902 0.11291,-2.23598 -0.31938,-2.555803 -0.64296,-0.475683 -0.23674,1.521859 -0.0434,3.256279 0.52009,4.664441 0.34021,0.850269 0.87266,1.365464 0.87266,0.844376 z m -2.82543,-3.142209 c 0.46258,-0.364626 0.69257,-0.664277 0.51109,-0.665891 -0.51037,-0.0045 -2.44919,1.857348 -2.43977,2.342958 0.006,0.309028 0.16219,0.226098 0.548,-0.290939 0.2968,-0.397744 0.9181,-1.021502 1.38068,-1.386128 z m 3.09002,-0.668825 c 0,-0.145521 -0.11906,-0.264583 -0.26459,-0.264583 -0.14552,0 -0.26458,0.119062 -0.26458,0.264583 0,0.145521 0.11906,0.264583 0.26458,0.264583 0.14553,0 0.26459,-0.119062 0.26459,-0.264583 z m -13.17415,1.642516 c -0.58755,-0.587548 -0.95367,-1.949627 -0.80557,-2.99692 0.0743,-0.52566 0.24137,-0.629971 1.00876,-0.629971 0.75185,0 0.96379,0.125455 1.16145,0.687495 0.28131,0.799888 0.0513,2.316194 -0.45672,3.010963 -0.33944,0.464211 -0.37494,0.461412 -0.90792,-0.07157 z m 1.00986,-0.998282 c 0.35677,-0.938374 0.32322,-1.513645 -0.12334,-2.115019 -0.30517,-0.410961 -0.477,-0.455053 -0.8599,-0.220648 -0.65024,0.39807 -0.71313,0.934374 -0.24183,2.062342 0.4689,1.12225 0.86842,1.211386 1.22507,0.273325 z"
       id="path11" /></g></svg>
