<svg width="22" height="22" viewBox="0 0 22 22" fill="none" xmlns="http://www.w3.org/2000/svg">
<g id="Linkedin">
<g id="Icon">
<path d="M14.6666 7.33325C16.1253 7.33325 17.5242 7.91271 18.5557 8.94416C19.5871 9.97561 20.1666 11.3746 20.1666 12.8333V19.2499H16.4999V12.8333C16.4999 12.347 16.3068 11.8807 15.9629 11.5369C15.6191 11.1931 15.1528 10.9999 14.6666 10.9999C14.1804 10.9999 13.714 11.1931 13.3702 11.5369C13.0264 11.8807 12.8333 12.347 12.8333 12.8333V19.2499H9.16658V12.8333C9.16658 11.3746 9.74605 9.97561 10.7775 8.94416C11.8089 7.91271 13.2079 7.33325 14.6666 7.33325Z" stroke="#3D550C" stroke-linecap="round" stroke-linejoin="round"/>
<path d="M5.49992 8.24992H1.83325V19.2499H5.49992V8.24992Z" stroke="#3D550C" stroke-linecap="round" stroke-linejoin="round"/>
<path d="M3.66659 5.49992C4.67911 5.49992 5.49992 4.67911 5.49992 3.66659C5.49992 2.65406 4.67911 1.83325 3.66659 1.83325C2.65406 1.83325 1.83325 2.65406 1.83325 3.66659C1.83325 4.67911 2.65406 5.49992 3.66659 5.49992Z" stroke="#3D550C" stroke-linecap="round" stroke-linejoin="round"/>
</g>
</g>
</svg>
