<svg width="65" height="64" viewBox="0 0 65 64" fill="none" xmlns="http://www.w3.org/2000/svg">
<path d="M3.53743 36.7989C2.56288 36.172 2.33328 35.5846 2.32984 33.7092C2.32679 31.7375 2.8951 20.6444 3.17299 17.2678C3.35952 15.0013 3.35952 15.0013 2.34231 14.191C0.158449 12.4513 0.00537169 10.7261 1.39996 3.56983C1.99075 0.538226 2.11642 0.279277 2.95816 0.359302C3.51279 0.412014 3.51279 0.412014 3.48005 4.44699C3.44731 8.48196 3.44731 8.48196 3.77209 4.62243C4.10853 0.624304 4.19618 0.324312 5.02794 0.324312C5.80415 0.324312 5.85054 0.504119 6.22755 4.97329C6.58272 9.18369 6.58272 9.18369 6.5493 4.79786C6.48696 -3.38195 8.9906 0.530084 9.35614 9.18369C9.48158 12.1532 8.55349 14.254 6.90793 14.7255C6.71854 14.7797 6.703 15.6208 6.84493 18.1308C7.87578 36.3562 7.88259 35.8331 6.60277 36.7138C5.75794 37.2952 4.36879 37.3338 3.53743 36.7989ZM6.18868 36.1172C6.99953 35.454 6.99355 36.1173 6.30566 23.1306C6.13444 19.8983 5.99104 17.2296 5.98699 17.2002C5.85975 16.2764 3.9332 17.4531 3.8888 18.4817C3.85959 19.1571 3.69072 22.4063 3.51341 25.7022C3.02533 34.775 3.04809 35.2616 4.00261 36.1566C4.44958 36.5756 5.65465 36.5539 6.18868 36.1172ZM5.76512 14.827C5.76512 14.5465 6.01813 14.2844 6.56951 13.9936C8.63594 12.9041 9.07446 10.647 8.16861 5.76275C7.62663 2.84046 7.2339 0.989774 7.17074 1.06034C7.14446 1.08972 7.20291 2.9295 7.3007 5.14873C7.50767 9.84631 7.49034 9.97315 6.64201 9.97315C5.81684 9.97315 5.16541 6.3599 5.12646 1.56697C5.11284 -0.107343 4.85015 1.60357 4.57282 5.17258C4.01233 12.3856 2.62784 12.6915 2.696 5.58731C2.74122 0.87285 2.69774 0.883247 1.79733 5.80105C0.85561 10.9457 1.23259 12.7856 3.47597 13.9936C4.00975 14.2811 4.26357 14.5496 4.26357 14.827C4.26357 15.1776 4.3709 15.2361 5.01434 15.2361C5.65778 15.2361 5.76512 15.1777 5.76512 14.827Z" fill="#2B690D"/>
<path d="M60.308 0.000783876C60.1765 0.00920601 60.0451 0.0274475 59.9176 0.0609041C59.8056 0.0911609 59.6951 0.128947 59.5904 0.179378C59.4829 0.23019 59.3805 0.292001 59.2851 0.363168C59.1849 0.435961 59.0914 0.517349 59.0024 0.603382C58.8927 0.713354 58.7899 0.830171 58.6934 0.951866C58.6091 1.05166 58.5358 1.15984 58.4582 1.26467C58.3814 1.37275 58.3067 1.4824 58.2326 1.5923C58.1298 1.74698 58.0326 1.90535 57.9327 2.06187C57.8306 2.23422 57.7306 2.4079 57.6367 2.58488C57.579 2.69254 57.5216 2.80041 57.4707 2.91149C57.4101 3.03682 57.3521 3.16346 57.2953 3.29056C57.2453 3.4095 57.1957 3.52864 57.1499 3.64928C57.103 3.77019 57.0558 3.89107 57.0148 4.01417C56.975 4.13039 56.9354 4.24678 56.9016 4.36489C56.8492 4.54974 56.7991 4.73528 56.7561 4.92254C56.7275 5.04642 56.7005 5.17075 56.6777 5.29584C56.6529 5.41901 56.6353 5.54339 56.6176 5.66773C56.5977 5.79792 56.5835 5.92878 56.5716 6.05991C56.5564 6.25487 56.5427 6.45006 56.5385 6.64561C56.5346 6.79331 56.5364 6.94109 56.5377 7.08881C56.5423 7.21668 56.5496 7.34441 56.5595 7.47197C56.5723 7.60984 56.585 7.74771 56.603 7.88502C56.6171 8.00748 56.6397 8.1288 56.6614 8.2501C56.6817 8.36847 56.711 8.48511 56.7399 8.60162C56.7688 8.72201 56.8049 8.84058 56.8438 8.95809C56.8816 9.0758 56.9262 9.19125 56.9728 9.30571C57.0271 9.42616 57.084 9.54546 57.1438 9.66325C57.2059 9.77393 57.2693 9.88418 57.3434 9.98738C57.4106 10.0893 57.4851 10.1862 57.5664 10.2772C57.6564 10.3856 57.7544 10.4867 57.8536 10.5865C58.012 10.7467 58.1733 10.9041 58.3276 11.0683C58.4418 11.1859 58.5465 11.313 58.6364 11.4503C58.6945 11.5398 58.7486 11.6329 58.7892 11.7318C58.839 11.849 58.8755 11.9714 58.901 12.0961C58.9238 12.2222 58.9344 12.3501 58.9462 12.4776C58.964 12.6929 58.9766 12.9087 58.9863 13.1245C58.9908 13.2522 58.9947 13.3798 58.9949 13.5075C58.9979 13.7003 58.9971 13.893 58.9962 14.0858C58.9953 14.2466 58.9889 14.4074 58.9857 14.5682C58.9761 14.8518 58.9659 15.1353 58.9494 15.4185C58.9246 15.8529 58.8971 16.2871 58.8708 16.7213C58.8488 17.0792 58.8256 17.437 58.8073 17.7951C58.7762 18.3668 58.7523 18.9389 58.7256 19.5108C58.6843 20.5007 58.6418 21.4905 58.6005 22.4804C58.5747 23.1937 58.5477 23.9069 58.5227 24.6202C58.5071 25.1019 58.4909 25.5837 58.4783 26.0655C58.4619 26.618 58.4505 27.1706 58.4376 27.7232C58.4251 28.2688 58.4135 28.8144 58.4017 29.36C58.3893 29.6526 58.3744 29.9451 58.3538 30.2373C58.3197 30.7535 58.2754 31.269 58.2413 31.7852C58.2221 32.0518 58.2058 32.3187 58.1947 32.5858C58.1882 32.7953 58.1853 33.0048 58.1825 33.2144C58.186 33.4263 58.1872 33.6382 58.2005 33.8498C58.2086 33.9883 58.2193 34.1267 58.2345 34.2646C58.254 34.4325 58.2774 34.5999 58.3069 34.7663C58.3299 34.8926 58.3516 35.0196 58.388 35.1429C58.4195 35.2581 58.4649 35.3692 58.518 35.476C58.5742 35.5877 58.6411 35.694 58.7154 35.7945C58.7797 35.8805 58.8511 35.961 58.926 36.0378C59.0073 36.1183 59.0951 36.192 59.186 36.2613C59.3075 36.3493 59.4365 36.4272 59.5722 36.4912C59.684 36.5456 59.802 36.5862 59.9216 36.6195C60.0308 36.651 60.1429 36.6722 60.2559 36.6835C60.3724 36.6956 60.4901 36.6942 60.6068 36.6848C60.734 36.6756 60.8585 36.6466 60.9825 36.6177C61.11 36.584 61.2349 36.54 61.3546 36.4844C61.4616 36.434 61.5654 36.376 61.662 36.3078C61.7721 36.2308 61.8737 36.1418 61.9644 36.0427C62.0519 35.9502 62.1271 35.8469 62.1974 35.741C62.2585 35.641 62.3156 35.5383 62.362 35.4306C62.4105 35.3193 62.4586 35.2076 62.4915 35.0904C62.5248 34.974 62.5604 34.8581 62.5828 34.7391C62.6078 34.6124 62.6325 34.4857 62.6477 34.3574C62.6656 34.2255 62.6816 34.0934 62.6894 33.9605C62.6973 33.8332 62.7063 33.7059 62.7089 33.5783C62.7133 33.4502 62.7128 33.322 62.7107 33.1938C62.708 33.044 62.7062 32.8942 62.6988 32.7445C62.6948 32.6156 62.688 32.4868 62.6781 32.3582C62.6401 31.8286 62.5992 31.2993 62.561 30.7698C62.5507 30.6027 62.5421 30.4356 62.5372 30.2683C62.5255 29.4735 62.5232 28.6785 62.517 27.8836C62.5153 27.4584 62.5072 27.0333 62.5017 26.6081C62.4905 25.9318 62.4783 25.2555 62.4643 24.5792C62.4473 23.8714 62.43 23.1635 62.4076 22.4558C62.3923 21.959 62.3787 21.4621 62.36 20.9653C62.3463 20.578 62.3332 20.1907 62.3163 19.8035C62.2939 19.2619 62.2716 18.7203 62.2493 18.1787C62.193 17.2502 62.136 16.3216 62.0803 15.393C62.0633 15.0556 62.0528 14.7179 62.0447 14.3802C62.0408 14.1432 62.0328 13.9061 62.0396 13.6691C62.0435 13.464 62.0456 13.2588 62.0607 13.0541C62.0704 12.9066 62.0784 12.7589 62.0892 12.6114C62.1001 12.4812 62.1123 12.3509 62.1367 12.2223C62.159 12.1009 62.1898 11.9812 62.2323 11.8652C62.2693 11.7594 62.3144 11.6561 62.3704 11.5589C62.4262 11.4569 62.4916 11.3603 62.5636 11.269C62.6811 11.1188 62.8141 10.9817 62.9433 10.8417C63.0822 10.6957 63.2224 10.5508 63.3542 10.3983C63.4594 10.2805 63.5536 10.1537 63.6492 10.0282C63.728 9.91925 63.7966 9.80349 63.8617 9.68598C63.9212 9.58075 63.9756 9.47257 64.0271 9.36318C64.0801 9.25291 64.1234 9.13816 64.1655 9.02333C64.2115 8.90377 64.2472 8.78056 64.278 8.6563C64.3088 8.53618 64.3383 8.41574 64.3671 8.29515C64.3949 8.17142 64.4157 8.0462 64.432 7.92047C64.4493 7.79491 64.4656 7.66916 64.4738 7.54262C64.4833 7.41793 64.4931 7.29311 64.4952 7.16804C64.4974 7.04159 64.5019 6.91501 64.4965 6.78859C64.492 6.63636 64.4862 6.48417 64.4774 6.33211C64.472 6.20115 64.4598 6.07059 64.4466 5.94022C64.4317 5.79016 64.412 5.64062 64.3921 5.49115C64.3722 5.36263 64.3552 5.23362 64.3298 5.10601C64.2986 4.93305 64.2616 4.7612 64.2248 4.58936C64.195 4.46121 64.1609 4.33417 64.1251 4.20759C64.066 3.98848 63.9995 3.77137 63.9249 3.55705C63.8532 3.35726 63.7743 3.16006 63.6902 2.9652C63.6386 2.84753 63.5854 2.73057 63.5289 2.61519C63.4617 2.48141 63.3927 2.34854 63.3227 2.21617C63.2434 2.08257 63.1642 1.94898 63.0849 1.81538C63.0137 1.70603 62.9408 1.59788 62.8655 1.49139C62.7685 1.35851 62.6716 1.22509 62.5612 1.10282C62.4774 1.00725 62.3932 0.911566 62.3005 0.82449C62.2078 0.739678 62.1125 0.657533 62.0125 0.581509C61.9161 0.506046 61.8155 0.435757 61.7095 0.374373C61.6113 0.316138 61.5099 0.263348 61.4069 0.213924C61.2777 0.163051 61.1493 0.10836 61.0139 0.0755124C60.8851 0.0414615 60.7535 0.0177473 60.6206 0.0073277C60.5167 -0.00335168 60.4122 0.000862465 60.308 0.000783876Z" stroke="#2B690D"/>
<path d="M58.9336 12.2984C58.9628 12.2949 58.9921 12.2844 59.0213 12.2885C59.1654 12.3085 59.3065 12.3462 59.45 12.3702C59.5108 12.3803 59.5733 12.3785 59.6338 12.3906C59.8394 12.4317 60.0398 12.4971 60.2463 12.5335C60.597 12.5954 60.9526 12.6356 61.308 12.6356C61.4323 12.6356 61.7818 12.6518 61.8797 12.554C61.8845 12.5492 61.8749 12.5383 61.8797 12.5335C61.8893 12.5239 61.9109 12.5431 61.9205 12.5335C61.9253 12.5287 61.9157 12.5179 61.9205 12.5131C61.9341 12.4995 62.0065 12.5211 62.0226 12.5131C62.0287 12.51 62.0178 12.4975 62.0226 12.4927C62.0239 12.4913 62.0858 12.4806 62.0981 12.474" stroke="#2B690D"/>
<path d="M19.8364 36.2396C19.7716 34.7619 19.7852 31.0903 19.8583 30.3472C19.9911 28.9971 20.2064 27.847 20.4623 27.1205C20.5293 26.9302 20.5789 26.7704 20.5723 26.7655C20.5658 26.7606 20.27 26.731 19.9149 26.6996C15.1902 26.2828 11.0985 23.9937 9.81955 21.0518C8.62663 18.3078 9.81173 15.2895 13.1692 12.5211C14.6684 11.2849 16.0785 10.6998 19.9387 9.71217C23.3928 8.82846 24.32 8.56441 25.5338 8.11877C27.5666 7.37245 28.8975 6.6098 30.2027 5.44332C32.182 3.67433 34.4113 3.03554 36.8025 3.55214C37.4906 3.70078 38.264 3.97972 39.0025 4.34561C41.323 5.49525 43.4722 7.47439 45.5831 10.4056C46.1554 11.2003 46.7059 11.744 47.4116 12.2115C48.1159 12.6781 48.6079 12.933 50.3717 13.7453C52.9419 14.9291 53.8193 15.4542 54.7327 16.3555C57.087 18.6785 57.5579 22.385 55.7965 24.7277C55.0484 25.7228 54.0964 26.2764 51.8828 27.0036C49.7265 27.712 47.8805 28.0562 45.6029 28.1746L44.4876 28.2325L44.5144 28.377C44.5843 28.7539 44.6868 30.1149 44.7325 31.272C44.7603 31.9762 44.8074 33.1179 44.8371 33.8091C44.9055 35.4036 44.9399 37.0339 44.905 37.0339C44.8903 37.0339 44.496 36.8547 44.0289 36.6357C40.7406 35.0939 37.7347 34.279 34.4666 34.0433C33.4396 33.9692 30.88 34.01 29.9811 34.1148C27.1602 34.4436 24.5093 35.1853 22.0763 36.3267C21.5107 36.592 20.0337 37.1762 19.9284 37.1762C19.8955 37.1762 19.863 36.8449 19.8364 36.2396ZM43.5103 34.0818C43.4276 31.2092 43.3754 30.1103 43.2688 28.9999C43.2394 28.6927 43.222 28.6542 42.9902 28.3834C41.8935 27.1018 39.7949 26.1625 37.2026 25.7929C34.7142 25.4381 31.6117 25.496 28.2596 25.9599C26.1898 26.2463 23.5823 26.7914 22.2346 27.2195L21.7895 27.361L29.1695 27.7383C29.8205 27.7716 21.5774 29.2052 21.6055 30.1761C21.6212 30.7211 21.6454 31.1782 21.6593 31.1919C21.6731 31.2056 22.0018 31.118 22.3897 30.9972C27.1614 29.5109 32.9489 29.1841 37.5748 30.1398C39.5183 30.5413 41.2964 31.1837 42.7491 32.0093C43.3733 32.3639 43.3612 32.3904 42.7252 32.0618C40.9062 31.1218 38.7212 30.5155 36.1021 30.224C35.1933 30.1229 32.5283 30.0826 31.3918 30.1527C28.2597 30.3461 24.9156 31.0315 22.4255 31.9905L21.7304 32.2582L21.754 32.4053C21.7669 32.4862 21.8125 32.8405 21.8553 33.1926C21.8981 33.5447 21.9363 33.8359 21.9402 33.8396C21.9441 33.8435 22.4207 33.6895 22.9993 33.4979C27.1077 32.1369 31.3188 31.7814 35.6081 32.4333C38.0354 32.8023 40.6756 33.595 42.8687 34.6134C43.1974 34.7661 43.4816 34.893 43.5001 34.8954C43.5187 34.8981 43.5233 34.5317 43.5103 34.0818ZM46.1205 26.8806C47.8713 26.7423 49.9514 26.2804 51.7394 25.6327C53.2923 25.0701 53.862 24.7614 54.3991 24.1912C55.0883 23.4596 55.3976 22.6171 55.3976 21.4715C55.3976 19.5422 54.3792 17.7161 52.7309 16.6901C52.0983 16.2963 51.0147 15.759 49.6114 15.1433C48.967 14.8607 48.1298 14.4737 47.7509 14.2834C47.3721 14.0932 47.0564 13.9432 47.0495 13.9501C47.0259 13.9735 47.6803 15.3812 48.0938 16.1966C48.9199 17.8254 49.6652 18.9377 50.423 19.6724L50.6873 19.9288L50.4639 19.7737C49.8844 19.3717 49.1359 18.6095 48.3895 17.6614C47.6073 16.6679 46.3553 14.7227 45.4746 13.1325C45.294 12.8065 45.024 12.401 44.8746 12.2315C44.7252 12.0619 44.3818 11.6244 44.1114 11.2593C43.0442 9.81803 44.0009 13.3048 42.826 12.3347C42.44 12.0159 39.9297 6.98985 39.5452 6.73495C36.6135 4.79158 34.0378 4.73816 31.8617 6.57559C31.2438 7.0973 30.8262 7.48144 30.8506 7.50562C30.922 7.57644 29.8588 8.81329 29.09 9.55391C26.9037 11.6599 24.1142 13.3257 21.206 14.2619C20.6135 14.4526 19.725 14.6994 19.6454 14.6954C19.6227 14.6941 19.8905 14.5781 20.2406 14.4374C22.6903 13.453 24.9208 12.0004 26.7771 10.1805C27.3659 9.60333 27.4236 9.53348 27.2553 9.60118C25.3246 10.3783 23.9486 10.8199 21.206 11.5428C17.8463 12.4284 16.3422 12.9723 15.2713 13.6889C14.8715 13.9565 14.0975 14.636 13.5761 15.1772C12.5854 16.2056 11.9683 17.2417 11.7657 18.2167C11.6213 18.9117 11.6997 19.5215 12.0176 20.1749C13.0824 22.3638 16.7798 24.091 20.6561 24.2101L21.5169 24.2366L21.3924 24.1264C21.324 24.0658 21.0157 23.8047 20.7073 23.5463C18.6248 21.801 17.5574 19.8184 17.7412 18.0367L17.7799 17.6614L17.8404 18.1773C17.9149 18.8128 18.0326 19.2062 18.3163 19.7683C19.3567 21.8294 22.3762 23.8007 26.1249 24.8661C26.3213 24.9219 26.431 24.9279 26.5935 24.8918C26.7103 24.8659 25.9402 18.4811 26.5792 18.3907C27.8231 18.2148 29.3976 24.4541 30.7701 23.9225C32.2976 23.331 34.1072 22.4548 35.74 21.5228C36.0347 21.3546 36.3237 21.1845 36.6042 21.014C40.3147 18.7585 42.8852 16.4416 43.3754 14.9109C43.4655 14.6294 43.4564 14.8711 43.3654 15.1749C42.8532 16.8855 40.039 19.7557 36.2857 22.3955C35.6025 22.876 34.5058 23.5913 33.9143 23.9422C33.6842 24.0787 33.4959 24.2046 33.4959 24.2221C33.4959 24.2396 33.8886 24.2599 34.3686 24.2672C35.4336 24.2836 36.6126 24.3807 37.4963 24.5247C38.7281 24.7256 39.7798 24.6435 41.4102 24.2191C42.0056 24.0641 43.8159 23.4637 45.5945 22.8312C47.6898 22.086 48.4292 21.9026 49.4679 21.8705C49.9872 21.8544 50.2394 21.8675 50.4721 21.9218C50.7677 21.991 51.3329 22.212 51.3329 22.2584C51.3329 22.2703 51.2092 22.2343 51.0579 22.1782C50.8238 22.0914 50.6837 22.0765 50.1135 22.0777C48.9412 22.0803 48.3379 22.2975 45.188 23.851C43.1964 24.8333 41.8409 25.4546 41.5094 25.5371C41.4417 25.5539 41.3864 25.5814 41.3865 25.5982C41.3866 25.6149 41.5534 25.7133 41.7571 25.8168C42.2049 26.0444 42.8601 26.4736 43.1609 26.7365L43.3814 26.9291L43.8543 26.9448C44.4707 26.9652 45.3733 26.9396 46.1205 26.8806ZM43.4463 14.575C43.4485 14.5197 43.4599 14.5085 43.4752 14.5463C43.489 14.5805 43.4873 14.6215 43.4713 14.6372C43.4554 14.653 43.4442 14.6249 43.4463 14.575Z" fill="#2B690D"/>
<mask id="path-5-outside-1_11_886" maskUnits="userSpaceOnUse" x="3.49756" y="45.1762" width="58" height="15" fill="black">
<rect fill="white" x="3.49756" y="45.1762" width="58" height="15"/>
<path d="M13.0179 55.7934C13.1585 55.7934 13.2288 55.8898 13.2288 56.0825C13.2288 56.1658 13.1767 56.2413 13.0726 56.309C12.9684 56.3715 12.8382 56.4028 12.6819 56.4028C12.5101 56.4028 12.3434 56.3351 12.1819 56.1997C12.0257 56.0642 11.9476 55.908 11.9476 55.7309C11.9476 55.559 12.0413 55.4054 12.2288 55.27C12.4215 55.1293 12.6481 55.059 12.9085 55.059C13.2158 55.059 13.497 55.1658 13.7522 55.3793C14.0127 55.5929 14.1429 55.8377 14.1429 56.1137C14.1429 56.4471 13.9866 56.7257 13.6741 56.9497C13.3616 57.1684 13.0361 57.2778 12.6976 57.2778C11.8434 57.2778 11.0153 56.9835 10.2132 56.395C9.41631 55.8064 8.49704 54.7257 7.45537 53.1528L6.54131 53.9028L6.51006 57.8247C6.95798 57.8247 7.48662 57.7283 8.096 57.5356V57.9497C7.50746 58.0799 6.91891 58.145 6.33037 58.145C6.06475 58.145 5.5335 58.1971 4.73662 58.3012V57.8715L6.12725 57.8403L5.5335 48.4497L4.38506 48.4809V48.1137C5.2236 48.0981 5.82516 48.0747 6.18975 48.0434C6.55433 48.007 7.06214 47.8976 7.71318 47.7153V48.145L6.75225 48.3559C6.63766 49.8351 6.56735 51.5304 6.54131 53.4418C7.76006 52.4054 8.67152 51.4445 9.27568 50.559C9.88506 49.6684 10.359 48.7205 10.6976 47.7153L10.0101 47.2622L10.1897 46.9887C10.7002 47.3116 11.1272 47.5382 11.471 47.6684C11.82 47.7934 12.1976 47.9106 12.6038 48.02L12.4163 48.3168L11.596 48.1137C10.5908 49.7596 9.46579 51.1945 8.221 52.4184L9.37725 54.2543C9.75225 54.8481 10.1038 55.3429 10.4319 55.7387C10.7653 56.1293 11.1272 56.4471 11.5179 56.6918C11.9085 56.9366 12.3252 57.059 12.7679 57.059C12.9762 57.059 13.1611 56.9601 13.3226 56.7622C13.484 56.5642 13.5647 56.3325 13.5647 56.0668C13.5647 55.8273 13.5049 55.6293 13.3851 55.4731C13.2705 55.3116 13.1168 55.2309 12.9241 55.2309C12.6064 55.2309 12.4476 55.382 12.4476 55.684C12.4476 55.7986 12.4788 55.9132 12.5413 56.0278C12.6038 56.1372 12.6741 56.1918 12.7522 56.1918C12.9085 56.1918 12.997 56.059 13.0179 55.7934ZM18.7819 48.9418L18.6882 48.9575C18.4903 48.6398 18.196 48.4809 17.8054 48.4809C17.5085 48.4809 17.2377 48.5695 16.9929 48.7465C16.7481 48.9236 16.6257 49.1293 16.6257 49.3637C16.6257 49.645 16.7299 49.8689 16.9382 50.0356C17.1465 50.2023 17.3496 50.2856 17.5476 50.2856C17.9434 50.2856 18.1413 50.1111 18.1413 49.7622C18.1413 49.3663 17.9877 49.1684 17.6804 49.1684C17.6231 49.1684 17.5606 49.1918 17.4929 49.2387C17.4252 49.2804 17.3913 49.3325 17.3913 49.395C17.3913 49.52 17.4668 49.5825 17.6179 49.5825C17.6856 49.5825 17.7689 49.5512 17.8679 49.4887C17.8106 49.7543 17.6882 49.8872 17.5007 49.8872C17.4174 49.8872 17.3418 49.8377 17.2741 49.7387C17.2116 49.6398 17.1804 49.5564 17.1804 49.4887C17.1804 49.3585 17.2351 49.2465 17.3444 49.1528C17.4538 49.0538 17.5866 49.0043 17.7429 49.0043C17.9512 49.0043 18.1439 49.0616 18.321 49.1762C18.4981 49.2908 18.5866 49.4523 18.5866 49.6606C18.5866 49.8793 18.4746 50.0668 18.2507 50.2231C18.0319 50.3741 17.7924 50.4497 17.5319 50.4497C17.2246 50.4497 16.9564 50.3429 16.7272 50.1293C16.4981 49.9158 16.3835 49.6476 16.3835 49.3247C16.3835 48.9861 16.5033 48.6866 16.7429 48.4262C16.9825 48.1658 17.2403 48.0356 17.5163 48.0356C18.209 48.0356 18.6309 48.3377 18.7819 48.9418ZM19.3444 58.3559C18.1413 58.3559 17.3913 58.3741 17.0944 58.4106C16.7976 58.4523 16.5397 58.4965 16.321 58.5434V58.1137L17.3288 58.0825C17.3288 55.8221 17.2116 53.6606 16.9772 51.5981L16.1101 51.5668V51.2778C16.6465 51.2882 17.0189 51.2934 17.2272 51.2934C17.597 51.2934 18.0944 51.1971 18.7194 51.0043V51.3637L18.0163 51.5356L17.8522 54.0512L17.6647 58.02C18.2585 58.02 18.8184 57.9861 19.3444 57.9184V58.3559ZM25.6632 50.6528C25.2361 50.7309 24.8819 50.7882 24.6007 50.8247C24.3246 50.8559 23.921 50.9549 23.3897 51.1215C23.3637 51.4549 23.2101 52.2752 22.9288 53.5825C22.6476 54.8846 22.5069 55.7648 22.5069 56.2231C22.5069 56.8168 22.6267 57.2726 22.8663 57.5903C23.1111 57.908 23.4549 58.0668 23.8976 58.0668C24.2205 58.0668 24.4679 57.9236 24.6397 57.6372C24.8168 57.3455 24.9054 56.9705 24.9054 56.5122C24.9054 56.3351 24.8429 56.1528 24.7179 55.9653C24.5929 55.7778 24.4549 55.684 24.3038 55.684C24.1684 55.684 24.059 55.7491 23.9757 55.8793C23.8924 56.0096 23.8507 56.1606 23.8507 56.3325C23.8507 56.4835 23.921 56.559 24.0616 56.559C24.2022 56.559 24.3038 56.4471 24.3663 56.2231L24.4601 56.2856C24.4601 56.4471 24.4132 56.5825 24.3194 56.6918C24.2309 56.796 24.1345 56.8481 24.0304 56.8481C23.8585 56.8481 23.6944 56.7934 23.5382 56.684C23.3871 56.5695 23.3116 56.4262 23.3116 56.2543C23.3116 56.0304 23.408 55.8325 23.6007 55.6606C23.7986 55.4835 24.0095 55.395 24.2335 55.395C24.52 55.395 24.8038 55.4939 25.0851 55.6918C25.3715 55.8898 25.5147 56.0981 25.5147 56.3168C25.5147 56.8116 25.3637 57.27 25.0616 57.6918C24.7595 58.1085 24.4106 58.3168 24.0147 58.3168C23.4106 58.3168 22.9288 58.1293 22.5694 57.7543C22.2101 57.3741 22.0304 56.8741 22.0304 56.2543C22.0304 55.9471 22.0903 55.1215 22.2101 53.7778C22.3351 52.4288 22.3924 51.645 22.3819 51.4262L20.9366 51.8403V51.4106L22.3819 51.0747C22.3924 50.9184 22.3976 50.7361 22.3976 50.5278C22.3976 49.908 22.3533 49.3064 22.2647 48.7231L23.6085 48.4965C23.6241 49.1476 23.5616 49.9002 23.421 50.7543C24.072 50.546 24.5121 50.421 24.7413 50.3793C24.9705 50.3325 25.2387 50.2648 25.546 50.1762L25.6632 50.6528ZM32.3257 57.7934C31.7632 57.9445 31.2996 58.02 30.9351 58.02C30.0653 58.02 29.3309 57.6372 28.7319 56.8715C28.133 56.1059 27.8335 55.2127 27.8335 54.1918C27.8335 53.2543 28.1981 52.4158 28.9272 51.6762C29.6564 50.9314 30.4871 50.559 31.4194 50.559C31.8465 50.559 32.2814 50.6945 32.7241 50.9653C33.1668 51.2309 33.3882 51.5486 33.3882 51.9184C33.3882 52.2309 33.2397 52.5304 32.9429 52.8168C32.6512 53.1033 32.3387 53.2465 32.0054 53.2465C31.7085 53.2465 31.4429 53.1684 31.2085 53.0122C30.9741 52.8507 30.8569 52.6424 30.8569 52.3872C30.8569 52.1476 30.9325 51.9627 31.0835 51.8325C31.2345 51.6971 31.4403 51.6293 31.7007 51.6293C31.8517 51.6293 31.9871 51.6684 32.1069 51.7465C32.2319 51.8195 32.2944 51.9158 32.2944 52.0356C32.2944 52.1085 32.245 52.184 32.146 52.2622C32.0522 52.3351 31.9637 52.3715 31.8804 52.3715H31.7866C31.8387 52.1997 31.8647 52.0877 31.8647 52.0356C31.8647 51.9054 31.784 51.8403 31.6226 51.8403C31.5288 51.8403 31.4455 51.895 31.3726 52.0043C31.3049 52.1137 31.271 52.2231 31.271 52.3325C31.271 52.7491 31.4637 52.9575 31.8491 52.9575C32.1095 52.9575 32.3205 52.8637 32.4819 52.6762C32.6486 52.4835 32.7319 52.2517 32.7319 51.9809C32.7319 51.658 32.5939 51.3846 32.3179 51.1606C32.047 50.9314 31.7424 50.8168 31.4038 50.8168C30.6955 50.8168 30.1043 51.184 29.6304 51.9184C29.1564 52.6528 28.9194 53.4314 28.9194 54.2543C28.9194 55.1606 29.1043 55.9757 29.4741 56.6997C29.8439 57.4184 30.3309 57.7778 30.9351 57.7778C31.409 57.7778 31.7606 57.5799 31.9897 57.184L32.3257 57.7934ZM41.1991 57.8403C40.9179 57.8611 40.7772 57.7309 40.7772 57.4497C40.7772 57.3142 40.8476 57.1866 40.9882 57.0668C41.1288 56.9418 41.2746 56.8793 41.4257 56.8793C41.5298 56.8793 41.6835 56.9236 41.8866 57.0122C42.0897 57.1007 42.1913 57.27 42.1913 57.52C42.1913 57.9627 42.0585 58.3351 41.7929 58.6372C41.5325 58.9392 41.233 59.0903 40.8944 59.0903C40.6705 59.0903 40.4465 58.9523 40.2226 58.6762C39.9986 58.4054 39.8866 58.1267 39.8866 57.8403C39.8866 57.4028 40.0246 56.8403 40.3007 56.1528C40.5767 55.4653 40.7147 54.8663 40.7147 54.3559C40.7147 52.6684 40.0871 51.8247 38.8319 51.8247C38.3996 51.8247 38.0012 52.0434 37.6366 52.4809C37.2772 52.9184 37.0976 53.2596 37.0976 53.5043C37.1392 55.1137 37.1835 56.7231 37.2304 58.3325C37.522 58.3168 37.9101 58.3116 38.3944 58.3168L38.3632 58.7387C38.0715 58.7075 37.7017 58.6918 37.2538 58.6918C36.5246 58.6918 35.9569 58.7283 35.5507 58.8012L35.5351 58.434C36.0507 58.434 36.483 58.4132 36.8319 58.3715C36.8632 57.408 36.7252 55.6241 36.4179 53.02C36.1158 50.4106 35.7877 48.3481 35.4335 46.8325C35.2095 46.8689 34.8423 46.9002 34.3319 46.9262L34.3163 46.6059C35.0246 46.6007 36.1132 46.4575 37.5819 46.1762L37.5976 46.4809C37.2121 46.559 36.9022 46.6163 36.6679 46.6528C36.746 47.2517 36.8163 48.1528 36.8788 49.3559L37.0663 52.8481C37.2955 52.3481 37.6184 51.9497 38.0351 51.6528C38.4517 51.3507 38.8814 51.1997 39.3241 51.1997C40.022 51.1997 40.595 51.4523 41.0429 51.9575C41.496 52.4575 41.7226 52.9991 41.7226 53.5825C41.7226 54.3585 41.397 55.2257 40.746 56.184C40.5533 56.4705 40.4127 56.7101 40.3241 56.9028C40.2408 57.0903 40.1991 57.3168 40.1991 57.5825C40.1991 57.9262 40.3293 58.1684 40.5897 58.309C40.8554 58.4549 41.0845 58.5278 41.2772 58.5278C41.4491 58.5278 41.5819 58.4705 41.6757 58.3559C41.7746 58.2413 41.8241 58.0929 41.8241 57.9106C41.8241 57.7231 41.7746 57.546 41.6757 57.3793C41.5819 57.2075 41.4752 57.1215 41.3554 57.1215C41.2043 57.1215 41.1288 57.2674 41.1288 57.559C41.1288 57.6997 41.1522 57.7934 41.1991 57.8403ZM48.846 56.4965C49.0908 56.4965 49.2132 56.6137 49.2132 56.8481C49.2132 56.9991 49.1455 57.1293 49.0101 57.2387C48.8799 57.3429 48.7549 57.395 48.6351 57.395C48.484 57.395 48.3278 57.3221 48.1663 57.1762C48.0101 57.0304 47.9319 56.8507 47.9319 56.6372C47.9319 56.3403 48.0283 56.1085 48.221 55.9418C48.4137 55.77 48.6533 55.684 48.9397 55.684C49.2835 55.684 49.57 55.8064 49.7991 56.0512C50.0283 56.2908 50.1429 56.5981 50.1429 56.9731C50.1429 57.4158 49.9476 57.7674 49.5569 58.0278C49.1715 58.2882 48.747 58.4184 48.2835 58.4184C47.4397 58.4184 46.6559 58.0695 45.9319 57.3715C45.208 56.6684 44.846 55.8168 44.846 54.8168C44.846 53.8741 45.1976 53.0174 45.9007 52.2465C46.6038 51.4757 47.3512 51.0903 48.1429 51.0903C48.7366 51.0903 49.2861 51.2882 49.7913 51.684C50.3017 52.0747 50.5569 52.4835 50.5569 52.9106C50.5569 53.4418 50.3382 53.8767 49.9007 54.2153C49.4684 54.5538 48.9241 54.7231 48.2679 54.7231C47.6325 54.7231 47.1429 54.6346 46.7991 54.4575C46.4554 54.2804 46.2835 54.033 46.2835 53.7153C46.2835 53.4288 46.3903 53.1945 46.6038 53.0122C46.8174 52.8299 47.0413 52.7387 47.2757 52.7387C47.484 52.7387 47.6715 52.7934 47.8382 52.9028C48.0101 53.007 48.096 53.132 48.096 53.2778C48.096 53.434 48.0361 53.5799 47.9163 53.7153C47.8017 53.8507 47.6897 53.9184 47.5804 53.9184C47.3668 53.9184 47.2601 53.8455 47.2601 53.6997C47.5049 53.632 47.6272 53.5148 47.6272 53.3481C47.6272 53.2179 47.5804 53.1163 47.4866 53.0434C47.3929 52.9653 47.2809 52.9262 47.1507 52.9262C47.0569 52.9262 46.9684 53.0043 46.8851 53.1606C46.8017 53.3116 46.7601 53.4679 46.7601 53.6293C46.7601 53.8585 46.9215 54.0564 47.2444 54.2231C47.5726 54.3846 47.9684 54.4653 48.4319 54.4653C48.8278 54.4653 49.1351 54.3455 49.3538 54.1059C49.5726 53.8663 49.6819 53.5434 49.6819 53.1372C49.6819 52.7153 49.5231 52.3116 49.2054 51.9262C48.8877 51.5408 48.497 51.3481 48.0335 51.3481C47.4554 51.3481 46.9632 51.6736 46.5569 52.3247C46.1507 52.9705 45.9476 53.8481 45.9476 54.9575C45.9476 55.8741 46.1793 56.632 46.6429 57.2309C47.1116 57.8299 47.6871 58.1293 48.3694 58.1293C48.6871 58.1293 49.0022 58.02 49.3147 57.8012C49.6325 57.5773 49.7913 57.296 49.7913 56.9575C49.7913 56.7283 49.6793 56.533 49.4554 56.3715C49.2314 56.2101 48.9866 56.1293 48.721 56.1293C48.5752 56.1293 48.4502 56.1762 48.346 56.27C48.2418 56.3637 48.1897 56.4757 48.1897 56.6059C48.1897 56.8299 48.3226 56.9418 48.5882 56.9418C48.6663 56.9418 48.7288 56.895 48.7757 56.8012C48.8226 56.7023 48.846 56.6007 48.846 56.4965ZM54.6335 53.309C55.1856 51.7517 56.0085 50.9731 57.1022 50.9731C57.8783 50.9731 58.5762 51.3012 59.196 51.9575C59.8158 52.6085 60.1257 53.3741 60.1257 54.2543C60.1257 55.2179 59.8392 56.145 59.2663 57.0356C58.6934 57.9262 58.0892 58.3715 57.4538 58.3715C57.1778 58.3715 56.9069 58.2491 56.6413 58.0043C56.3809 57.7596 56.2507 57.5017 56.2507 57.2309C56.2507 57.0122 56.3627 56.8168 56.5866 56.645C56.8106 56.4731 57.0397 56.3872 57.2741 56.3872C57.821 56.3872 58.0944 56.5564 58.0944 56.895C58.0944 57.2179 57.8965 57.3793 57.5007 57.3793C57.3184 57.3793 57.2116 57.3403 57.1804 57.2622L57.2429 57.184C57.3106 57.2049 57.3705 57.2153 57.4226 57.2153C57.5267 57.2153 57.5788 57.1189 57.5788 56.9262C57.5788 56.7127 57.4772 56.6059 57.2741 56.6059C57.1647 56.6059 57.0658 56.6892 56.9772 56.8559C56.8887 57.0174 56.8444 57.1814 56.8444 57.3481C56.8444 57.8481 57.0684 58.0981 57.5163 58.0981C58.5319 58.0981 59.0397 56.7439 59.0397 54.0356C59.0397 53.3793 58.8418 52.7648 58.446 52.1918C58.0502 51.6137 57.5918 51.3247 57.071 51.3247C56.6335 51.3247 56.2325 51.4991 55.8679 51.8481C55.5085 52.1918 55.2246 52.5981 55.0163 53.0668C54.808 53.5304 54.7038 53.7934 54.7038 53.8559L54.3991 57.9653L55.2429 57.7622L55.3366 58.1137C54.7845 58.2491 54.3757 58.3168 54.1101 58.3168C53.8496 58.3168 53.4746 58.3012 52.9851 58.27L53.0554 57.9184L54.0944 57.9965C54.1048 57.7934 54.1101 57.5512 54.1101 57.27C54.1101 55.145 53.9121 53.1267 53.5163 51.2153L52.6335 51.3637L52.5397 51.0747C53.2637 50.9861 54.0111 50.757 54.7819 50.3872L54.6335 53.309Z"/>
</mask>
<path d="M13.0179 55.7934C13.1585 55.7934 13.2288 55.8898 13.2288 56.0825C13.2288 56.1658 13.1767 56.2413 13.0726 56.309C12.9684 56.3715 12.8382 56.4028 12.6819 56.4028C12.5101 56.4028 12.3434 56.3351 12.1819 56.1997C12.0257 56.0642 11.9476 55.908 11.9476 55.7309C11.9476 55.559 12.0413 55.4054 12.2288 55.27C12.4215 55.1293 12.6481 55.059 12.9085 55.059C13.2158 55.059 13.497 55.1658 13.7522 55.3793C14.0127 55.5929 14.1429 55.8377 14.1429 56.1137C14.1429 56.4471 13.9866 56.7257 13.6741 56.9497C13.3616 57.1684 13.0361 57.2778 12.6976 57.2778C11.8434 57.2778 11.0153 56.9835 10.2132 56.395C9.41631 55.8064 8.49704 54.7257 7.45537 53.1528L6.54131 53.9028L6.51006 57.8247C6.95798 57.8247 7.48662 57.7283 8.096 57.5356V57.9497C7.50746 58.0799 6.91891 58.145 6.33037 58.145C6.06475 58.145 5.5335 58.1971 4.73662 58.3012V57.8715L6.12725 57.8403L5.5335 48.4497L4.38506 48.4809V48.1137C5.2236 48.0981 5.82516 48.0747 6.18975 48.0434C6.55433 48.007 7.06214 47.8976 7.71318 47.7153V48.145L6.75225 48.3559C6.63766 49.8351 6.56735 51.5304 6.54131 53.4418C7.76006 52.4054 8.67152 51.4445 9.27568 50.559C9.88506 49.6684 10.359 48.7205 10.6976 47.7153L10.0101 47.2622L10.1897 46.9887C10.7002 47.3116 11.1272 47.5382 11.471 47.6684C11.82 47.7934 12.1976 47.9106 12.6038 48.02L12.4163 48.3168L11.596 48.1137C10.5908 49.7596 9.46579 51.1945 8.221 52.4184L9.37725 54.2543C9.75225 54.8481 10.1038 55.3429 10.4319 55.7387C10.7653 56.1293 11.1272 56.4471 11.5179 56.6918C11.9085 56.9366 12.3252 57.059 12.7679 57.059C12.9762 57.059 13.1611 56.9601 13.3226 56.7622C13.484 56.5642 13.5647 56.3325 13.5647 56.0668C13.5647 55.8273 13.5049 55.6293 13.3851 55.4731C13.2705 55.3116 13.1168 55.2309 12.9241 55.2309C12.6064 55.2309 12.4476 55.382 12.4476 55.684C12.4476 55.7986 12.4788 55.9132 12.5413 56.0278C12.6038 56.1372 12.6741 56.1918 12.7522 56.1918C12.9085 56.1918 12.997 56.059 13.0179 55.7934ZM18.7819 48.9418L18.6882 48.9575C18.4903 48.6398 18.196 48.4809 17.8054 48.4809C17.5085 48.4809 17.2377 48.5695 16.9929 48.7465C16.7481 48.9236 16.6257 49.1293 16.6257 49.3637C16.6257 49.645 16.7299 49.8689 16.9382 50.0356C17.1465 50.2023 17.3496 50.2856 17.5476 50.2856C17.9434 50.2856 18.1413 50.1111 18.1413 49.7622C18.1413 49.3663 17.9877 49.1684 17.6804 49.1684C17.6231 49.1684 17.5606 49.1918 17.4929 49.2387C17.4252 49.2804 17.3913 49.3325 17.3913 49.395C17.3913 49.52 17.4668 49.5825 17.6179 49.5825C17.6856 49.5825 17.7689 49.5512 17.8679 49.4887C17.8106 49.7543 17.6882 49.8872 17.5007 49.8872C17.4174 49.8872 17.3418 49.8377 17.2741 49.7387C17.2116 49.6398 17.1804 49.5564 17.1804 49.4887C17.1804 49.3585 17.2351 49.2465 17.3444 49.1528C17.4538 49.0538 17.5866 49.0043 17.7429 49.0043C17.9512 49.0043 18.1439 49.0616 18.321 49.1762C18.4981 49.2908 18.5866 49.4523 18.5866 49.6606C18.5866 49.8793 18.4746 50.0668 18.2507 50.2231C18.0319 50.3741 17.7924 50.4497 17.5319 50.4497C17.2246 50.4497 16.9564 50.3429 16.7272 50.1293C16.4981 49.9158 16.3835 49.6476 16.3835 49.3247C16.3835 48.9861 16.5033 48.6866 16.7429 48.4262C16.9825 48.1658 17.2403 48.0356 17.5163 48.0356C18.209 48.0356 18.6309 48.3377 18.7819 48.9418ZM19.3444 58.3559C18.1413 58.3559 17.3913 58.3741 17.0944 58.4106C16.7976 58.4523 16.5397 58.4965 16.321 58.5434V58.1137L17.3288 58.0825C17.3288 55.8221 17.2116 53.6606 16.9772 51.5981L16.1101 51.5668V51.2778C16.6465 51.2882 17.0189 51.2934 17.2272 51.2934C17.597 51.2934 18.0944 51.1971 18.7194 51.0043V51.3637L18.0163 51.5356L17.8522 54.0512L17.6647 58.02C18.2585 58.02 18.8184 57.9861 19.3444 57.9184V58.3559ZM25.6632 50.6528C25.2361 50.7309 24.8819 50.7882 24.6007 50.8247C24.3246 50.8559 23.921 50.9549 23.3897 51.1215C23.3637 51.4549 23.2101 52.2752 22.9288 53.5825C22.6476 54.8846 22.5069 55.7648 22.5069 56.2231C22.5069 56.8168 22.6267 57.2726 22.8663 57.5903C23.1111 57.908 23.4549 58.0668 23.8976 58.0668C24.2205 58.0668 24.4679 57.9236 24.6397 57.6372C24.8168 57.3455 24.9054 56.9705 24.9054 56.5122C24.9054 56.3351 24.8429 56.1528 24.7179 55.9653C24.5929 55.7778 24.4549 55.684 24.3038 55.684C24.1684 55.684 24.059 55.7491 23.9757 55.8793C23.8924 56.0096 23.8507 56.1606 23.8507 56.3325C23.8507 56.4835 23.921 56.559 24.0616 56.559C24.2022 56.559 24.3038 56.4471 24.3663 56.2231L24.4601 56.2856C24.4601 56.4471 24.4132 56.5825 24.3194 56.6918C24.2309 56.796 24.1345 56.8481 24.0304 56.8481C23.8585 56.8481 23.6944 56.7934 23.5382 56.684C23.3871 56.5695 23.3116 56.4262 23.3116 56.2543C23.3116 56.0304 23.408 55.8325 23.6007 55.6606C23.7986 55.4835 24.0095 55.395 24.2335 55.395C24.52 55.395 24.8038 55.4939 25.0851 55.6918C25.3715 55.8898 25.5147 56.0981 25.5147 56.3168C25.5147 56.8116 25.3637 57.27 25.0616 57.6918C24.7595 58.1085 24.4106 58.3168 24.0147 58.3168C23.4106 58.3168 22.9288 58.1293 22.5694 57.7543C22.2101 57.3741 22.0304 56.8741 22.0304 56.2543C22.0304 55.9471 22.0903 55.1215 22.2101 53.7778C22.3351 52.4288 22.3924 51.645 22.3819 51.4262L20.9366 51.8403V51.4106L22.3819 51.0747C22.3924 50.9184 22.3976 50.7361 22.3976 50.5278C22.3976 49.908 22.3533 49.3064 22.2647 48.7231L23.6085 48.4965C23.6241 49.1476 23.5616 49.9002 23.421 50.7543C24.072 50.546 24.5121 50.421 24.7413 50.3793C24.9705 50.3325 25.2387 50.2648 25.546 50.1762L25.6632 50.6528ZM32.3257 57.7934C31.7632 57.9445 31.2996 58.02 30.9351 58.02C30.0653 58.02 29.3309 57.6372 28.7319 56.8715C28.133 56.1059 27.8335 55.2127 27.8335 54.1918C27.8335 53.2543 28.1981 52.4158 28.9272 51.6762C29.6564 50.9314 30.4871 50.559 31.4194 50.559C31.8465 50.559 32.2814 50.6945 32.7241 50.9653C33.1668 51.2309 33.3882 51.5486 33.3882 51.9184C33.3882 52.2309 33.2397 52.5304 32.9429 52.8168C32.6512 53.1033 32.3387 53.2465 32.0054 53.2465C31.7085 53.2465 31.4429 53.1684 31.2085 53.0122C30.9741 52.8507 30.8569 52.6424 30.8569 52.3872C30.8569 52.1476 30.9325 51.9627 31.0835 51.8325C31.2345 51.6971 31.4403 51.6293 31.7007 51.6293C31.8517 51.6293 31.9871 51.6684 32.1069 51.7465C32.2319 51.8195 32.2944 51.9158 32.2944 52.0356C32.2944 52.1085 32.245 52.184 32.146 52.2622C32.0522 52.3351 31.9637 52.3715 31.8804 52.3715H31.7866C31.8387 52.1997 31.8647 52.0877 31.8647 52.0356C31.8647 51.9054 31.784 51.8403 31.6226 51.8403C31.5288 51.8403 31.4455 51.895 31.3726 52.0043C31.3049 52.1137 31.271 52.2231 31.271 52.3325C31.271 52.7491 31.4637 52.9575 31.8491 52.9575C32.1095 52.9575 32.3205 52.8637 32.4819 52.6762C32.6486 52.4835 32.7319 52.2517 32.7319 51.9809C32.7319 51.658 32.5939 51.3846 32.3179 51.1606C32.047 50.9314 31.7424 50.8168 31.4038 50.8168C30.6955 50.8168 30.1043 51.184 29.6304 51.9184C29.1564 52.6528 28.9194 53.4314 28.9194 54.2543C28.9194 55.1606 29.1043 55.9757 29.4741 56.6997C29.8439 57.4184 30.3309 57.7778 30.9351 57.7778C31.409 57.7778 31.7606 57.5799 31.9897 57.184L32.3257 57.7934ZM41.1991 57.8403C40.9179 57.8611 40.7772 57.7309 40.7772 57.4497C40.7772 57.3142 40.8476 57.1866 40.9882 57.0668C41.1288 56.9418 41.2746 56.8793 41.4257 56.8793C41.5298 56.8793 41.6835 56.9236 41.8866 57.0122C42.0897 57.1007 42.1913 57.27 42.1913 57.52C42.1913 57.9627 42.0585 58.3351 41.7929 58.6372C41.5325 58.9392 41.233 59.0903 40.8944 59.0903C40.6705 59.0903 40.4465 58.9523 40.2226 58.6762C39.9986 58.4054 39.8866 58.1267 39.8866 57.8403C39.8866 57.4028 40.0246 56.8403 40.3007 56.1528C40.5767 55.4653 40.7147 54.8663 40.7147 54.3559C40.7147 52.6684 40.0871 51.8247 38.8319 51.8247C38.3996 51.8247 38.0012 52.0434 37.6366 52.4809C37.2772 52.9184 37.0976 53.2596 37.0976 53.5043C37.1392 55.1137 37.1835 56.7231 37.2304 58.3325C37.522 58.3168 37.9101 58.3116 38.3944 58.3168L38.3632 58.7387C38.0715 58.7075 37.7017 58.6918 37.2538 58.6918C36.5246 58.6918 35.9569 58.7283 35.5507 58.8012L35.5351 58.434C36.0507 58.434 36.483 58.4132 36.8319 58.3715C36.8632 57.408 36.7252 55.6241 36.4179 53.02C36.1158 50.4106 35.7877 48.3481 35.4335 46.8325C35.2095 46.8689 34.8423 46.9002 34.3319 46.9262L34.3163 46.6059C35.0246 46.6007 36.1132 46.4575 37.5819 46.1762L37.5976 46.4809C37.2121 46.559 36.9022 46.6163 36.6679 46.6528C36.746 47.2517 36.8163 48.1528 36.8788 49.3559L37.0663 52.8481C37.2955 52.3481 37.6184 51.9497 38.0351 51.6528C38.4517 51.3507 38.8814 51.1997 39.3241 51.1997C40.022 51.1997 40.595 51.4523 41.0429 51.9575C41.496 52.4575 41.7226 52.9991 41.7226 53.5825C41.7226 54.3585 41.397 55.2257 40.746 56.184C40.5533 56.4705 40.4127 56.7101 40.3241 56.9028C40.2408 57.0903 40.1991 57.3168 40.1991 57.5825C40.1991 57.9262 40.3293 58.1684 40.5897 58.309C40.8554 58.4549 41.0845 58.5278 41.2772 58.5278C41.4491 58.5278 41.5819 58.4705 41.6757 58.3559C41.7746 58.2413 41.8241 58.0929 41.8241 57.9106C41.8241 57.7231 41.7746 57.546 41.6757 57.3793C41.5819 57.2075 41.4752 57.1215 41.3554 57.1215C41.2043 57.1215 41.1288 57.2674 41.1288 57.559C41.1288 57.6997 41.1522 57.7934 41.1991 57.8403ZM48.846 56.4965C49.0908 56.4965 49.2132 56.6137 49.2132 56.8481C49.2132 56.9991 49.1455 57.1293 49.0101 57.2387C48.8799 57.3429 48.7549 57.395 48.6351 57.395C48.484 57.395 48.3278 57.3221 48.1663 57.1762C48.0101 57.0304 47.9319 56.8507 47.9319 56.6372C47.9319 56.3403 48.0283 56.1085 48.221 55.9418C48.4137 55.77 48.6533 55.684 48.9397 55.684C49.2835 55.684 49.57 55.8064 49.7991 56.0512C50.0283 56.2908 50.1429 56.5981 50.1429 56.9731C50.1429 57.4158 49.9476 57.7674 49.5569 58.0278C49.1715 58.2882 48.747 58.4184 48.2835 58.4184C47.4397 58.4184 46.6559 58.0695 45.9319 57.3715C45.208 56.6684 44.846 55.8168 44.846 54.8168C44.846 53.8741 45.1976 53.0174 45.9007 52.2465C46.6038 51.4757 47.3512 51.0903 48.1429 51.0903C48.7366 51.0903 49.2861 51.2882 49.7913 51.684C50.3017 52.0747 50.5569 52.4835 50.5569 52.9106C50.5569 53.4418 50.3382 53.8767 49.9007 54.2153C49.4684 54.5538 48.9241 54.7231 48.2679 54.7231C47.6325 54.7231 47.1429 54.6346 46.7991 54.4575C46.4554 54.2804 46.2835 54.033 46.2835 53.7153C46.2835 53.4288 46.3903 53.1945 46.6038 53.0122C46.8174 52.8299 47.0413 52.7387 47.2757 52.7387C47.484 52.7387 47.6715 52.7934 47.8382 52.9028C48.0101 53.007 48.096 53.132 48.096 53.2778C48.096 53.434 48.0361 53.5799 47.9163 53.7153C47.8017 53.8507 47.6897 53.9184 47.5804 53.9184C47.3668 53.9184 47.2601 53.8455 47.2601 53.6997C47.5049 53.632 47.6272 53.5148 47.6272 53.3481C47.6272 53.2179 47.5804 53.1163 47.4866 53.0434C47.3929 52.9653 47.2809 52.9262 47.1507 52.9262C47.0569 52.9262 46.9684 53.0043 46.8851 53.1606C46.8017 53.3116 46.7601 53.4679 46.7601 53.6293C46.7601 53.8585 46.9215 54.0564 47.2444 54.2231C47.5726 54.3846 47.9684 54.4653 48.4319 54.4653C48.8278 54.4653 49.1351 54.3455 49.3538 54.1059C49.5726 53.8663 49.6819 53.5434 49.6819 53.1372C49.6819 52.7153 49.5231 52.3116 49.2054 51.9262C48.8877 51.5408 48.497 51.3481 48.0335 51.3481C47.4554 51.3481 46.9632 51.6736 46.5569 52.3247C46.1507 52.9705 45.9476 53.8481 45.9476 54.9575C45.9476 55.8741 46.1793 56.632 46.6429 57.2309C47.1116 57.8299 47.6871 58.1293 48.3694 58.1293C48.6871 58.1293 49.0022 58.02 49.3147 57.8012C49.6325 57.5773 49.7913 57.296 49.7913 56.9575C49.7913 56.7283 49.6793 56.533 49.4554 56.3715C49.2314 56.2101 48.9866 56.1293 48.721 56.1293C48.5752 56.1293 48.4502 56.1762 48.346 56.27C48.2418 56.3637 48.1897 56.4757 48.1897 56.6059C48.1897 56.8299 48.3226 56.9418 48.5882 56.9418C48.6663 56.9418 48.7288 56.895 48.7757 56.8012C48.8226 56.7023 48.846 56.6007 48.846 56.4965ZM54.6335 53.309C55.1856 51.7517 56.0085 50.9731 57.1022 50.9731C57.8783 50.9731 58.5762 51.3012 59.196 51.9575C59.8158 52.6085 60.1257 53.3741 60.1257 54.2543C60.1257 55.2179 59.8392 56.145 59.2663 57.0356C58.6934 57.9262 58.0892 58.3715 57.4538 58.3715C57.1778 58.3715 56.9069 58.2491 56.6413 58.0043C56.3809 57.7596 56.2507 57.5017 56.2507 57.2309C56.2507 57.0122 56.3627 56.8168 56.5866 56.645C56.8106 56.4731 57.0397 56.3872 57.2741 56.3872C57.821 56.3872 58.0944 56.5564 58.0944 56.895C58.0944 57.2179 57.8965 57.3793 57.5007 57.3793C57.3184 57.3793 57.2116 57.3403 57.1804 57.2622L57.2429 57.184C57.3106 57.2049 57.3705 57.2153 57.4226 57.2153C57.5267 57.2153 57.5788 57.1189 57.5788 56.9262C57.5788 56.7127 57.4772 56.6059 57.2741 56.6059C57.1647 56.6059 57.0658 56.6892 56.9772 56.8559C56.8887 57.0174 56.8444 57.1814 56.8444 57.3481C56.8444 57.8481 57.0684 58.0981 57.5163 58.0981C58.5319 58.0981 59.0397 56.7439 59.0397 54.0356C59.0397 53.3793 58.8418 52.7648 58.446 52.1918C58.0502 51.6137 57.5918 51.3247 57.071 51.3247C56.6335 51.3247 56.2325 51.4991 55.8679 51.8481C55.5085 52.1918 55.2246 52.5981 55.0163 53.0668C54.808 53.5304 54.7038 53.7934 54.7038 53.8559L54.3991 57.9653L55.2429 57.7622L55.3366 58.1137C54.7845 58.2491 54.3757 58.3168 54.1101 58.3168C53.8496 58.3168 53.4746 58.3012 52.9851 58.27L53.0554 57.9184L54.0944 57.9965C54.1048 57.7934 54.1101 57.5512 54.1101 57.27C54.1101 55.145 53.9121 53.1267 53.5163 51.2153L52.6335 51.3637L52.5397 51.0747C53.2637 50.9861 54.0111 50.757 54.7819 50.3872L54.6335 53.309Z" fill="#2B690D"/>
<path d="M13.0179 55.7934V55.2934H12.5556L12.5194 55.7543L13.0179 55.7934ZM13.0726 56.309L13.3298 56.7378L13.3375 56.7332L13.3451 56.7283L13.0726 56.309ZM12.1819 56.1997L11.8544 56.5776L11.8606 56.5828L12.1819 56.1997ZM12.2288 55.27L12.5216 55.6753L12.5235 55.6739L12.2288 55.27ZM13.7522 55.3793L13.4314 55.7628L13.4352 55.766L13.7522 55.3793ZM13.6741 56.9497L13.9609 57.3593L13.9654 57.3561L13.6741 56.9497ZM10.2132 56.395L9.91613 56.7972L9.91739 56.7981L10.2132 56.395ZM7.45537 53.1528L7.87224 52.8767L7.56641 52.4149L7.13821 52.7662L7.45537 53.1528ZM6.54131 53.9028L6.22415 53.5162L6.04319 53.6647L6.04133 53.8988L6.54131 53.9028ZM6.51006 57.8247L6.01008 57.8207L6.00606 58.3247H6.51006V57.8247ZM8.096 57.5356H8.596V56.8531L7.94524 57.0589L8.096 57.5356ZM8.096 57.9497L8.204 58.4379L8.596 58.3511V57.9497H8.096ZM4.73662 58.3012H4.23662V58.8708L4.80143 58.797L4.73662 58.3012ZM4.73662 57.8715L4.72539 57.3717L4.23662 57.3826V57.8715H4.73662ZM6.12725 57.8403L6.13848 58.3402L6.65911 58.3285L6.62625 57.8087L6.12725 57.8403ZM5.5335 48.4497L6.0325 48.4181L6.00206 47.9367L5.5199 47.9498L5.5335 48.4497ZM4.38506 48.4809H3.88506V48.9947L4.39866 48.9807L4.38506 48.4809ZM4.38506 48.1137L4.37574 47.6138L3.88506 47.623V48.1137H4.38506ZM6.18975 48.0434L6.23245 48.5416L6.2395 48.5409L6.18975 48.0434ZM7.71318 47.7153H8.21318V47.0561L7.57837 47.2338L7.71318 47.7153ZM7.71318 48.145L7.82039 48.6333L8.21318 48.5471V48.145H7.71318ZM6.75225 48.3559L6.64504 47.8675L6.28241 47.9471L6.25374 48.3173L6.75225 48.3559ZM6.54131 53.4418L6.04136 53.435L6.02635 54.5361L6.86523 53.8227L6.54131 53.4418ZM9.27568 50.559L8.86303 50.2767L8.86267 50.2772L9.27568 50.559ZM10.6976 47.7153L11.1714 47.8749L11.2944 47.5098L10.9727 47.2978L10.6976 47.7153ZM10.0101 47.2622L9.59221 46.9876L9.31799 47.4049L9.7349 47.6796L10.0101 47.2622ZM10.1897 46.9887L10.4571 46.5662L10.0418 46.3034L9.77189 46.7141L10.1897 46.9887ZM11.471 47.6684L11.2939 48.1361L11.3024 48.1391L11.471 47.6684ZM12.6038 48.02L13.0266 48.287L13.3887 47.7135L12.7338 47.5372L12.6038 48.02ZM12.4163 48.3168L12.2961 48.8022L12.6464 48.8889L12.8391 48.5838L12.4163 48.3168ZM11.596 48.1137L11.7162 47.6284L11.3604 47.5403L11.1693 47.8531L11.596 48.1137ZM8.221 52.4184L7.87044 52.0619L7.58335 52.3442L7.79791 52.6849L8.221 52.4184ZM9.37725 54.2543L8.95416 54.5208L8.9545 54.5213L9.37725 54.2543ZM10.4319 55.7387L10.047 56.0579L10.0516 56.0633L10.4319 55.7387ZM13.3851 55.4731L12.9773 55.7625L12.9826 55.77L12.9883 55.7773L13.3851 55.4731ZM12.5413 56.0278L12.1023 56.2673L12.1072 56.2759L12.5413 56.0278ZM13.0179 56.2934C12.9963 56.2934 12.9536 56.2897 12.9024 56.2663C12.8484 56.2416 12.8037 56.2035 12.7722 56.1604C12.717 56.0848 12.7288 56.0321 12.7288 56.0825H13.7288C13.7288 55.9401 13.7055 55.743 13.58 55.5709C13.4331 55.3696 13.2154 55.2934 13.0179 55.2934V56.2934ZM12.7288 56.0825C12.7288 56.0126 12.7527 55.9547 12.7781 55.9177C12.7998 55.8863 12.8156 55.8797 12.8001 55.8898L13.3451 56.7283C13.5168 56.6166 13.7288 56.4078 13.7288 56.0825H12.7288ZM12.8153 55.8803C12.8081 55.8846 12.773 55.9028 12.6819 55.9028V56.9028C12.9033 56.9028 13.1287 56.8585 13.3298 56.7378L12.8153 55.8803ZM12.6819 55.9028C12.6524 55.9028 12.5958 55.8942 12.5032 55.8166L11.8606 56.5828C12.091 56.776 12.3677 56.9028 12.6819 56.9028V55.9028ZM12.5094 55.8218C12.472 55.7894 12.4582 55.7669 12.4534 55.7573C12.4495 55.7496 12.4476 55.7429 12.4476 55.7309H11.4476C11.4476 56.0779 11.6089 56.3647 11.8545 56.5775L12.5094 55.8218ZM12.4476 55.7309C12.4476 55.7341 12.447 55.7388 12.4456 55.7438C12.4442 55.7486 12.4431 55.7499 12.4447 55.7472C12.4486 55.7408 12.467 55.7147 12.5216 55.6753L11.9361 54.8646C11.6674 55.0587 11.4476 55.3464 11.4476 55.7309H12.4476ZM12.5235 55.6739C12.6228 55.6015 12.7438 55.559 12.9085 55.559V54.559C12.5524 54.559 12.2203 54.6572 11.9341 54.8661L12.5235 55.6739ZM12.9085 55.559C13.0884 55.559 13.2581 55.6178 13.4314 55.7628L14.0731 54.9959C13.7359 54.7138 13.3431 54.559 12.9085 54.559V55.559ZM13.4352 55.766C13.6078 55.9075 13.6429 56.0203 13.6429 56.1137H14.6429C14.6429 55.6551 14.4175 55.2782 14.0693 54.9927L13.4352 55.766ZM13.6429 56.1137C13.6429 56.2594 13.5874 56.3967 13.3829 56.5433L13.9654 57.3561C14.3858 57.0547 14.6429 56.6347 14.6429 56.1137H13.6429ZM13.3874 56.54C13.1479 56.7077 12.9208 56.7778 12.6976 56.7778V57.7778C13.1514 57.7778 13.5754 57.6291 13.9609 57.3593L13.3874 56.54ZM12.6976 56.7778C11.9666 56.7778 11.2399 56.5282 10.509 55.9919L9.91739 56.7981C10.7906 57.4388 11.7202 57.7778 12.6976 57.7778V56.7778ZM10.5102 55.9928C9.78562 55.4576 8.90537 54.4367 7.87224 52.8767L7.0385 53.4289C8.08871 55.0147 9.047 56.1553 9.91614 56.7972L10.5102 55.9928ZM7.13821 52.7662L6.22415 53.5162L6.85847 54.2893L7.77253 53.5393L7.13821 52.7662ZM6.04133 53.8988L6.01008 57.8207L7.01004 57.8286L7.04129 53.9068L6.04133 53.8988ZM6.51006 58.3247C7.02582 58.3247 7.60761 58.2145 8.24676 58.0123L7.94524 57.0589C7.36564 57.2422 6.89013 57.3247 6.51006 57.3247V58.3247ZM7.596 57.5356V57.9497H8.596V57.5356H7.596ZM7.98799 57.4615C7.43405 57.584 6.88172 57.645 6.33037 57.645V58.645C6.95611 58.645 7.58086 58.5757 8.204 58.4379L7.98799 57.4615ZM6.33037 57.645C6.02671 57.645 5.46304 57.702 4.67181 57.8054L4.80143 58.797C5.60395 58.6921 6.10278 58.645 6.33037 58.645V57.645ZM5.23662 58.3012V57.8715H4.23662V58.3012H5.23662ZM4.74786 58.3714L6.13848 58.3402L6.11601 57.3404L4.72539 57.3717L4.74786 58.3714ZM6.62625 57.8087L6.0325 48.4181L5.03449 48.4812L5.62824 57.8718L6.62625 57.8087ZM5.5199 47.9498L4.37146 47.9811L4.39866 48.9807L5.5471 48.9495L5.5199 47.9498ZM4.88506 48.4809V48.1137H3.88506V48.4809H4.88506ZM4.39437 48.6136C5.23359 48.598 5.84975 48.5744 6.23245 48.5416L6.14705 47.5452C5.80058 47.5749 5.21361 47.5982 4.37574 47.6138L4.39437 48.6136ZM6.2395 48.5409C6.64748 48.5001 7.18822 48.3815 7.848 48.1968L7.57837 47.2338C6.93607 47.4136 6.46118 47.5138 6.14 47.5459L6.2395 48.5409ZM7.21318 47.7153V48.145H8.21318V47.7153H7.21318ZM7.60598 47.6566L6.64504 47.8675L6.85945 48.8443L7.82039 48.6333L7.60598 47.6566ZM6.25374 48.3173C6.13814 49.8095 6.0675 51.5158 6.04136 53.435L7.04126 53.4487C7.0672 51.545 7.13718 49.8606 7.25075 48.3945L6.25374 48.3173ZM6.86523 53.8227C8.10301 52.7701 9.05031 51.7764 9.68869 50.8409L8.86267 50.2772C8.29273 51.1125 7.41711 52.0407 6.21739 53.061L6.86523 53.8227ZM9.68834 50.8414C10.3232 49.9135 10.8179 48.9244 11.1714 47.8749L10.2237 47.5557C9.90009 48.5166 9.44692 49.4233 8.86303 50.2767L9.68834 50.8414ZM10.9727 47.2978L10.2852 46.8447L9.7349 47.6796L10.4224 48.1328L10.9727 47.2978ZM10.4279 47.5368L10.6076 47.2633L9.77189 46.7141L9.59221 46.9876L10.4279 47.5368ZM9.92243 47.4113C10.4457 47.7423 10.9051 47.9887 11.2939 48.136L11.6481 47.2008C11.3494 47.0877 10.9547 46.881 10.4571 46.5662L9.92243 47.4113ZM11.3024 48.1391C11.6656 48.2692 12.0562 48.3904 12.4738 48.5028L12.7338 47.5372C12.3389 47.4308 11.9743 47.3176 11.6396 47.1977L11.3024 48.1391ZM12.1811 47.753L11.9936 48.0499L12.8391 48.5838L13.0266 48.287L12.1811 47.753ZM12.5365 47.8315L11.7162 47.6284L11.4758 48.5991L12.2961 48.8022L12.5365 47.8315ZM11.1693 47.8531C10.1832 49.4676 9.08315 50.8695 7.87044 52.0619L8.57155 52.7749C9.84843 51.5194 10.9983 50.0515 12.0227 48.3743L11.1693 47.8531ZM7.79791 52.6849L8.95416 54.5208L9.80033 53.9879L8.64408 52.152L7.79791 52.6849ZM8.9545 54.5213C9.33714 55.1272 9.70124 55.6407 10.047 56.0578L10.8169 55.4196C10.5064 55.0451 10.1674 54.569 9.79999 53.9874L8.9545 54.5213ZM10.0516 56.0633C10.4142 56.4882 10.814 56.8408 11.2524 57.1155L11.7834 56.2682C11.4405 56.0533 11.1163 55.7705 10.8123 55.4142L10.0516 56.0633ZM11.2524 57.1155C11.7191 57.408 12.2273 57.559 12.7679 57.559V56.559C12.4231 56.559 12.0979 56.4653 11.7834 56.2682L11.2524 57.1155ZM12.7679 57.559C13.1602 57.559 13.4772 57.3636 13.71 57.0782L12.9351 56.4461C12.845 56.5565 12.7923 56.559 12.7679 56.559V57.559ZM13.71 57.0782C13.9473 56.7873 14.0647 56.4427 14.0647 56.0668H13.0647C13.0647 56.2223 13.0207 56.3412 12.9351 56.4461L13.71 57.0782ZM14.0647 56.0668C14.0647 55.7418 13.9821 55.43 13.7819 55.1689L12.9883 55.7773C13.0276 55.8286 13.0647 55.9128 13.0647 56.0668H14.0647ZM13.7928 55.1837C13.5875 54.8944 13.284 54.7309 12.9241 54.7309V55.7309C12.9373 55.7309 12.9447 55.7323 12.9478 55.733C12.9495 55.7334 12.9504 55.7337 12.9507 55.7338C12.9511 55.734 12.9512 55.734 12.9513 55.7341C12.9514 55.7341 12.9518 55.7343 12.9526 55.7349C12.9533 55.7354 12.9547 55.7364 12.9567 55.7383C12.9607 55.7418 12.9678 55.7491 12.9773 55.7625L13.7928 55.1837ZM12.9241 54.7309C12.6943 54.7309 12.4291 54.7851 12.2222 54.9818C12.0105 55.1831 11.9476 55.4493 11.9476 55.684H12.9476C12.9476 55.6509 12.9521 55.643 12.9492 55.6512C12.9476 55.6558 12.9441 55.6642 12.9374 55.6747C12.9307 55.6854 12.9219 55.6964 12.9112 55.7065C12.8887 55.728 12.8693 55.7351 12.8667 55.7359C12.8662 55.736 12.8828 55.7309 12.9241 55.7309V54.7309ZM11.9476 55.684C11.9476 55.8933 12.0054 56.0895 12.1024 56.2672L12.9803 55.7884C12.9522 55.7369 12.9476 55.7039 12.9476 55.684H11.9476ZM12.1072 56.2759C12.2011 56.4403 12.4029 56.6918 12.7522 56.6918V55.6918C12.8397 55.6918 12.9082 55.7253 12.9479 55.7562C12.9809 55.7818 12.9867 55.7994 12.9754 55.7797L12.1072 56.2759ZM12.7522 56.6918C13.0018 56.6918 13.2173 56.5715 13.3519 56.3696C13.4653 56.1994 13.5032 56.0001 13.5163 55.8325L12.5194 55.7543C12.516 55.7977 12.5107 55.8233 12.5074 55.8354C12.5039 55.848 12.505 55.8371 12.5198 55.8149C12.5362 55.7904 12.5675 55.755 12.6183 55.7275C12.6695 55.6997 12.7184 55.6918 12.7522 55.6918V56.6918ZM18.7819 48.9418L18.8641 49.435L19.3984 49.346L19.267 48.8206L18.7819 48.9418ZM18.6882 48.9575L18.2638 49.2218L18.4406 49.5056L18.7704 49.4507L18.6882 48.9575ZM16.9929 48.7465L16.6998 48.3414L16.9929 48.7465ZM16.9382 50.0356L17.2505 49.6452L16.9382 50.0356ZM17.4929 49.2387L17.7549 49.6646L17.7664 49.6575L17.7775 49.6498L17.4929 49.2387ZM17.8679 49.4887L18.3566 49.5941L18.6077 48.4301L17.6009 49.066L17.8679 49.4887ZM17.2741 49.7387L16.8514 50.0057L16.8563 50.0135L16.8615 50.0211L17.2741 49.7387ZM17.3444 49.1528L17.6699 49.5326L17.6799 49.5236L17.3444 49.1528ZM18.2507 50.2231L18.5348 50.6346L18.5368 50.6332L18.2507 50.2231ZM16.7272 50.1293L17.0681 49.7635L16.7272 50.1293ZM19.3444 58.3559V58.8559H19.8444V58.3559H19.3444ZM17.0944 58.4106L17.0335 57.9143L17.0249 57.9155L17.0944 58.4106ZM16.321 58.5434H15.821V59.1619L16.4258 59.0323L16.321 58.5434ZM16.321 58.1137L16.3055 57.614L15.821 57.629V58.1137H16.321ZM17.3288 58.0825L17.3443 58.5822L17.8288 58.5672V58.0825H17.3288ZM16.9772 51.5981L17.4741 51.5416L17.4254 51.1139L16.9953 51.0984L16.9772 51.5981ZM16.1101 51.5668H15.6101V52.0492L16.0921 52.0665L16.1101 51.5668ZM16.1101 51.2778L16.1198 50.7779L15.6101 50.768V51.2778H16.1101ZM18.7194 51.0043H19.2194V50.327L18.5721 50.5265L18.7194 51.0043ZM18.7194 51.3637L18.8382 51.8494L19.2194 51.7562V51.3637H18.7194ZM18.0163 51.5356L17.8976 51.0499L17.5412 51.137L17.5174 51.5031L18.0163 51.5356ZM17.8522 54.0512L17.3532 54.0187L17.3528 54.0276L17.8522 54.0512ZM17.6647 58.02L17.1653 57.9964L17.1406 58.52H17.6647V58.02ZM19.3444 57.9184H19.8444V57.3499L19.2806 57.4225L19.3444 57.9184ZM18.6997 48.4487L18.606 48.4643L18.7704 49.4507L18.8641 49.435L18.6997 48.4487ZM19.1126 48.6931C18.8186 48.2213 18.3595 47.9809 17.8054 47.9809V48.9809C18.0325 48.9809 18.1619 49.0583 18.2638 49.2218L19.1126 48.6931ZM17.8054 47.9809C17.4013 47.9809 17.0283 48.1038 16.6998 48.3414L17.2859 49.1516C17.4471 49.0351 17.6157 48.9809 17.8054 48.9809V47.9809ZM16.6998 48.3414C16.3666 48.5825 16.1257 48.9238 16.1257 49.3637H17.1257C17.1257 49.3349 17.1296 49.2647 17.2859 49.1516L16.6998 48.3414ZM16.1257 49.3637C16.1257 49.7874 16.2917 50.1587 16.6258 50.426L17.2505 49.6452C17.168 49.5792 17.1257 49.5026 17.1257 49.3637H16.1257ZM16.6258 50.426C16.8921 50.639 17.2021 50.7856 17.5476 50.7856V49.7856C17.4971 49.7856 17.401 49.7655 17.2505 49.6452L16.6258 50.426ZM17.5476 50.7856C17.8081 50.7856 18.097 50.7295 18.3235 50.5298C18.5621 50.3195 18.6413 50.0312 18.6413 49.7622H17.6413C17.6413 49.8034 17.6353 49.8174 17.6365 49.8143C17.6388 49.8083 17.6468 49.7932 17.6622 49.7797C17.6762 49.7673 17.6825 49.7684 17.6664 49.7732C17.6486 49.7784 17.6114 49.7856 17.5476 49.7856V50.7856ZM18.6413 49.7622C18.6413 49.5134 18.5954 49.2348 18.421 49.0102C18.228 48.7616 17.9497 48.6684 17.6804 48.6684V49.6684C17.7042 49.6684 17.7018 49.6723 17.6848 49.665C17.6762 49.6613 17.6659 49.6556 17.6555 49.6475C17.6451 49.6395 17.6369 49.631 17.6311 49.6235C17.6196 49.6086 17.6226 49.6049 17.6284 49.6277C17.6345 49.6511 17.6413 49.6939 17.6413 49.7622H18.6413ZM17.6804 48.6684C17.4858 48.6684 17.3246 48.7471 17.2083 48.8276L17.7775 49.6498C17.785 49.6446 17.7811 49.6485 17.7661 49.6542C17.7503 49.6601 17.7207 49.6684 17.6804 49.6684V48.6684ZM17.2308 48.8129C17.0613 48.9172 16.8913 49.1109 16.8913 49.395H17.8913C17.8913 49.4598 17.8721 49.5259 17.8359 49.5815C17.8028 49.6325 17.7671 49.657 17.7549 49.6646L17.2308 48.8129ZM16.8913 49.395C16.8913 49.5621 16.9463 49.7695 17.1292 49.9208C17.2939 50.0571 17.4859 50.0825 17.6179 50.0825V49.0825C17.5988 49.0825 17.6775 49.0766 17.7667 49.1504C17.874 49.2392 17.8913 49.3529 17.8913 49.395H16.8913ZM17.6179 50.0825C17.8264 50.0825 18.0072 49.9921 18.1349 49.9115L17.6009 49.066C17.5869 49.0748 17.5759 49.081 17.5679 49.0851C17.564 49.0871 17.5609 49.0886 17.5588 49.0895C17.5578 49.09 17.557 49.0903 17.5564 49.0905C17.5561 49.0907 17.5559 49.0907 17.5558 49.0908C17.5557 49.0908 17.5556 49.0909 17.5556 49.0909C17.5556 49.0909 17.5557 49.0908 17.5558 49.0908C17.556 49.0907 17.5562 49.0907 17.5565 49.0906C17.557 49.0904 17.5579 49.0901 17.5591 49.0897C17.5615 49.089 17.5652 49.088 17.5703 49.087C17.5802 49.0849 17.5965 49.0825 17.6179 49.0825V50.0825ZM17.3791 49.3833C17.3705 49.4232 17.3619 49.4465 17.3569 49.4575C17.352 49.4683 17.353 49.4622 17.3654 49.4487C17.3791 49.4338 17.4016 49.4158 17.4321 49.4027C17.4623 49.3898 17.4875 49.3872 17.5007 49.3872V50.3872C17.7281 50.3872 17.9409 50.2999 18.1008 50.1264C18.2455 49.9693 18.318 49.7734 18.3566 49.5941L17.3791 49.3833ZM17.5007 49.3872C17.5645 49.3872 17.619 49.4079 17.6556 49.4318C17.6872 49.4525 17.6952 49.4687 17.6868 49.4564L16.8615 50.0211C16.9785 50.1922 17.1875 50.3872 17.5007 50.3872V49.3872ZM17.6969 49.4717C17.688 49.4577 17.6819 49.4468 17.6777 49.4388C17.6757 49.4348 17.6743 49.4318 17.6733 49.4297C17.6729 49.4286 17.6725 49.4278 17.6723 49.4273C17.6722 49.427 17.6721 49.4268 17.6721 49.4266C17.672 49.4265 17.672 49.4264 17.672 49.4264C17.672 49.4264 17.672 49.4265 17.6721 49.4267C17.6721 49.4268 17.6722 49.427 17.6723 49.4273C17.6725 49.4279 17.6728 49.4288 17.6731 49.43C17.6738 49.4323 17.6748 49.4361 17.6759 49.4411C17.6779 49.4511 17.6804 49.4673 17.6804 49.4887H16.6804C16.6804 49.6973 16.7708 49.8781 16.8514 50.0057L17.6969 49.4717ZM17.6804 49.4887C17.6804 49.4914 17.6801 49.497 17.6783 49.5046C17.6766 49.5123 17.6739 49.5198 17.6707 49.5265C17.6638 49.5406 17.6589 49.5418 17.6698 49.5324L17.019 48.7732C16.8121 48.9505 16.6804 49.1959 16.6804 49.4887H17.6804ZM17.6799 49.5236C17.6915 49.513 17.7026 49.5043 17.7429 49.5043V48.5043C17.4707 48.5043 17.2161 48.5946 17.009 48.782L17.6799 49.5236ZM17.7429 49.5043C17.8536 49.5043 17.9521 49.5331 18.0494 49.596L18.5926 48.7564C18.3357 48.5902 18.0488 48.5043 17.7429 48.5043V49.5043ZM18.0494 49.596C18.0646 49.6059 18.0729 49.6135 18.0769 49.6176C18.0807 49.6216 18.0817 49.6236 18.0818 49.6237C18.0819 49.6238 18.0827 49.6252 18.0838 49.6296C18.0849 49.6342 18.0866 49.644 18.0866 49.6606H19.0866C19.0866 49.2801 18.91 48.9618 18.5926 48.7564L18.0494 49.596ZM18.0866 49.6606C18.0866 49.675 18.0919 49.7242 17.9646 49.813L18.5368 50.6332C18.8573 50.4095 19.0866 50.0837 19.0866 49.6606H18.0866ZM17.9666 49.8117C17.8295 49.9063 17.6886 49.9497 17.5319 49.9497V50.9497C17.8961 50.9497 18.2344 50.842 18.5348 50.6345L17.9666 49.8117ZM17.5319 49.9497C17.3538 49.9497 17.2067 49.8927 17.0681 49.7635L16.3864 50.4952C16.7061 50.7931 17.0954 50.9497 17.5319 50.9497V49.9497ZM17.0681 49.7635C16.9439 49.6478 16.8835 49.5137 16.8835 49.3247H15.8835C15.8835 49.7815 16.0522 50.1838 16.3864 50.4952L17.0681 49.7635ZM16.8835 49.3247C16.8835 49.1176 16.9519 48.9375 17.1108 48.7648L16.3749 48.0877C16.0546 48.4358 15.8835 48.8546 15.8835 49.3247H16.8835ZM17.1108 48.7648C17.2841 48.5765 17.4171 48.5356 17.5163 48.5356V47.5356C17.0635 47.5356 16.6808 47.7552 16.3749 48.0877L17.1108 48.7648ZM17.5163 48.5356C17.7928 48.5356 17.9594 48.5958 18.0612 48.6687C18.1572 48.7375 18.2441 48.852 18.2969 49.0631L19.267 48.8206C19.1687 48.4275 18.9692 48.0889 18.6433 47.8556C18.3232 47.6264 17.9325 47.5356 17.5163 47.5356V48.5356ZM19.3444 57.8559C18.1529 57.8559 17.3676 57.8733 17.0335 57.9143L17.1554 58.9069C17.415 58.875 18.1297 58.8559 19.3444 58.8559V57.8559ZM17.0249 57.9155C16.7199 57.9583 16.4498 58.0045 16.2162 58.0545L16.4258 59.0323C16.6297 58.9886 16.8752 58.9463 17.1639 58.9057L17.0249 57.9155ZM16.821 58.5434V58.1137H15.821V58.5434H16.821ZM16.3365 58.6135L17.3443 58.5822L17.3133 57.5827L16.3055 57.614L16.3365 58.6135ZM17.8288 58.0825C17.8288 55.8048 17.7107 53.6245 17.4741 51.5416L16.4804 51.6546C16.7125 53.6967 16.8288 55.8393 16.8288 58.0825H17.8288ZM16.9953 51.0984L16.1281 51.0672L16.0921 52.0665L16.9592 52.0978L16.9953 51.0984ZM16.6101 51.5668V51.2778H15.6101V51.5668H16.6101ZM16.1004 51.7777C16.6366 51.7881 17.0135 51.7934 17.2272 51.7934V50.7934C17.0244 50.7934 16.6565 50.7883 16.1198 50.7779L16.1004 51.7777ZM17.2272 51.7934C17.6712 51.7934 18.2247 51.6801 18.8668 51.4822L18.5721 50.5265C17.9642 50.714 17.5228 50.7934 17.2272 50.7934V51.7934ZM18.2194 51.0043V51.3637H19.2194V51.0043H18.2194ZM18.6007 50.878L17.8976 51.0499L18.135 52.0213L18.8382 51.8494L18.6007 50.878ZM17.5174 51.5031L17.3533 54.0187L18.3512 54.0838L18.5152 51.5681L17.5174 51.5031ZM17.3528 54.0276L17.1653 57.9964L18.1642 58.0436L18.3517 54.0748L17.3528 54.0276ZM17.6647 58.52C18.2774 58.52 18.8587 58.4851 19.4083 58.4143L19.2806 57.4225C18.7781 57.4872 18.2396 57.52 17.6647 57.52V58.52ZM18.8444 57.9184V58.3559H19.8444V57.9184H18.8444ZM25.6632 50.6528L25.7532 51.1446L26.2755 51.0491L26.1487 50.5334L25.6632 50.6528ZM24.6007 50.8247L24.6569 51.3216L24.665 51.3205L24.6007 50.8247ZM23.3897 51.1215L23.2401 50.6445L22.9176 50.7456L22.8913 51.0826L23.3897 51.1215ZM22.9288 53.5825L23.4175 53.688L23.4176 53.6876L22.9288 53.5825ZM22.8663 57.5903L22.4671 57.8913L22.4702 57.8955L22.8663 57.5903ZM24.6397 57.6372L24.2123 57.3777L24.211 57.3799L24.6397 57.6372ZM24.3663 56.2231L24.6437 55.8071L24.07 55.4247L23.8847 56.0887L24.3663 56.2231ZM24.4601 56.2856H24.9601V56.018L24.7374 55.8696L24.4601 56.2856ZM24.3194 56.6918L23.9398 56.3665L23.9385 56.368L24.3194 56.6918ZM23.5382 56.684L23.236 57.0824L23.2436 57.0882L23.2515 57.0937L23.5382 56.684ZM23.6007 55.6606L23.9335 56.0337L23.9341 56.0332L23.6007 55.6606ZM25.0851 55.6918L24.7973 56.1008L24.8008 56.1032L25.0851 55.6918ZM25.0616 57.6918L25.4664 57.9853L25.4681 57.9829L25.0616 57.6918ZM22.5694 57.7543L22.2061 58.0978L22.2084 58.1003L22.5694 57.7543ZM22.2101 53.7778L21.7122 53.7317L21.712 53.7334L22.2101 53.7778ZM22.3819 51.4262L22.8814 51.4024L22.8513 50.7716L22.2442 50.9456L22.3819 51.4262ZM20.9366 51.8403H20.4366V52.5036L21.0743 52.321L20.9366 51.8403ZM20.9366 51.4106L20.8234 50.9236L20.4366 51.0135V51.4106H20.9366ZM22.3819 51.0747L22.4951 51.5617L22.8562 51.4778L22.8808 51.1079L22.3819 51.0747ZM22.2647 48.7231L22.1816 48.2301L21.6966 48.3118L21.7704 48.7981L22.2647 48.7231ZM23.6085 48.4965L24.1084 48.4845L24.0945 47.9075L23.5254 48.0035L23.6085 48.4965ZM23.421 50.7543L22.9276 50.6731L22.7949 51.4797L23.5734 51.2306L23.421 50.7543ZM24.7413 50.3793L24.8308 50.8714L24.8415 50.8692L24.7413 50.3793ZM25.546 50.1762L26.0315 50.0568L25.9073 49.5518L25.4076 49.6958L25.546 50.1762ZM25.5732 50.1609C25.1507 50.2382 24.8058 50.2939 24.5364 50.3288L24.665 51.3205C24.958 51.2825 25.3215 51.2236 25.7532 51.1446L25.5732 50.1609ZM24.5444 50.3278C24.2189 50.3647 23.7779 50.4757 23.2401 50.6445L23.5394 51.5986C24.0641 51.434 24.4304 51.3471 24.6569 51.3215L24.5444 50.3278ZM22.8913 51.0826C22.8684 51.3749 22.7239 52.1577 22.44 53.4773L23.4176 53.6876C23.6962 52.3927 23.859 51.5348 23.8882 51.1605L22.8913 51.0826ZM22.4401 53.4769C22.1605 54.7713 22.0069 55.7029 22.0069 56.2231H23.0069C23.0069 55.8266 23.1346 54.9978 23.4175 53.688L22.4401 53.4769ZM22.0069 56.2231C22.0069 56.8745 22.1369 57.4535 22.4671 57.8913L23.2655 57.2892C23.1165 57.0916 23.0069 56.7592 23.0069 56.2231H22.0069ZM22.4702 57.8955C22.8204 58.3499 23.3182 58.5668 23.8976 58.5668V57.5668C23.5915 57.5668 23.4018 57.466 23.2624 57.2851L22.4702 57.8955ZM23.8976 58.5668C24.4034 58.5668 24.8101 58.3251 25.0685 57.8944L24.211 57.3799C24.1257 57.5221 24.0375 57.5668 23.8976 57.5668V58.5668ZM25.0671 57.8967C25.3054 57.5043 25.4054 57.0316 25.4054 56.5122H24.4054C24.4054 56.9094 24.3283 57.1867 24.2124 57.3777L25.0671 57.8967ZM25.4054 56.5122C25.4054 56.2126 25.2988 55.9353 25.1339 55.6879L24.3018 56.2426C24.387 56.3703 24.4054 56.4576 24.4054 56.5122H25.4054ZM25.1339 55.6879C24.9646 55.4339 24.6937 55.184 24.3038 55.184V56.184C24.2889 56.184 24.2738 56.1816 24.2604 56.1772C24.2474 56.173 24.2404 56.1685 24.2397 56.168C24.2392 56.1677 24.2452 56.1716 24.2565 56.1838C24.2679 56.1959 24.2833 56.2148 24.3018 56.2426L25.1339 55.6879ZM24.3038 55.184C23.9713 55.184 23.7145 55.3599 23.5546 55.6098L24.3968 56.1489C24.4054 56.1354 24.4009 56.1476 24.376 56.1625C24.3638 56.1698 24.35 56.1756 24.3356 56.1794C24.3215 56.1832 24.3104 56.184 24.3038 56.184V55.184ZM23.5546 55.6098C23.4141 55.8293 23.3507 56.0761 23.3507 56.3325H24.3507C24.3507 56.2451 24.3706 56.1898 24.3968 56.1489L23.5546 55.6098ZM23.3507 56.3325C23.3507 56.4765 23.3835 56.6777 23.5375 56.8431C23.6977 57.0152 23.9047 57.059 24.0616 57.059V56.059C24.0779 56.059 24.1794 56.0651 24.2694 56.1617C24.3101 56.2054 24.3313 56.2507 24.3414 56.2834C24.3463 56.2992 24.3486 56.3117 24.3496 56.3197C24.3507 56.3276 24.3507 56.3321 24.3507 56.3325H23.3507ZM24.0616 57.059C24.2845 57.059 24.4761 56.9626 24.6136 56.811C24.7373 56.6746 24.806 56.5078 24.8479 56.3575L23.8847 56.0887C23.8754 56.1222 23.8672 56.1416 23.8628 56.1507C23.8583 56.1599 23.8602 56.1532 23.8729 56.1391C23.8866 56.1241 23.9117 56.1019 23.9499 56.0842C23.989 56.0662 24.0283 56.059 24.0616 56.059V57.059ZM24.089 56.6391L24.1827 56.7016L24.7374 55.8696L24.6437 55.8071L24.089 56.6391ZM23.9601 56.2856C23.9601 56.3431 23.9464 56.3587 23.9398 56.3665L24.6991 57.0172C24.88 56.8062 24.9601 56.551 24.9601 56.2856H23.9601ZM23.9385 56.368C23.9247 56.3842 23.925 56.3789 23.943 56.3692C23.964 56.3579 23.9951 56.3481 24.0304 56.3481V57.3481C24.3239 57.3481 24.5485 57.1943 24.7004 57.0157L23.9385 56.368ZM24.0304 56.3481C23.9722 56.3481 23.9068 56.3317 23.8249 56.2744L23.2515 57.0937C23.4821 57.2551 23.7448 57.3481 24.0304 57.3481V56.3481ZM23.8404 56.2857C23.8132 56.2651 23.8089 56.2543 23.8105 56.2575C23.8111 56.2586 23.8117 56.2602 23.812 56.2613C23.8123 56.2624 23.8116 56.2604 23.8116 56.2543H22.8116C22.8116 56.6003 22.9751 56.8845 23.236 57.0824L23.8404 56.2857ZM23.8116 56.2543C23.8116 56.1953 23.8292 56.1268 23.9335 56.0337L23.2679 55.2875C22.9868 55.5382 22.8116 55.8654 22.8116 56.2543H23.8116ZM23.9341 56.0332C24.0583 55.9221 24.1547 55.895 24.2335 55.895V54.895C23.8643 54.895 23.5389 55.045 23.2673 55.288L23.9341 56.0332ZM24.2335 55.895C24.3977 55.895 24.5831 55.95 24.7973 56.1008L25.3728 55.2829C25.0246 55.0379 24.6422 54.895 24.2335 54.895V55.895ZM24.8008 56.1032C24.9116 56.1797 24.9685 56.2408 24.9953 56.2798C25.0079 56.2982 25.0124 56.3095 25.0138 56.3137C25.0146 56.3159 25.0147 56.317 25.0148 56.317C25.0148 56.3171 25.0148 56.3171 25.0148 56.317C25.0147 56.3169 25.0147 56.3168 25.0147 56.3168H26.0147C26.0147 55.8545 25.7088 55.5151 25.3693 55.2805L24.8008 56.1032ZM25.0147 56.3168C25.0147 56.702 24.8995 57.0594 24.6551 57.4008L25.4681 57.9829C25.8279 57.4806 26.0147 56.9213 26.0147 56.3168H25.0147ZM24.6568 57.3984C24.4177 57.7282 24.2039 57.8168 24.0147 57.8168V58.8168C24.6173 58.8168 25.1014 58.4888 25.4664 57.9853L24.6568 57.3984ZM24.0147 57.8168C23.5227 57.8168 23.18 57.6688 22.9304 57.4084L22.2084 58.1003C22.6777 58.5899 23.2985 58.8168 24.0147 58.8168V57.8168ZM22.9328 57.4109C22.677 57.1403 22.5304 56.7715 22.5304 56.2543H21.5304C21.5304 56.9767 21.7431 57.608 22.2061 58.0978L22.9328 57.4109ZM22.5304 56.2543C22.5304 55.9747 22.5874 55.1756 22.7081 53.8222L21.712 53.7334C21.5931 55.0675 21.5304 55.9194 21.5304 56.2543H22.5304ZM22.7079 53.8239C22.7705 53.1482 22.8165 52.6113 22.8454 52.2146C22.8734 51.8317 22.8883 51.5482 22.8814 51.4024L21.8825 51.45C21.886 51.523 21.8774 51.7408 21.8481 52.1417C21.8198 52.5289 21.7746 53.0585 21.7122 53.7317L22.7079 53.8239ZM22.2442 50.9456L20.7989 51.3596L21.0743 52.321L22.5196 51.9069L22.2442 50.9456ZM21.4366 51.8403V51.4106H20.4366V51.8403H21.4366ZM21.0498 51.8976L22.4951 51.5617L22.2687 50.5876L20.8234 50.9236L21.0498 51.8976ZM22.8808 51.1079C22.8922 50.9377 22.8976 50.7438 22.8976 50.5278H21.8976C21.8976 50.7284 21.8925 50.8991 21.883 51.0414L22.8808 51.1079ZM22.8976 50.5278C22.8976 49.8841 22.8516 49.2574 22.7591 48.6481L21.7704 48.7981C21.855 49.3554 21.8976 49.9319 21.8976 50.5278H22.8976ZM22.3479 49.2161L23.6916 48.9896L23.5254 48.0035L22.1816 48.2301L22.3479 49.2161ZM23.1086 48.5085C23.1233 49.1201 23.0647 49.8404 22.9276 50.6731L23.9144 50.8356C24.0585 49.96 24.1249 49.175 24.1084 48.4845L23.1086 48.5085ZM23.5734 51.2306C24.2291 51.0207 24.6387 50.9062 24.8308 50.8713L24.6519 49.8874C24.3856 49.9358 23.9149 50.0713 23.2686 50.2781L23.5734 51.2306ZM24.8415 50.8692C25.0872 50.8189 25.3687 50.7476 25.6844 50.6567L25.4076 49.6958C25.1087 49.7819 24.8537 49.846 24.6411 49.8895L24.8415 50.8692ZM25.0605 50.2956L25.1776 50.7722L26.1487 50.5334L26.0315 50.0568L25.0605 50.2956ZM32.3257 57.7934L32.4553 58.2763L33.0716 58.1108L32.7636 57.552L32.3257 57.7934ZM28.7319 56.8715L28.3381 57.1796L28.7319 56.8715ZM28.9272 51.6762L29.2833 52.0273L29.2845 52.026L28.9272 51.6762ZM32.7241 50.9653L32.4632 51.3918L32.4669 51.394L32.7241 50.9653ZM32.9429 52.8168L32.5957 52.457L32.5925 52.4601L32.9429 52.8168ZM31.2085 53.0122L30.9248 53.424L30.9311 53.4282L31.2085 53.0122ZM31.0835 51.8325L31.41 52.2113L31.4173 52.2048L31.0835 51.8325ZM32.1069 51.7465L31.8338 52.1653L31.8442 52.1721L31.855 52.1784L32.1069 51.7465ZM32.146 52.2622L32.453 52.6568L32.4558 52.6546L32.146 52.2622ZM31.7866 52.3715L31.3081 52.2265L31.1127 52.8715H31.7866V52.3715ZM31.3726 52.0043L30.9565 51.727L30.9519 51.734L30.9474 51.7412L31.3726 52.0043ZM32.4819 52.6762L32.1038 52.3491L32.103 52.35L32.4819 52.6762ZM32.3179 51.1606L31.9948 51.5424L32.0029 51.5489L32.3179 51.1606ZM29.6304 51.9184L29.2103 51.6473L29.6304 51.9184ZM29.4741 56.6997L29.0288 56.9271L29.0295 56.9284L29.4741 56.6997ZM31.9897 57.184L32.4276 56.9426L32.0004 56.1677L31.557 56.9335L31.9897 57.184ZM32.196 57.3105C31.6538 57.4561 31.2378 57.52 30.9351 57.52V58.52C31.3615 58.52 31.8725 58.4328 32.4553 58.2763L32.196 57.3105ZM30.9351 57.52C30.2386 57.52 29.6426 57.2242 29.1257 56.5635L28.3381 57.1796C29.0191 58.0501 29.892 58.52 30.9351 58.52V57.52ZM29.1257 56.5635C28.5992 55.8904 28.3335 55.107 28.3335 54.1918H27.3335C27.3335 55.3183 27.6667 56.3214 28.3381 57.1796L29.1257 56.5635ZM28.3335 54.1918C28.3335 53.4005 28.6355 52.6843 29.2833 52.0273L28.5712 51.3252C27.7607 52.1473 27.3335 53.1082 27.3335 54.1918H28.3335ZM29.2845 52.026C29.9318 51.3648 30.6381 51.059 31.4194 51.059V50.059C30.3362 50.059 29.381 50.498 28.57 51.3264L29.2845 52.026ZM31.4194 51.059C31.7364 51.059 32.0821 51.1587 32.4632 51.3918L32.9851 50.5388C32.4807 50.2302 31.9566 50.059 31.4194 50.059V51.059ZM32.4669 51.394C32.8253 51.6091 32.8882 51.7898 32.8882 51.9184H33.8882C33.8882 51.3075 33.5084 50.8528 32.9814 50.5365L32.4669 51.394ZM32.8882 51.9184C32.8882 52.0558 32.8275 52.2334 32.5957 52.457L33.2901 53.1767C33.652 52.8274 33.8882 52.4061 33.8882 51.9184H32.8882ZM32.5925 52.4601C32.3719 52.6768 32.1792 52.7465 32.0054 52.7465V53.7465C32.4982 53.7465 32.9305 53.5298 33.2932 53.1736L32.5925 52.4601ZM32.0054 52.7465C31.8016 52.7465 31.6335 52.6946 31.4858 52.5961L30.9311 53.4282C31.2522 53.6422 31.6154 53.7465 32.0054 53.7465V52.7465ZM31.4921 52.6004C31.375 52.5197 31.3569 52.4569 31.3569 52.3872H30.3569C30.3569 52.8278 30.5732 53.1817 30.9248 53.4239L31.4921 52.6004ZM31.3569 52.3872C31.3569 52.2609 31.3913 52.2273 31.41 52.2112L30.757 51.4538C30.4736 51.6981 30.3569 52.0342 30.3569 52.3872H31.3569ZM31.4173 52.2048C31.4529 52.1728 31.5275 52.1293 31.7007 52.1293V51.1293C31.3531 51.1293 31.0162 51.2213 30.7497 51.4602L31.4173 52.2048ZM31.7007 52.1293C31.7605 52.1293 31.7999 52.1432 31.8338 52.1653L32.3801 51.3277C32.1744 51.1936 31.943 51.1293 31.7007 51.1293V52.1293ZM31.855 52.1784C31.8671 52.1855 31.849 52.1779 31.8281 52.1456C31.8044 52.1091 31.7944 52.0679 31.7944 52.0356H32.7944C32.7944 51.6984 32.5999 51.4552 32.3589 51.3146L31.855 52.1784ZM31.7944 52.0356C31.7944 51.9538 31.8232 51.8971 31.8391 51.8729C31.853 51.8517 31.8588 51.8518 31.8362 51.8697L32.4558 52.6546C32.5903 52.5484 32.7944 52.344 32.7944 52.0356H31.7944ZM31.839 51.8675C31.8196 51.8826 31.8128 51.8843 31.8189 51.8819C31.8261 51.8789 31.8477 51.8715 31.8804 51.8715V52.8715C32.1135 52.8715 32.3078 52.7698 32.453 52.6568L31.839 51.8675ZM31.8804 51.8715H31.7866V52.8715H31.8804V51.8715ZM32.2651 52.5165C32.2928 52.4252 32.3157 52.3427 32.3322 52.2719C32.3461 52.2123 32.3647 52.1233 32.3647 52.0356H31.3647C31.3647 52.0117 31.3673 51.9996 31.366 52.0075C31.3652 52.0128 31.363 52.0249 31.3582 52.0454C31.3486 52.0865 31.3325 52.146 31.3081 52.2265L32.2651 52.5165ZM32.3647 52.0356C32.3647 51.8615 32.3055 51.6511 32.1181 51.4999C31.9512 51.3653 31.7574 51.3403 31.6226 51.3403V52.3403C31.6492 52.3403 31.5765 52.3478 31.4903 52.2783C31.444 52.241 31.4088 52.1926 31.3875 52.1411C31.3675 52.0927 31.3647 52.0538 31.3647 52.0356H32.3647ZM31.6226 51.3403C31.2998 51.3403 31.0816 51.5394 30.9565 51.727L31.7886 52.2817C31.799 52.266 31.7935 52.28 31.7641 52.2993C31.7297 52.3219 31.6794 52.3403 31.6226 52.3403V51.3403ZM30.9474 51.7412C30.8395 51.9155 30.771 52.1148 30.771 52.3325H31.771C31.771 52.3314 31.7702 52.312 31.7977 52.2675L30.9474 51.7412ZM30.771 52.3325C30.771 52.6086 30.834 52.9089 31.0485 53.1407C31.2697 53.3799 31.5689 53.4575 31.8491 53.4575V52.4575C31.7965 52.4575 31.7718 52.4502 31.7657 52.448C31.7624 52.4468 31.7719 52.4502 31.7826 52.4617C31.8043 52.4852 31.771 52.473 31.771 52.3325H30.771ZM31.8491 53.4575C32.2464 53.4575 32.5988 53.3067 32.8608 53.0025L32.103 52.35C32.0421 52.4207 31.9727 52.4575 31.8491 52.4575V53.4575ZM32.8601 53.0033C33.1106 52.7137 33.2319 52.3636 33.2319 51.9809H32.2319C32.2319 52.1398 32.1866 52.2533 32.1038 52.3491L32.8601 53.0033ZM33.2319 51.9809C33.2319 51.4908 33.0125 51.0803 32.6329 50.7723L32.0029 51.5489C32.1753 51.6888 32.2319 51.8252 32.2319 51.9809H33.2319ZM32.6408 50.7789C32.2844 50.4773 31.8666 50.3168 31.4038 50.3168V51.3168C31.6181 51.3168 31.8096 51.3855 31.9949 51.5423L32.6408 50.7789ZM31.4038 50.3168C30.4847 50.3168 29.7516 50.8085 29.2103 51.6473L30.0505 52.1895C30.457 51.5596 30.9063 51.3168 31.4038 51.3168V50.3168ZM29.2103 51.6473C28.6875 52.4572 28.4194 53.3292 28.4194 54.2543H29.4194C29.4194 53.5337 29.6253 52.8484 30.0505 52.1895L29.2103 51.6473ZM28.4194 54.2543C28.4194 55.2305 28.6191 56.125 29.0288 56.9271L29.9194 56.4722C29.5895 55.8264 29.4194 55.0907 29.4194 54.2543H28.4194ZM29.0295 56.9284C29.4514 57.7483 30.0799 58.2778 30.9351 58.2778V57.2778C30.5818 57.2778 30.2365 57.0885 29.9187 56.4709L29.0295 56.9284ZM30.9351 58.2778C31.5795 58.2778 32.1 57.9916 32.4225 57.4346L31.557 56.9335C31.4212 57.1682 31.2386 57.2778 30.9351 57.2778V58.2778ZM31.5519 57.4254L31.8878 58.0348L32.7636 57.552L32.4276 56.9426L31.5519 57.4254ZM41.1991 57.8403L41.2361 58.3389L42.3243 58.2583L41.5527 57.4867L41.1991 57.8403ZM40.9882 57.0668L41.3125 57.4476L41.3204 57.4406L40.9882 57.0668ZM41.7929 58.6372L41.4174 58.307L41.4142 58.3107L41.7929 58.6372ZM40.2226 58.6762L40.6109 58.3612L40.6079 58.3576L40.2226 58.6762ZM37.6366 52.4809L37.2525 52.1608L37.2503 52.1635L37.6366 52.4809ZM37.0976 53.5043H36.5974L36.5977 53.5173L37.0976 53.5043ZM37.2304 58.3325L36.7306 58.347L36.7455 58.8592L37.2571 58.8318L37.2304 58.3325ZM38.3944 58.3168L38.8931 58.3538L38.9324 57.8226L38.3998 57.8169L38.3944 58.3168ZM38.3632 58.7387L38.3099 59.2359L38.8236 59.2909L38.8618 58.7757L38.3632 58.7387ZM35.5507 58.8012L35.0511 58.8225L35.0755 59.3945L35.639 59.2934L35.5507 58.8012ZM35.5351 58.434V57.934H35.0133L35.0355 58.4553L35.5351 58.434ZM36.8319 58.3715L36.8912 58.868L37.3177 58.8171L37.3317 58.3877L36.8319 58.3715ZM36.4179 53.02L35.9212 53.0775L35.9213 53.0786L36.4179 53.02ZM35.4335 46.8325L35.9204 46.7187L35.8141 46.2639L35.3532 46.339L35.4335 46.8325ZM34.3319 46.9262L33.8325 46.9506L33.8569 47.4511L34.3574 47.4256L34.3319 46.9262ZM34.3163 46.6059L34.3126 46.1059L33.7915 46.1098L33.8169 46.6303L34.3163 46.6059ZM37.5819 46.1762L38.0813 46.1506L38.0519 45.5772L37.4879 45.6851L37.5819 46.1762ZM37.5976 46.4809L37.6969 46.9709L38.119 46.8854L38.0969 46.4553L37.5976 46.4809ZM36.6679 46.6528L36.591 46.1587L36.109 46.2337L36.1721 46.7175L36.6679 46.6528ZM36.8788 49.3559L36.3795 49.3819L36.3795 49.3827L36.8788 49.3559ZM37.0663 52.8481L36.567 52.8749L37.5208 53.0564L37.0663 52.8481ZM38.0351 51.6528L38.3252 52.06L38.3285 52.0576L38.0351 51.6528ZM41.0429 51.9575L40.6687 52.2892L40.6724 52.2932L41.0429 51.9575ZM40.746 56.184L40.3324 55.9031L40.3311 55.9049L40.746 56.184ZM40.3241 56.9028L39.8697 56.694L39.8672 56.6997L40.3241 56.9028ZM40.5897 58.309L40.8304 57.8707L40.8273 57.8691L40.5897 58.309ZM41.6757 58.3559L41.2971 58.029L41.2887 58.0393L41.6757 58.3559ZM41.6757 57.3793L41.2367 57.6188L41.2411 57.6268L41.2458 57.6346L41.6757 57.3793ZM41.1622 57.3417C41.0942 57.3467 41.151 57.3252 41.2224 57.3914C41.2558 57.4223 41.2712 57.4543 41.2767 57.4706C41.2813 57.4839 41.2772 57.4803 41.2772 57.4497H40.2772C40.2772 57.6639 40.3306 57.9285 40.543 58.1251C40.7551 58.3215 41.0227 58.3547 41.2361 58.3389L41.1622 57.3417ZM41.2772 57.4497C41.2772 57.4596 41.2759 57.4697 41.2735 57.4787C41.2711 57.4875 41.2685 57.4926 41.2679 57.4937C41.2672 57.4949 41.2763 57.4782 41.3124 57.4475L40.6639 56.6862C40.4545 56.8646 40.2772 57.1197 40.2772 57.4497H41.2772ZM41.3204 57.4406C41.3928 57.3761 41.4251 57.3793 41.4257 57.3793V56.3793C41.1242 56.3793 40.8648 56.5076 40.656 56.6931L41.3204 57.4406ZM41.4257 57.3793C41.413 57.3793 41.4275 57.3777 41.4806 57.393C41.5303 57.4073 41.5982 57.4319 41.6868 57.4705L42.0864 56.5538C41.8755 56.4619 41.6404 56.3793 41.4257 56.3793V57.3793ZM41.6868 57.4705C41.6979 57.4753 41.6998 57.4778 41.6969 57.4754C41.6937 57.4726 41.6895 57.468 41.6864 57.4628C41.6796 57.4515 41.6913 57.4618 41.6913 57.52H42.6913C42.6913 57.3282 42.6522 57.1288 42.5439 56.9483C42.4331 56.7637 42.2712 56.6343 42.0864 56.5538L41.6868 57.4705ZM41.6913 57.52C41.6913 57.8543 41.5945 58.1056 41.4174 58.307L42.1684 58.9673C42.5225 58.5646 42.6913 58.071 42.6913 57.52H41.6913ZM41.4142 58.3107C41.2301 58.5242 41.0612 58.5903 40.8944 58.5903V59.5903C41.4048 59.5903 41.8348 59.3542 42.1716 58.9636L41.4142 58.3107ZM40.8944 58.5903C40.8916 58.5903 40.7955 58.5888 40.6108 58.3612L39.8343 58.9912C40.0975 59.3157 40.4494 59.5903 40.8944 59.5903V58.5903ZM40.6079 58.3576C40.4407 58.1554 40.3866 57.9858 40.3866 57.8403H39.3866C39.3866 58.2677 39.5565 58.6554 39.8372 58.9949L40.6079 58.3576ZM40.3866 57.8403C40.3866 57.496 40.4982 57.0027 40.7647 56.3391L39.8367 55.9665C39.5511 56.6779 39.3866 57.3096 39.3866 57.8403H40.3866ZM40.7647 56.3391C41.0547 55.6168 41.2147 54.9521 41.2147 54.3559H40.2147C40.2147 54.7806 40.0988 55.3137 39.8367 55.9665L40.7647 56.3391ZM41.2147 54.3559C41.2147 53.4647 41.0516 52.7054 40.6452 52.1591C40.2182 51.585 39.5831 51.3247 38.8319 51.3247V52.3247C39.336 52.3247 39.6423 52.4862 39.8429 52.7559C40.0641 53.0533 40.2147 53.5596 40.2147 54.3559H41.2147ZM38.8319 51.3247C38.2073 51.3247 37.6799 51.648 37.2525 52.1608L38.0207 52.801C38.3226 52.4388 38.5919 52.3247 38.8319 52.3247V51.3247ZM37.2503 52.1635C37.0581 52.3975 36.901 52.621 36.7899 52.8319C36.6819 53.0371 36.5976 53.2671 36.5976 53.5043H37.5976C37.5976 53.4968 37.6031 53.4339 37.6747 53.2979C37.7433 53.1676 37.8558 53.0018 38.023 52.7983L37.2503 52.1635ZM36.5977 53.5173C36.6394 55.1272 36.6837 56.7371 36.7306 58.347L37.7302 58.3179C37.6833 56.7091 37.639 55.1002 37.5974 53.4914L36.5977 53.5173ZM37.2571 58.8318C37.5334 58.817 37.9094 58.8117 38.3891 58.8168L38.3998 57.8169C37.9107 57.8116 37.5106 57.8167 37.2036 57.8332L37.2571 58.8318ZM37.8958 58.2799L37.8645 58.7018L38.8618 58.7757L38.8931 58.3538L37.8958 58.2799ZM38.4165 58.2416C38.1005 58.2077 37.7113 58.1918 37.2538 58.1918V59.1918C37.6921 59.1918 38.0426 59.2072 38.3099 59.2359L38.4165 58.2416ZM37.2538 58.1918C36.5138 58.1918 35.9118 58.2284 35.4623 58.3091L35.639 59.2934C36.0021 59.2282 36.5355 59.1918 37.2538 59.1918V58.1918ZM36.0502 58.78L36.0346 58.4128L35.0355 58.4553L35.0511 58.8225L36.0502 58.78ZM35.5351 58.934C36.0623 58.934 36.5158 58.9128 36.8912 58.868L36.7727 57.8751C36.4501 57.9136 36.0391 57.934 35.5351 57.934V58.934ZM37.3317 58.3877C37.3643 57.3814 37.2213 55.562 36.9144 52.9614L35.9213 53.0786C36.229 55.6863 36.3621 57.4346 36.3322 58.3553L37.3317 58.3877ZM36.9146 52.9625C36.6115 50.3451 36.2808 48.2612 35.9204 46.7187L34.9466 46.9462C35.2945 48.435 35.62 50.4761 35.9212 53.0775L36.9146 52.9625ZM35.3532 46.339C35.1587 46.3706 34.8154 46.4009 34.3065 46.4269L34.3574 47.4256C34.8693 47.3995 35.2604 47.3672 35.5138 47.326L35.3532 46.339ZM34.8313 46.9019L34.8157 46.5816L33.8169 46.6303L33.8325 46.9506L34.8313 46.9019ZM34.32 47.1059C35.0765 47.1003 36.2026 46.9494 37.676 46.6673L37.4879 45.6851C36.0237 45.9655 34.9727 46.1011 34.3126 46.1059L34.32 47.1059ZM37.0826 46.2018L37.0982 46.5065L38.0969 46.4553L38.0813 46.1506L37.0826 46.2018ZM37.4982 45.9909C37.1161 46.0683 36.8146 46.1239 36.591 46.1587L36.7447 47.1468C36.9899 47.1087 37.3082 47.0497 37.6969 46.9709L37.4982 45.9909ZM36.1721 46.7175C36.2476 47.2964 36.3171 48.1816 36.3795 49.3819L37.3781 49.33C37.3155 48.1239 37.2444 47.2071 37.1637 46.5881L36.1721 46.7175ZM36.3795 49.3827L36.567 52.8749L37.5656 52.8213L37.3781 49.3291L36.3795 49.3827ZM37.5208 53.0564C37.7164 52.6298 37.9851 52.3023 38.3252 52.06L37.7449 51.2456C37.2517 51.597 36.8746 52.0664 36.6118 52.6398L37.5208 53.0564ZM38.3285 52.0576C38.6742 51.807 39.0033 51.6997 39.3241 51.6997V50.6997C38.7596 50.6997 38.2292 50.8944 37.7416 51.248L38.3285 52.0576ZM39.3241 51.6997C39.8845 51.6997 40.3193 51.895 40.6687 52.2892L41.417 51.6258C40.8706 51.0095 40.1596 50.6997 39.3241 50.6997V51.6997ZM40.6724 52.2932C41.0561 52.7166 41.2226 53.1426 41.2226 53.5825H42.2226C42.2226 52.8557 41.9359 52.1983 41.4134 51.6217L40.6724 52.2932ZM41.2226 53.5825C41.2226 54.2202 40.9533 54.9891 40.3324 55.9031L41.1596 56.465C41.8408 55.4623 42.2226 54.4969 42.2226 53.5825H41.2226ZM40.3311 55.9049C40.1315 56.2017 39.9743 56.4665 39.8698 56.694L40.7785 57.1115C40.851 56.9536 40.9751 56.7392 41.1609 56.4631L40.3311 55.9049ZM39.8672 56.6997C39.7484 56.967 39.6991 57.2666 39.6991 57.5825H40.6991C40.6991 57.3671 40.7332 57.2136 40.781 57.1059L39.8672 56.6997ZM39.6991 57.5825C39.6991 58.0741 39.9008 58.5053 40.3522 58.749L40.8273 57.8691C40.7578 57.8316 40.6991 57.7783 40.6991 57.5825H39.6991ZM40.3491 58.7473C40.6503 58.9127 40.9656 59.0278 41.2772 59.0278V58.0278C41.2035 58.0278 41.0605 57.9971 40.8304 57.8707L40.3491 58.7473ZM41.2772 59.0278C41.5721 59.0278 41.8581 58.9226 42.0627 58.6725L41.2887 58.0393C41.2892 58.0387 41.2915 58.036 41.2959 58.0328C41.3002 58.0294 41.3045 58.0271 41.3077 58.0257C41.3145 58.0228 41.3077 58.0278 41.2772 58.0278V59.0278ZM42.0541 58.6827C42.2467 58.4596 42.3241 58.1873 42.3241 57.9106H41.3241C41.3241 57.9985 41.3025 58.023 41.2973 58.0291L42.0541 58.6827ZM42.3241 57.9106C42.3241 57.6301 42.2488 57.3653 42.1056 57.1241L41.2458 57.6346C41.3005 57.7268 41.3241 57.8161 41.3241 57.9106H42.3241ZM42.1146 57.1399C41.9921 56.9153 41.7547 56.6215 41.3554 56.6215V57.6215C41.324 57.6215 41.2931 57.6156 41.2654 57.6051C41.2386 57.595 41.2208 57.5827 41.2118 57.5755C41.1969 57.5635 41.2089 57.5678 41.2367 57.6188L42.1146 57.1399ZM41.3554 56.6215C41.2336 56.6215 41.1042 56.6521 40.9856 56.7284C40.8694 56.8033 40.7917 56.9039 40.7415 57.001C40.6485 57.1806 40.6288 57.3863 40.6288 57.559H41.6288C41.6288 57.5063 41.6323 57.4721 41.6357 57.4527C41.6393 57.432 41.6408 57.439 41.6294 57.4608C41.6169 57.485 41.5865 57.5309 41.5269 57.5693C41.465 57.6092 41.4016 57.6215 41.3554 57.6215V56.6215ZM40.6288 57.559C40.6288 57.6535 40.6363 57.7561 40.6613 57.8561C40.6856 57.9531 40.7352 58.0835 40.8456 58.1938L41.5527 57.4867C41.5853 57.5193 41.6047 57.5509 41.6156 57.5727C41.6263 57.5942 41.6304 57.6093 41.6315 57.6135C41.633 57.6198 41.6288 57.6052 41.6288 57.559H40.6288ZM48.846 56.4965V55.9965H48.346V56.4965H48.846ZM49.0101 57.2387L49.3224 57.6292L49.3242 57.6277L49.0101 57.2387ZM48.1663 57.1762L47.8251 57.5418L47.8312 57.5473L48.1663 57.1762ZM48.221 55.9418L48.5481 56.3201L48.5538 56.315L48.221 55.9418ZM49.7991 56.0512L49.4341 56.393L49.4378 56.3968L49.7991 56.0512ZM49.5569 58.0278L49.2796 57.6118L49.277 57.6135L49.5569 58.0278ZM45.9319 57.3715L45.5836 57.7302L45.5849 57.7315L45.9319 57.3715ZM49.7913 51.684L49.4829 52.0776L49.4874 52.0811L49.7913 51.684ZM49.9007 54.2153L49.5947 53.8198L49.5924 53.8216L49.9007 54.2153ZM47.8382 52.9028L47.5639 53.3208L47.5714 53.3257L47.579 53.3304L47.8382 52.9028ZM47.9163 53.7153L47.5417 53.3839L47.5346 53.3923L47.9163 53.7153ZM47.2601 53.6997L47.1268 53.2178L46.7601 53.3192V53.6997H47.2601ZM47.4866 53.0434L47.1665 53.4275L47.173 53.4329L47.1797 53.4381L47.4866 53.0434ZM46.8851 53.1606L47.3229 53.4022L47.3262 53.3959L46.8851 53.1606ZM47.2444 54.2231L47.0151 54.6675L47.0237 54.6717L47.2444 54.2231ZM49.3538 54.1059L48.9846 53.7688L49.3538 54.1059ZM46.5569 52.3247L46.9802 52.5909L46.9811 52.5894L46.5569 52.3247ZM46.6429 57.2309L46.2475 57.5369L46.2491 57.5391L46.6429 57.2309ZM49.3147 57.8012L49.6015 58.2108L49.6028 58.2099L49.3147 57.8012ZM48.7757 56.8012L49.223 57.0249L49.2276 57.0153L48.7757 56.8012ZM48.846 56.9965C48.8966 56.9965 48.8418 57.009 48.7756 56.9456C48.7053 56.8783 48.7132 56.8137 48.7132 56.8481H49.7132C49.7132 56.6482 49.6599 56.4078 49.4672 56.2233C49.2785 56.0427 49.0402 55.9965 48.846 55.9965V56.9965ZM48.7132 56.8481C48.7132 56.8482 48.7132 56.8453 48.7144 56.8404C48.7156 56.8356 48.7173 56.8313 48.7188 56.8284C48.7221 56.8221 48.7198 56.8304 48.6959 56.8498L49.3242 57.6277C49.557 57.4397 49.7132 57.1743 49.7132 56.8481H48.7132ZM48.6977 56.8483C48.6219 56.9089 48.6041 56.895 48.6351 56.895V57.895C48.9056 57.895 49.1378 57.7768 49.3224 57.6292L48.6977 56.8483ZM48.6351 56.895C48.6529 56.895 48.611 56.9042 48.5015 56.8052L47.8312 57.5473C48.0445 57.74 48.3152 57.895 48.6351 57.895V56.895ZM48.5075 56.8107C48.4524 56.7593 48.4319 56.712 48.4319 56.6372H47.4319C47.4319 56.9894 47.5677 57.3015 47.8251 57.5418L48.5075 56.8107ZM48.4319 56.6372C48.4319 56.4589 48.4838 56.3756 48.5481 56.32L47.8939 55.5637C47.5728 55.8414 47.4319 56.2216 47.4319 56.6372H48.4319ZM48.5538 56.315C48.6447 56.234 48.7616 56.184 48.9397 56.184V55.184C48.545 55.184 48.1828 55.306 47.8882 55.5687L48.5538 56.315ZM48.9397 56.184C49.1491 56.184 49.3021 56.252 49.4341 56.3929L50.1641 55.7095C49.8378 55.3609 49.4179 55.184 48.9397 55.184V56.184ZM49.4378 56.3968C49.5661 56.531 49.6429 56.7086 49.6429 56.9731H50.6429C50.6429 56.4876 50.4905 56.0507 50.1604 55.7056L49.4378 56.3968ZM49.6429 56.9731C49.6429 57.2369 49.5411 57.4374 49.2796 57.6118L49.8343 58.4438C50.354 58.0973 50.6429 57.5947 50.6429 56.9731H49.6429ZM49.277 57.6135C48.974 57.8183 48.6469 57.9184 48.2835 57.9184V58.9184C48.8472 58.9184 49.3691 58.7581 49.8369 58.4421L49.277 57.6135ZM48.2835 57.9184C47.5934 57.9184 46.9288 57.638 46.279 57.0116L45.5849 57.7315C46.383 58.5009 47.286 58.9184 48.2835 58.9184V57.9184ZM46.2803 57.0129C45.6523 56.4029 45.346 55.6803 45.346 54.8168H44.346C44.346 55.9534 44.7637 56.9339 45.5836 57.7302L46.2803 57.0129ZM45.346 54.8168C45.346 54.0125 45.6413 53.2729 46.2701 52.5835L45.5313 51.9096C44.7538 52.7619 44.346 53.7358 44.346 54.8168H45.346ZM46.2701 52.5835C46.9102 51.8818 47.5328 51.5903 48.1429 51.5903V50.5903C47.1696 50.5903 46.2974 51.0696 45.5313 51.9096L46.2701 52.5835ZM48.1429 51.5903C48.6155 51.5903 49.0581 51.7448 49.4829 52.0776L50.0997 51.2905C49.5141 50.8316 48.8577 50.5903 48.1429 50.5903V51.5903ZM49.4874 52.0811C49.9386 52.4264 50.0569 52.7054 50.0569 52.9106H51.0569C51.0569 52.2616 50.6648 51.7229 50.0952 51.287L49.4874 52.0811ZM50.0569 52.9106C50.0569 53.2798 49.9157 53.5714 49.5947 53.8199L50.2067 54.6107C50.7607 54.182 51.0569 53.6039 51.0569 52.9106H50.0569ZM49.5924 53.8216C49.2644 54.0785 48.8349 54.2231 48.2679 54.2231V55.2231C49.0133 55.2231 49.6724 55.0291 50.209 54.6089L49.5924 53.8216ZM48.2679 54.2231C47.6668 54.2231 47.2695 54.1373 47.0281 54.013L46.5701 54.902C47.0163 55.1318 47.5981 55.2231 48.2679 55.2231V54.2231ZM47.0281 54.013C46.8074 53.8993 46.7835 53.8015 46.7835 53.7153H45.7835C45.7835 54.2645 46.1034 54.6615 46.5701 54.902L47.0281 54.013ZM46.7835 53.7153C46.7835 53.5717 46.8288 53.4775 46.9284 53.3924L46.2792 52.6319C45.9518 52.9114 45.7835 53.2859 45.7835 53.7153H46.7835ZM46.9284 53.3924C47.0702 53.2714 47.1828 53.2387 47.2757 53.2387V52.2387C46.8998 52.2387 46.5645 52.3883 46.2792 52.6319L46.9284 53.3924ZM47.2757 53.2387C47.3912 53.2387 47.4825 53.2674 47.5639 53.3208L48.1125 52.4848C47.8606 52.3194 47.5769 52.2387 47.2757 52.2387V53.2387ZM47.579 53.3304C47.6231 53.3571 47.6275 53.3695 47.6195 53.3579C47.615 53.3513 47.6084 53.3397 47.6033 53.3235C47.5981 53.3072 47.596 53.2913 47.596 53.2778H48.596C48.596 52.8943 48.3557 52.6318 48.0973 52.4752L47.579 53.3304ZM47.596 53.2778C47.596 53.293 47.5942 53.3247 47.5418 53.384L48.2908 54.0466C48.478 53.835 48.596 53.575 48.596 53.2778H47.596ZM47.5346 53.3923C47.5184 53.4114 47.5058 53.4241 47.4971 53.4319C47.4883 53.4397 47.4851 53.4413 47.4877 53.4398C47.4904 53.4381 47.5002 53.4326 47.5166 53.4276C47.5336 53.4224 47.5553 53.4184 47.5804 53.4184V54.4184C47.9077 54.4184 48.1465 54.2174 48.298 54.0383L47.5346 53.3923ZM47.5804 53.4184C47.5539 53.4184 47.5459 53.416 47.5512 53.4172C47.5565 53.4184 47.5851 53.4255 47.6221 53.4508C47.6624 53.4784 47.7023 53.5206 47.7294 53.576C47.7554 53.6292 47.7601 53.675 47.7601 53.6997H46.7601C46.7601 53.9131 46.8492 54.1339 47.0582 54.2766C47.2329 54.396 47.4323 54.4184 47.5804 54.4184V53.4184ZM47.3934 54.1816C47.5589 54.1358 47.7378 54.0595 47.8812 53.9221C48.0391 53.771 48.1272 53.5704 48.1272 53.3481H47.1272C47.1272 53.3271 47.1314 53.2977 47.1452 53.2658C47.1588 53.2342 47.1766 53.2123 47.1897 53.1998C47.2016 53.1884 47.2065 53.1877 47.1958 53.193C47.1851 53.1984 47.1634 53.2076 47.1268 53.2178L47.3934 54.1816ZM48.1272 53.3481C48.1272 53.0807 48.022 52.8264 47.7936 52.6487L47.1797 53.4381C47.1674 53.4286 47.1502 53.4101 47.1381 53.3838C47.1266 53.359 47.1272 53.3436 47.1272 53.3481H48.1272ZM47.8067 52.6593C47.6168 52.5011 47.3894 52.4262 47.1507 52.4262V53.4262C47.1582 53.4262 47.1629 53.4268 47.1653 53.4272C47.1676 53.4275 47.1682 53.4278 47.1676 53.4276C47.167 53.4274 47.1661 53.427 47.1654 53.4266C47.1647 53.4262 47.1651 53.4263 47.1665 53.4275L47.8067 52.6593ZM47.1507 52.4262C46.7527 52.4262 46.5376 52.7497 46.4439 52.9253L47.3262 53.3959C47.3524 53.3468 47.3619 53.3447 47.3448 53.3597C47.3345 53.3688 47.3126 53.3857 47.2783 53.4004C47.2425 53.4158 47.1988 53.4262 47.1507 53.4262V52.4262ZM46.4473 52.9191C46.326 53.1388 46.2601 53.3776 46.2601 53.6293H47.2601C47.2601 53.5581 47.2774 53.4844 47.3228 53.4021L46.4473 52.9191ZM46.2601 53.6293C46.2601 54.1403 46.6315 54.4694 47.0151 54.6674L47.4738 53.7788C47.3494 53.7146 47.2917 53.662 47.2686 53.6336C47.2518 53.613 47.2601 53.6155 47.2601 53.6293H46.2601ZM47.0237 54.6717C47.4364 54.8748 47.9117 54.9653 48.4319 54.9653V53.9653C48.025 53.9653 47.7088 53.8943 47.4652 53.7745L47.0237 54.6717ZM48.4319 54.9653C48.9349 54.9653 49.3892 54.8087 49.7231 54.443L48.9846 53.7688C48.881 53.8823 48.7207 53.9653 48.4319 53.9653V54.9653ZM49.7231 54.443C50.0457 54.0897 50.1819 53.6354 50.1819 53.1372H49.1819C49.1819 53.4514 49.0994 53.643 48.9846 53.7688L49.7231 54.443ZM50.1819 53.1372C50.1819 52.5787 49.9685 52.0659 49.5912 51.6082L48.8196 52.2443C49.0776 52.5573 49.1819 52.8518 49.1819 53.1372H50.1819ZM49.5912 51.6082C49.1869 51.1177 48.6591 50.8481 48.0335 50.8481V51.8481C48.335 51.8481 48.5884 51.9639 48.8196 52.2443L49.5912 51.6082ZM48.0335 50.8481C47.2277 50.8481 46.5967 51.3164 46.1327 52.06L46.9811 52.5894C47.3296 52.0308 47.683 51.8481 48.0335 51.8481V50.8481ZM46.1337 52.0584C45.6594 52.8124 45.4476 53.7943 45.4476 54.9575H46.4476C46.4476 53.9019 46.6419 53.1286 46.9802 52.5909L46.1337 52.0584ZM45.4476 54.9575C45.4476 55.9609 45.7028 56.8331 46.2475 57.5369L47.0383 56.9249C46.6559 56.4308 46.4476 55.7874 46.4476 54.9575H45.4476ZM46.2491 57.5391C46.8002 58.2433 47.5143 58.6293 48.3694 58.6293V57.6293C47.86 57.6293 47.423 57.4165 47.0366 56.9228L46.2491 57.5391ZM48.3694 58.6293C48.8089 58.6293 49.2221 58.4764 49.6015 58.2108L49.028 57.3916C48.7824 57.5636 48.5654 57.6293 48.3694 57.6293V58.6293ZM49.6028 58.2099C50.0307 57.9083 50.2913 57.4845 50.2913 56.9575H49.2913C49.2913 57.1075 49.2342 57.2463 49.0267 57.3926L49.6028 58.2099ZM50.2913 56.9575C50.2913 56.5337 50.0719 56.1996 49.7478 55.9659L49.163 56.7771C49.2868 56.8664 49.2913 56.9229 49.2913 56.9575H50.2913ZM49.7478 55.9659C49.4423 55.7457 49.0959 55.6293 48.721 55.6293V56.6293C48.8773 56.6293 49.0206 56.6745 49.163 56.7771L49.7478 55.9659ZM48.721 55.6293C48.4571 55.6293 48.2115 55.7183 48.0115 55.8983L48.6805 56.6416C48.6884 56.6345 48.6924 56.6331 48.6934 56.6327C48.6948 56.6321 48.7025 56.6293 48.721 56.6293V55.6293ZM48.0115 55.8983C47.811 56.0788 47.6897 56.3222 47.6897 56.6059H48.6897C48.6897 56.6069 48.6896 56.6108 48.6883 56.6168C48.687 56.6229 48.6849 56.6292 48.6822 56.6351C48.6762 56.6479 48.6717 56.6495 48.6805 56.6416L48.0115 55.8983ZM47.6897 56.6059C47.6897 56.8195 47.7571 57.0631 47.9671 57.2401C48.1607 57.4034 48.3971 57.4418 48.5882 57.4418V56.4418C48.5136 56.4418 48.5509 56.4243 48.6117 56.4756C48.6442 56.5031 48.6671 56.5373 48.6796 56.5691C48.691 56.5978 48.6897 56.6136 48.6897 56.6059H47.6897ZM48.5882 57.4418C48.921 57.4418 49.1251 57.2204 49.2229 57.0248L48.3285 56.5776C48.329 56.5766 48.3332 56.5683 48.3429 56.5558C48.3528 56.5431 48.3692 56.5251 48.3937 56.5067C48.449 56.4652 48.5191 56.4418 48.5882 56.4418V57.4418ZM49.2276 57.0153C49.3045 56.8529 49.346 56.6785 49.346 56.4965H48.346C48.346 56.5229 48.3407 56.5516 48.3238 56.5872L49.2276 57.0153ZM54.6335 53.309L54.1341 53.2837L55.1048 53.4761L54.6335 53.309ZM59.196 51.9575L58.8325 52.3008L58.8339 52.3022L59.196 51.9575ZM56.6413 58.0043L56.2988 58.3687L56.3025 58.372L56.6413 58.0043ZM56.5866 56.645L56.891 57.0416L56.5866 56.645ZM57.1804 57.2622L56.7899 56.9498L56.6079 57.1773L56.7161 57.4479L57.1804 57.2622ZM57.2429 57.184L57.3899 56.7061L57.0649 56.6061L56.8524 56.8717L57.2429 57.184ZM56.9772 56.8559L57.4157 57.0963L57.4188 57.0905L56.9772 56.8559ZM58.446 52.1918L58.0334 52.4743L58.0346 52.4761L58.446 52.1918ZM55.8679 51.8481L56.2135 52.2094L56.2136 52.2093L55.8679 51.8481ZM55.0163 53.0668L55.4724 53.2718L55.4732 53.2699L55.0163 53.0668ZM54.7038 53.8559L55.2024 53.8929L55.2038 53.8744V53.8559H54.7038ZM54.3991 57.9653L53.9005 57.9283L53.8498 58.6118L54.5161 58.4514L54.3991 57.9653ZM55.2429 57.7622L55.726 57.6333L55.6003 57.1618L55.1258 57.276L55.2429 57.7622ZM55.3366 58.1137L55.4557 58.5993L55.9512 58.4778L55.8197 57.9849L55.3366 58.1137ZM52.9851 58.27L52.4948 58.1719L52.3826 58.7325L52.9532 58.769L52.9851 58.27ZM53.0554 57.9184L53.0929 57.4198L52.6518 57.3867L52.5651 57.8204L53.0554 57.9184ZM54.0944 57.9965L54.0569 58.4951L54.5676 58.5335L54.5938 58.0221L54.0944 57.9965ZM53.5163 51.2153L54.0059 51.1139L53.9083 50.6424L53.4334 50.7222L53.5163 51.2153ZM52.6335 51.3637L52.1579 51.518L52.291 51.9283L52.7164 51.8568L52.6335 51.3637ZM52.5397 51.0747L52.479 50.5784L51.877 50.652L52.0641 51.2289L52.5397 51.0747ZM54.7819 50.3872L55.2813 50.4125L55.324 49.5726L54.5657 49.9364L54.7819 50.3872ZM55.1048 53.4761C55.6288 51.9979 56.3246 51.4731 57.1022 51.4731V50.4731C55.6924 50.4731 54.7424 51.5056 54.1622 53.142L55.1048 53.4761ZM57.1022 51.4731C57.718 51.4731 58.2903 51.7267 58.8325 52.3008L59.5595 51.6142C58.8621 50.8757 58.0386 50.4731 57.1022 50.4731V51.4731ZM58.8339 52.3022C59.3672 52.8625 59.6257 53.5055 59.6257 54.2543H60.6257C60.6257 53.2428 60.2643 52.3545 59.5581 51.6127L58.8339 52.3022ZM59.6257 54.2543C59.6257 55.1126 59.3722 55.9469 58.8458 56.7651L59.6868 57.3061C60.3063 56.3431 60.6257 55.3232 60.6257 54.2543H59.6257ZM58.8458 56.7651C58.3024 57.6098 57.8293 57.8715 57.4538 57.8715V58.8715C58.3492 58.8715 59.0843 58.2427 59.6868 57.3061L58.8458 56.7651ZM57.4538 57.8715C57.3381 57.8715 57.1827 57.8233 56.9801 57.6367L56.3025 58.372C56.6312 58.6749 57.0174 58.8715 57.4538 58.8715V57.8715ZM56.9838 57.64C56.7902 57.4581 56.7507 57.3235 56.7507 57.2309H55.7507C55.7507 57.68 55.9716 58.061 56.2989 58.3687L56.9838 57.64ZM56.7507 57.2309C56.7507 57.2111 56.7512 57.1489 56.891 57.0416L56.2822 56.2483C55.9741 56.4848 55.7507 56.8133 55.7507 57.2309H56.7507ZM56.891 57.0416C57.0461 56.9227 57.171 56.8872 57.2741 56.8872V55.8872C56.9085 55.8872 56.5751 56.0235 56.2822 56.2483L56.891 57.0416ZM57.2741 56.8872C57.3866 56.8872 57.471 56.896 57.532 56.9086C57.5935 56.9213 57.6202 56.9355 57.6262 56.9392C57.6288 56.9409 57.6149 56.9321 57.6029 56.9099C57.5916 56.8888 57.5944 56.8787 57.5944 56.895H58.5944C58.5944 56.5636 58.4456 56.2704 58.1525 56.089C57.899 55.932 57.5829 55.8872 57.2741 55.8872V56.8872ZM57.5944 56.895C57.5944 56.9256 57.5897 56.9295 57.5945 56.9178C57.597 56.9117 57.6013 56.9032 57.6081 56.8939C57.615 56.8845 57.6227 56.8767 57.6299 56.8708C57.6447 56.8588 57.6494 56.8611 57.6292 56.8666C57.608 56.8724 57.5673 56.8793 57.5007 56.8793V57.8793C57.7538 57.8793 58.0364 57.8298 58.2621 57.6457C58.5072 57.4457 58.5944 57.1634 58.5944 56.895H57.5944ZM57.5007 56.8793C57.4371 56.8793 57.431 56.8714 57.4557 56.8805C57.4708 56.886 57.504 56.9004 57.5416 56.9323C57.5816 56.9663 57.6199 57.0147 57.6446 57.0765L56.7161 57.4479C56.8012 57.6605 56.9743 57.7692 57.1121 57.8196C57.2436 57.8677 57.3819 57.8793 57.5007 57.8793V56.8793ZM57.5708 57.5745L57.6333 57.4964L56.8524 56.8717L56.7899 56.9498L57.5708 57.5745ZM57.0958 57.6619C57.1953 57.6925 57.3063 57.7153 57.4226 57.7153V56.7153C57.4295 56.7153 57.4305 56.7159 57.4242 56.7149C57.4181 56.7138 57.4068 56.7114 57.3899 56.7061L57.0958 57.6619ZM57.4226 57.7153C57.5285 57.7153 57.6447 57.6898 57.7534 57.6228C57.8607 57.5566 57.933 57.467 57.9796 57.3808C58.0647 57.2233 58.0788 57.0513 58.0788 56.9262H57.0788C57.0788 56.9533 57.0769 56.9646 57.077 56.964C57.0771 56.9633 57.0781 56.9576 57.0812 56.9481C57.0843 56.9387 57.09 56.9237 57.0999 56.9053C57.1205 56.8672 57.1602 56.8137 57.2285 56.7716C57.2981 56.7287 57.3687 56.7153 57.4226 56.7153V57.7153ZM58.0788 56.9262C58.0788 56.7484 58.037 56.5223 57.8649 56.3414C57.6884 56.1558 57.4593 56.1059 57.2741 56.1059V57.1059C57.2921 57.1059 57.2153 57.1094 57.1404 57.0306C57.0699 56.9565 57.0788 56.8905 57.0788 56.9262H58.0788ZM57.2741 56.1059C56.8732 56.1059 56.6457 56.4142 56.5357 56.6213L57.4188 57.0905C57.4456 57.04 57.4564 57.037 57.4399 57.0509C57.43 57.0592 57.4102 57.0736 57.3797 57.0858C57.3483 57.0984 57.312 57.1059 57.2741 57.1059V56.1059ZM56.5388 56.6155C56.4142 56.8427 56.3444 57.0888 56.3444 57.3481H57.3444C57.3444 57.274 57.3632 57.192 57.4157 57.0963L56.5388 56.6155ZM56.3444 57.3481C56.3444 57.6624 56.4136 57.9916 56.64 58.2442C56.8757 58.5074 57.2002 58.5981 57.5163 58.5981V57.5981C57.4496 57.5981 57.4129 57.5886 57.3967 57.5826C57.389 57.5797 57.3857 57.5776 57.3851 57.5772C57.3847 57.5769 57.3849 57.577 57.3848 57.577C57.3847 57.5768 57.3826 57.5746 57.3793 57.5684C57.3759 57.562 57.3708 57.5509 57.3655 57.5332C57.3546 57.4966 57.3444 57.4374 57.3444 57.3481H56.3444ZM57.5163 58.5981C57.8931 58.5981 58.2334 58.4682 58.515 58.2179C58.7863 57.9768 58.9828 57.6428 59.1271 57.258C59.4131 56.4952 59.5397 55.4068 59.5397 54.0356H58.5397C58.5397 55.3727 58.4125 56.3156 58.1907 56.9069C58.0811 57.1993 57.9602 57.3731 57.8506 57.4705C57.7514 57.5587 57.6473 57.5981 57.5163 57.5981V58.5981ZM59.5397 54.0356C59.5397 53.2714 59.3072 52.5587 58.8574 51.9076L58.0346 52.4761C58.3765 52.9708 58.5397 53.4873 58.5397 54.0356H59.5397ZM58.8586 51.9094C58.4049 51.2468 57.8109 50.8247 57.071 50.8247V51.8247C57.3728 51.8247 57.6954 51.9807 58.0334 52.4743L58.8586 51.9094ZM57.071 50.8247C56.4849 50.8247 55.9644 51.0636 55.5221 51.4869L56.2136 52.2093C56.5005 51.9347 56.7821 51.8247 57.071 51.8247V50.8247ZM55.5223 51.4868C55.1143 51.877 54.7933 52.3374 54.5594 52.8638L55.4732 53.2699C55.656 52.8587 55.9026 52.5067 56.2135 52.2094L55.5223 51.4868ZM54.5603 52.8619C54.455 53.0961 54.3733 53.2857 54.3171 53.4277C54.2892 53.4981 54.2651 53.563 54.2471 53.6191C54.2367 53.6518 54.2038 53.7511 54.2038 53.8559H55.2038C55.2038 53.8844 55.201 53.9057 55.1996 53.9154C55.198 53.9263 55.1964 53.9335 55.1958 53.9357C55.1949 53.9397 55.1955 53.9366 55.1996 53.9238C55.2077 53.8985 55.2226 53.857 55.2468 53.7959C55.2947 53.6748 55.3693 53.5012 55.4724 53.2718L54.5603 52.8619ZM54.2052 53.8189L53.9005 57.9283L54.8978 58.0023L55.2024 53.8929L54.2052 53.8189ZM54.5161 58.4514L55.3599 58.2483L55.1258 57.276L54.2821 57.4792L54.5161 58.4514ZM54.7598 57.891L54.8535 58.2426L55.8197 57.9849L55.726 57.6333L54.7598 57.891ZM55.2175 57.6281C54.6706 57.7623 54.3115 57.8168 54.1101 57.8168V58.8168C54.4399 58.8168 54.8984 58.736 55.4557 58.5993L55.2175 57.6281ZM54.1101 57.8168C53.8658 57.8168 53.5034 57.802 53.0169 57.771L52.9532 58.769C53.4459 58.8004 53.8335 58.8168 54.1101 58.8168V57.8168ZM53.4753 58.368L53.5457 58.0165L52.5651 57.8204L52.4948 58.1719L53.4753 58.368ZM53.0179 58.417L54.0569 58.4951L54.1319 57.4979L53.0929 57.4198L53.0179 58.417ZM54.5938 58.0221C54.6048 57.808 54.6101 57.5568 54.6101 57.27H53.6101C53.6101 57.5456 53.6049 57.7789 53.5951 57.9709L54.5938 58.0221ZM54.6101 57.27C54.6101 55.1139 54.4092 53.0615 54.0059 51.1139L53.0267 51.3167C53.415 53.192 53.6101 55.1761 53.6101 57.27H54.6101ZM53.4334 50.7222L52.5506 50.8706L52.7164 51.8568L53.5992 51.7084L53.4334 50.7222ZM53.1091 51.2095L53.0154 50.9204L52.0641 51.2289L52.1579 51.518L53.1091 51.2095ZM52.6004 51.571C53.3868 51.4748 54.1866 51.2273 54.9982 50.838L54.5657 49.9364C53.8356 50.2866 53.1406 50.4974 52.479 50.5784L52.6004 51.571ZM54.2826 50.3618L54.1341 53.2837L55.1329 53.3344L55.2813 50.4125L54.2826 50.3618Z" fill="#2B690D" mask="url(#path-5-outside-1_11_886)"/>
</svg>
